M48
;GenerationSoftware,Autodesk,EAGLE,9.6.2*%
;CreationDate,2021-10-06T03:53:58Z*%
FMAT,2
ICI,OFF
METRIC,TZ,000.000
T6C0.330
T5C0.350
T4C0.400
T3C0.430
T2C0.600
T1C3.300
%
G90
M71
T1
X39497Y4115
X39497Y32512
X4089Y32512
T2
X11174Y35003
X19814Y30853
X11174Y30853
X19814Y35003
T3
X12519Y30353
X18469Y30353
X17619Y30353
X16769Y30353
X15919Y30353
X15069Y30353
X14219Y30353
X13369Y30353
X18469Y31703
X17619Y31703
X16769Y31703
X15919Y31703
X15069Y31703
X14219Y31703
X13369Y31703
X12519Y31703
T4
X7112Y23368
X8001Y23368
X7112Y24257
X8001Y24257
X7112Y25146
X8890Y24257
X8890Y25146
X8001Y25146
T5
X14097Y6477
X19431Y27940
X20828Y27432
X7239Y28829
X42545Y9144
X31496Y2032
X31115Y30099
X31242Y35052
X27559Y33909
X26162Y23622
X17780Y19050
X20320Y19050
X35560Y11557
X35560Y13970
X25400Y12700
X22860Y10160
X25400Y10160
X33020Y3810
X762Y20828
X8636Y34163
X15621Y25527
X2032Y20879
X12827Y23622
X1270Y19050
X12446Y21590
X21717Y23495
X16510Y23495
X19939Y5588
X2540Y19050
X3302Y5715
X20066Y14351
X20320Y16891
X20447Y13081
X15494Y16525
X20828Y29083
X42418Y28067
X34036Y27305
X30861Y7874
X29210Y5080
X26162Y6985
X15494Y19812
X2794Y762
X16764Y762
X33401Y12700
X30099Y20066
X32004Y18415
X24892Y22098
X19050Y20701
X20320Y22733
X3556Y25400
X11430Y23622
X14097Y25654
X38862Y12954
X39751Y10922
X41148Y12700
X41021Y17145
X38227Y17145
X33655Y16764
X27051Y17907
X34290Y6985
X29210Y2667
X9271Y11303
X12827Y11303
X8001Y10033
X8001Y6477
X9271Y5207
X12827Y5207
X14097Y10033
T6
X38570Y14567
X37668Y14567
M30