G04 EAGLE Gerber RS-274X export*
G75*
%MOMM*%
%FSLAX34Y34*%
%LPD*%
%INCopper Layer 15*%
%IPPOS*%
%AMOC8*
5,1,8,0,0,1.08239X$1,22.5*%
G01*
%ADD10C,4.316000*%
%ADD11C,0.704800*%
%ADD12C,0.634800*%
%ADD13C,0.734800*%
%ADD14C,0.904800*%
%ADD15C,0.756400*%

G36*
X432836Y3052D02*
X432836Y3052D01*
X432855Y3050D01*
X432957Y3072D01*
X433059Y3088D01*
X433076Y3098D01*
X433096Y3102D01*
X433185Y3155D01*
X433276Y3204D01*
X433290Y3218D01*
X433307Y3228D01*
X433374Y3307D01*
X433446Y3382D01*
X433454Y3400D01*
X433467Y3415D01*
X433506Y3511D01*
X433549Y3605D01*
X433551Y3625D01*
X433559Y3643D01*
X433577Y3810D01*
X433577Y362712D01*
X433574Y362732D01*
X433576Y362751D01*
X433554Y362853D01*
X433538Y362955D01*
X433528Y362972D01*
X433524Y362992D01*
X433471Y363081D01*
X433422Y363172D01*
X433408Y363186D01*
X433398Y363203D01*
X433319Y363270D01*
X433244Y363342D01*
X433226Y363350D01*
X433211Y363363D01*
X433115Y363402D01*
X433021Y363445D01*
X433001Y363447D01*
X432983Y363455D01*
X432816Y363473D01*
X205625Y363473D01*
X205612Y363471D01*
X205598Y363473D01*
X205490Y363451D01*
X205383Y363434D01*
X205370Y363427D01*
X205357Y363424D01*
X205262Y363370D01*
X205165Y363318D01*
X205156Y363309D01*
X205144Y363302D01*
X205071Y363220D01*
X204996Y363140D01*
X204990Y363128D01*
X204981Y363117D01*
X204938Y363017D01*
X204892Y362917D01*
X204891Y362903D01*
X204885Y362891D01*
X204877Y362781D01*
X204865Y362673D01*
X204868Y362659D01*
X204867Y362645D01*
X204894Y362539D01*
X204917Y362432D01*
X204924Y362420D01*
X204928Y362407D01*
X205011Y362262D01*
X206085Y360798D01*
X206824Y359214D01*
X207240Y357516D01*
X207262Y357010D01*
X207263Y357005D01*
X207281Y356890D01*
X207281Y356603D01*
X207283Y356590D01*
X207281Y356570D01*
X207294Y356283D01*
X207281Y356163D01*
X207281Y351529D01*
X204739Y351529D01*
X204739Y356530D01*
X204736Y356534D01*
X204739Y356537D01*
X204565Y357756D01*
X204559Y357761D01*
X204562Y357765D01*
X204154Y358927D01*
X204148Y358931D01*
X204149Y358936D01*
X203522Y359995D01*
X203515Y359998D01*
X203516Y360003D01*
X202694Y360919D01*
X202687Y360921D01*
X202687Y360926D01*
X201702Y361665D01*
X201695Y361665D01*
X201694Y361670D01*
X200584Y362202D01*
X200577Y362201D01*
X200575Y362205D01*
X199639Y362445D01*
X199639Y362712D01*
X199636Y362732D01*
X199638Y362751D01*
X199616Y362853D01*
X199600Y362955D01*
X199590Y362972D01*
X199586Y362992D01*
X199533Y363081D01*
X199484Y363172D01*
X199470Y363186D01*
X199460Y363203D01*
X199381Y363270D01*
X199306Y363342D01*
X199288Y363350D01*
X199273Y363363D01*
X199177Y363402D01*
X199083Y363445D01*
X199063Y363447D01*
X199045Y363455D01*
X198878Y363473D01*
X197402Y363473D01*
X197382Y363470D01*
X197362Y363472D01*
X197261Y363450D01*
X197159Y363434D01*
X197142Y363424D01*
X197122Y363420D01*
X197033Y363367D01*
X196942Y363318D01*
X196928Y363304D01*
X196911Y363294D01*
X196844Y363215D01*
X196772Y363140D01*
X196764Y363122D01*
X196751Y363107D01*
X196712Y363011D01*
X196669Y362917D01*
X196667Y362897D01*
X196659Y362879D01*
X196641Y362712D01*
X196641Y362431D01*
X195728Y362190D01*
X195724Y362184D01*
X195719Y362187D01*
X194622Y361650D01*
X194619Y361644D01*
X194614Y361645D01*
X193643Y360905D01*
X193641Y360898D01*
X193635Y360898D01*
X192827Y359983D01*
X192827Y359976D01*
X192822Y359975D01*
X192207Y358920D01*
X192208Y358913D01*
X192203Y358911D01*
X191807Y357756D01*
X191809Y357749D01*
X191805Y357747D01*
X191641Y356537D01*
X191644Y356532D01*
X191641Y356530D01*
X191641Y351529D01*
X189099Y351529D01*
X189099Y356150D01*
X189099Y356152D01*
X189099Y356154D01*
X189088Y356254D01*
X189099Y356563D01*
X189097Y356573D01*
X189099Y356590D01*
X189099Y356899D01*
X189115Y357003D01*
X189132Y357492D01*
X189332Y358333D01*
X189533Y359182D01*
X189985Y360172D01*
X190255Y360762D01*
X190965Y361746D01*
X191316Y362232D01*
X191365Y362284D01*
X191381Y362319D01*
X191405Y362349D01*
X191433Y362430D01*
X191469Y362507D01*
X191473Y362545D01*
X191486Y362581D01*
X191486Y362667D01*
X191496Y362751D01*
X191488Y362789D01*
X191488Y362827D01*
X191462Y362908D01*
X191444Y362992D01*
X191424Y363025D01*
X191412Y363061D01*
X191361Y363130D01*
X191317Y363203D01*
X191288Y363228D01*
X191266Y363259D01*
X191195Y363307D01*
X191131Y363363D01*
X191095Y363377D01*
X191064Y363399D01*
X190982Y363423D01*
X190902Y363455D01*
X190853Y363460D01*
X190828Y363468D01*
X190797Y363466D01*
X190736Y363473D01*
X119265Y363473D01*
X119252Y363471D01*
X119238Y363473D01*
X119130Y363451D01*
X119023Y363434D01*
X119010Y363427D01*
X118997Y363424D01*
X118902Y363370D01*
X118805Y363318D01*
X118796Y363309D01*
X118784Y363302D01*
X118711Y363220D01*
X118636Y363140D01*
X118630Y363128D01*
X118621Y363117D01*
X118578Y363017D01*
X118532Y362917D01*
X118531Y362903D01*
X118525Y362891D01*
X118517Y362781D01*
X118505Y362673D01*
X118508Y362659D01*
X118507Y362645D01*
X118534Y362539D01*
X118557Y362432D01*
X118564Y362420D01*
X118568Y362407D01*
X118651Y362262D01*
X119725Y360798D01*
X120464Y359214D01*
X120880Y357516D01*
X120902Y357010D01*
X120903Y357005D01*
X120921Y356890D01*
X120921Y356603D01*
X120923Y356590D01*
X120921Y356570D01*
X120934Y356283D01*
X120921Y356163D01*
X120921Y351529D01*
X118379Y351529D01*
X118379Y356530D01*
X118376Y356534D01*
X118379Y356537D01*
X118205Y357756D01*
X118199Y357761D01*
X118202Y357765D01*
X117794Y358927D01*
X117788Y358931D01*
X117789Y358936D01*
X117162Y359995D01*
X117155Y359998D01*
X117156Y360003D01*
X116334Y360919D01*
X116327Y360921D01*
X116327Y360926D01*
X115342Y361665D01*
X115335Y361665D01*
X115334Y361670D01*
X114224Y362202D01*
X114217Y362201D01*
X114215Y362205D01*
X113239Y362455D01*
X113239Y362712D01*
X113236Y362732D01*
X113238Y362751D01*
X113216Y362853D01*
X113200Y362955D01*
X113190Y362972D01*
X113186Y362992D01*
X113133Y363081D01*
X113084Y363172D01*
X113070Y363186D01*
X113060Y363203D01*
X112981Y363270D01*
X112906Y363342D01*
X112888Y363350D01*
X112873Y363363D01*
X112777Y363402D01*
X112683Y363445D01*
X112663Y363447D01*
X112645Y363455D01*
X112478Y363473D01*
X111002Y363473D01*
X110982Y363470D01*
X110962Y363472D01*
X110861Y363450D01*
X110759Y363434D01*
X110742Y363424D01*
X110722Y363420D01*
X110633Y363367D01*
X110542Y363318D01*
X110528Y363304D01*
X110511Y363294D01*
X110444Y363215D01*
X110372Y363140D01*
X110364Y363122D01*
X110351Y363107D01*
X110312Y363011D01*
X110269Y362917D01*
X110267Y362897D01*
X110259Y362879D01*
X110241Y362712D01*
X110241Y362421D01*
X109368Y362190D01*
X109364Y362184D01*
X109359Y362187D01*
X108262Y361650D01*
X108259Y361644D01*
X108254Y361645D01*
X107283Y360905D01*
X107281Y360898D01*
X107275Y360898D01*
X106467Y359983D01*
X106467Y359976D01*
X106462Y359975D01*
X105847Y358920D01*
X105848Y358913D01*
X105843Y358911D01*
X105447Y357756D01*
X105449Y357749D01*
X105445Y357747D01*
X105281Y356537D01*
X105284Y356532D01*
X105281Y356530D01*
X105281Y351529D01*
X102739Y351529D01*
X102739Y356150D01*
X102739Y356152D01*
X102739Y356154D01*
X102728Y356254D01*
X102739Y356563D01*
X102737Y356573D01*
X102739Y356590D01*
X102739Y356899D01*
X102755Y357003D01*
X102772Y357492D01*
X103001Y358459D01*
X103173Y359182D01*
X103674Y360280D01*
X103675Y360280D01*
X103895Y360762D01*
X104668Y361833D01*
X104956Y362232D01*
X105005Y362284D01*
X105021Y362319D01*
X105045Y362349D01*
X105073Y362430D01*
X105109Y362507D01*
X105113Y362545D01*
X105126Y362581D01*
X105126Y362667D01*
X105136Y362751D01*
X105128Y362789D01*
X105128Y362827D01*
X105102Y362908D01*
X105084Y362992D01*
X105064Y363025D01*
X105052Y363061D01*
X105001Y363130D01*
X104957Y363203D01*
X104928Y363228D01*
X104906Y363259D01*
X104835Y363307D01*
X104771Y363363D01*
X104735Y363377D01*
X104704Y363399D01*
X104622Y363423D01*
X104542Y363455D01*
X104493Y363460D01*
X104468Y363468D01*
X104437Y363466D01*
X104376Y363473D01*
X3556Y363473D01*
X3536Y363470D01*
X3517Y363472D01*
X3415Y363450D01*
X3313Y363434D01*
X3296Y363424D01*
X3276Y363420D01*
X3187Y363367D01*
X3096Y363318D01*
X3082Y363304D01*
X3065Y363294D01*
X2998Y363215D01*
X2926Y363140D01*
X2918Y363122D01*
X2905Y363107D01*
X2866Y363011D01*
X2823Y362917D01*
X2821Y362897D01*
X2813Y362879D01*
X2795Y362712D01*
X2795Y212079D01*
X2806Y212008D01*
X2808Y211937D01*
X2826Y211888D01*
X2834Y211836D01*
X2868Y211773D01*
X2893Y211706D01*
X2925Y211665D01*
X2950Y211619D01*
X3002Y211569D01*
X3046Y211513D01*
X3090Y211485D01*
X3128Y211449D01*
X3193Y211419D01*
X3253Y211380D01*
X3304Y211368D01*
X3351Y211346D01*
X3422Y211338D01*
X3492Y211320D01*
X3544Y211324D01*
X3595Y211319D01*
X3666Y211334D01*
X3737Y211340D01*
X3785Y211360D01*
X3836Y211371D01*
X3897Y211408D01*
X3963Y211436D01*
X4019Y211481D01*
X4047Y211497D01*
X4062Y211515D01*
X4094Y211541D01*
X5632Y213079D01*
X9608Y213079D01*
X12419Y210268D01*
X12419Y206292D01*
X9608Y203481D01*
X5632Y203481D01*
X4094Y205019D01*
X4036Y205061D01*
X3984Y205111D01*
X3937Y205132D01*
X3895Y205163D01*
X3826Y205184D01*
X3761Y205214D01*
X3709Y205220D01*
X3659Y205235D01*
X3588Y205233D01*
X3517Y205241D01*
X3466Y205230D01*
X3414Y205229D01*
X3346Y205204D01*
X3276Y205189D01*
X3231Y205162D01*
X3183Y205144D01*
X3127Y205100D01*
X3065Y205063D01*
X3031Y205023D01*
X2991Y204991D01*
X2952Y204930D01*
X2905Y204876D01*
X2886Y204828D01*
X2858Y204784D01*
X2840Y204714D01*
X2813Y204648D01*
X2805Y204576D01*
X2797Y204545D01*
X2799Y204522D01*
X2795Y204481D01*
X2795Y3810D01*
X2798Y3790D01*
X2796Y3771D01*
X2818Y3669D01*
X2834Y3567D01*
X2844Y3550D01*
X2848Y3530D01*
X2901Y3441D01*
X2950Y3350D01*
X2964Y3336D01*
X2974Y3319D01*
X3053Y3252D01*
X3128Y3180D01*
X3146Y3172D01*
X3161Y3159D01*
X3257Y3120D01*
X3351Y3077D01*
X3371Y3075D01*
X3389Y3067D01*
X3556Y3049D01*
X432816Y3049D01*
X432836Y3052D01*
G37*
%LPC*%
G36*
X182877Y297554D02*
X182877Y297554D01*
X181746Y298023D01*
X181680Y298067D01*
X181664Y298074D01*
X181652Y298085D01*
X181553Y298125D01*
X181456Y298169D01*
X181439Y298170D01*
X181423Y298177D01*
X181257Y298195D01*
X128623Y298195D01*
X128607Y298193D01*
X128590Y298195D01*
X128485Y298173D01*
X128380Y298156D01*
X128366Y298148D01*
X128349Y298144D01*
X128200Y298067D01*
X128134Y298023D01*
X127003Y297554D01*
X126264Y297407D01*
X126264Y301481D01*
X127940Y301481D01*
X127987Y301517D01*
X127982Y301524D01*
X127989Y301530D01*
X127989Y319030D01*
X127953Y319077D01*
X127946Y319072D01*
X127940Y319079D01*
X126264Y319079D01*
X126264Y323153D01*
X127003Y323006D01*
X128134Y322537D01*
X129152Y321857D01*
X129221Y321788D01*
X129295Y321735D01*
X129365Y321675D01*
X129395Y321663D01*
X129421Y321644D01*
X129508Y321617D01*
X129593Y321583D01*
X129634Y321579D01*
X129656Y321572D01*
X129688Y321573D01*
X129760Y321565D01*
X131276Y321565D01*
X131366Y321579D01*
X131457Y321587D01*
X131487Y321599D01*
X131518Y321604D01*
X131599Y321647D01*
X131683Y321683D01*
X131715Y321709D01*
X131736Y321720D01*
X131737Y321721D01*
X135656Y321721D01*
X135709Y321675D01*
X135739Y321663D01*
X135766Y321644D01*
X135853Y321617D01*
X135938Y321583D01*
X135978Y321579D01*
X136001Y321572D01*
X136033Y321573D01*
X136104Y321565D01*
X139776Y321565D01*
X139866Y321579D01*
X139957Y321587D01*
X139987Y321599D01*
X140018Y321604D01*
X140099Y321647D01*
X140183Y321683D01*
X140215Y321709D01*
X140236Y321720D01*
X140237Y321721D01*
X144156Y321721D01*
X144209Y321675D01*
X144239Y321663D01*
X144266Y321644D01*
X144353Y321617D01*
X144438Y321583D01*
X144478Y321579D01*
X144501Y321572D01*
X144533Y321573D01*
X144604Y321565D01*
X148276Y321565D01*
X148366Y321579D01*
X148457Y321587D01*
X148487Y321599D01*
X148518Y321604D01*
X148599Y321647D01*
X148683Y321683D01*
X148715Y321709D01*
X148736Y321720D01*
X148737Y321721D01*
X152656Y321721D01*
X152709Y321675D01*
X152739Y321663D01*
X152766Y321644D01*
X152853Y321617D01*
X152938Y321583D01*
X152978Y321579D01*
X153001Y321572D01*
X153033Y321573D01*
X153104Y321565D01*
X156776Y321565D01*
X156866Y321579D01*
X156957Y321587D01*
X156986Y321599D01*
X157018Y321604D01*
X157099Y321647D01*
X157183Y321683D01*
X157215Y321709D01*
X157236Y321720D01*
X157237Y321721D01*
X161156Y321721D01*
X161209Y321675D01*
X161240Y321663D01*
X161266Y321644D01*
X161353Y321617D01*
X161438Y321583D01*
X161479Y321579D01*
X161501Y321572D01*
X161533Y321573D01*
X161604Y321565D01*
X165276Y321565D01*
X165366Y321579D01*
X165457Y321587D01*
X165486Y321599D01*
X165518Y321604D01*
X165599Y321647D01*
X165683Y321683D01*
X165715Y321709D01*
X165736Y321720D01*
X165737Y321721D01*
X169656Y321721D01*
X169709Y321675D01*
X169740Y321663D01*
X169766Y321644D01*
X169853Y321617D01*
X169938Y321583D01*
X169979Y321579D01*
X170001Y321572D01*
X170033Y321573D01*
X170104Y321565D01*
X173776Y321565D01*
X173866Y321579D01*
X173957Y321587D01*
X173986Y321599D01*
X174018Y321604D01*
X174099Y321647D01*
X174183Y321683D01*
X174215Y321709D01*
X174236Y321720D01*
X174237Y321721D01*
X178156Y321721D01*
X178209Y321675D01*
X178240Y321663D01*
X178266Y321644D01*
X178353Y321617D01*
X178438Y321583D01*
X178479Y321579D01*
X178501Y321572D01*
X178533Y321573D01*
X178604Y321565D01*
X180120Y321565D01*
X180211Y321579D01*
X180301Y321587D01*
X180331Y321599D01*
X180363Y321604D01*
X180444Y321647D01*
X180528Y321683D01*
X180560Y321709D01*
X180581Y321720D01*
X180603Y321743D01*
X180659Y321788D01*
X180728Y321857D01*
X181746Y322537D01*
X182877Y323006D01*
X183616Y323153D01*
X183616Y319079D01*
X181940Y319079D01*
X181893Y319043D01*
X181898Y319036D01*
X181891Y319030D01*
X181891Y301530D01*
X181927Y301483D01*
X181934Y301488D01*
X181940Y301481D01*
X183616Y301481D01*
X183616Y297407D01*
X182877Y297554D01*
G37*
%LPD*%
%LPC*%
G36*
X42417Y326643D02*
X42417Y326643D01*
X42417Y349222D01*
X44941Y348937D01*
X46092Y348675D01*
X47582Y348335D01*
X50139Y347440D01*
X52580Y346264D01*
X54874Y344823D01*
X56992Y343134D01*
X58908Y341218D01*
X60597Y339100D01*
X62038Y336806D01*
X63214Y334365D01*
X64109Y331808D01*
X64711Y329167D01*
X64996Y326643D01*
X42417Y326643D01*
G37*
%LPD*%
%LPC*%
G36*
X396493Y326643D02*
X396493Y326643D01*
X396493Y349222D01*
X399017Y348937D01*
X400168Y348675D01*
X401658Y348335D01*
X404215Y347440D01*
X406656Y346264D01*
X408950Y344823D01*
X411068Y343134D01*
X412984Y341218D01*
X414673Y339100D01*
X416114Y336806D01*
X417290Y334365D01*
X418185Y331808D01*
X418787Y329167D01*
X419072Y326643D01*
X396493Y326643D01*
G37*
%LPD*%
%LPC*%
G36*
X396493Y42671D02*
X396493Y42671D01*
X396493Y65250D01*
X399017Y64965D01*
X400055Y64728D01*
X401658Y64363D01*
X404215Y63468D01*
X406656Y62292D01*
X408950Y60851D01*
X411068Y59162D01*
X412984Y57246D01*
X414673Y55128D01*
X416114Y52834D01*
X417290Y50393D01*
X418185Y47836D01*
X418787Y45195D01*
X419072Y42671D01*
X396493Y42671D01*
G37*
%LPD*%
%LPC*%
G36*
X16792Y326643D02*
X16792Y326643D01*
X17077Y329167D01*
X17679Y331808D01*
X18574Y334365D01*
X19750Y336806D01*
X21191Y339100D01*
X22880Y341218D01*
X24796Y343134D01*
X26914Y344823D01*
X29208Y346264D01*
X31649Y347440D01*
X34206Y348335D01*
X36847Y348937D01*
X39371Y349222D01*
X39371Y326643D01*
X16792Y326643D01*
G37*
%LPD*%
%LPC*%
G36*
X370868Y326643D02*
X370868Y326643D01*
X371153Y329167D01*
X371755Y331808D01*
X372650Y334365D01*
X373826Y336806D01*
X375267Y339100D01*
X376956Y341218D01*
X378872Y343134D01*
X380990Y344823D01*
X383284Y346264D01*
X385725Y347440D01*
X388282Y348335D01*
X390923Y348937D01*
X393447Y349222D01*
X393447Y326643D01*
X370868Y326643D01*
G37*
%LPD*%
%LPC*%
G36*
X370868Y42671D02*
X370868Y42671D01*
X371153Y45195D01*
X371755Y47836D01*
X372650Y50393D01*
X373826Y52834D01*
X375267Y55128D01*
X376956Y57246D01*
X378872Y59162D01*
X380990Y60851D01*
X383284Y62292D01*
X385725Y63468D01*
X388282Y64363D01*
X390923Y64965D01*
X393447Y65250D01*
X393447Y42671D01*
X370868Y42671D01*
G37*
%LPD*%
%LPC*%
G36*
X396493Y323597D02*
X396493Y323597D01*
X419072Y323597D01*
X418787Y321073D01*
X418185Y318432D01*
X417290Y315875D01*
X416114Y313434D01*
X414673Y311140D01*
X412984Y309022D01*
X411068Y307106D01*
X408950Y305417D01*
X406656Y303976D01*
X404215Y302800D01*
X401658Y301905D01*
X399017Y301303D01*
X396493Y301018D01*
X396493Y323597D01*
G37*
%LPD*%
%LPC*%
G36*
X396493Y39625D02*
X396493Y39625D01*
X419072Y39625D01*
X418787Y37101D01*
X418185Y34460D01*
X417290Y31903D01*
X416114Y29462D01*
X414673Y27168D01*
X412984Y25050D01*
X411068Y23134D01*
X408950Y21445D01*
X406656Y20004D01*
X404215Y18828D01*
X401658Y17933D01*
X399017Y17331D01*
X396493Y17046D01*
X396493Y39625D01*
G37*
%LPD*%
%LPC*%
G36*
X42417Y323597D02*
X42417Y323597D01*
X64996Y323597D01*
X64711Y321073D01*
X64109Y318432D01*
X63214Y315875D01*
X62038Y313434D01*
X60597Y311140D01*
X58908Y309022D01*
X56992Y307106D01*
X54874Y305417D01*
X52580Y303976D01*
X50139Y302800D01*
X47582Y301905D01*
X44941Y301303D01*
X42417Y301018D01*
X42417Y323597D01*
G37*
%LPD*%
%LPC*%
G36*
X36847Y301303D02*
X36847Y301303D01*
X36244Y301440D01*
X34206Y301905D01*
X31649Y302800D01*
X29208Y303976D01*
X26914Y305417D01*
X24796Y307106D01*
X22880Y309022D01*
X21191Y311140D01*
X19750Y313434D01*
X18574Y315875D01*
X17679Y318432D01*
X17077Y321073D01*
X16792Y323597D01*
X39371Y323597D01*
X39371Y301018D01*
X36847Y301303D01*
G37*
%LPD*%
%LPC*%
G36*
X390923Y301303D02*
X390923Y301303D01*
X390320Y301440D01*
X388282Y301905D01*
X385725Y302800D01*
X383284Y303976D01*
X380990Y305417D01*
X378872Y307106D01*
X376956Y309022D01*
X375267Y311140D01*
X373826Y313434D01*
X372650Y315875D01*
X371755Y318432D01*
X371153Y321073D01*
X370868Y323597D01*
X393447Y323597D01*
X393447Y301018D01*
X390923Y301303D01*
G37*
%LPD*%
%LPC*%
G36*
X390923Y17331D02*
X390923Y17331D01*
X390207Y17494D01*
X388282Y17933D01*
X385725Y18828D01*
X383284Y20004D01*
X380990Y21445D01*
X378872Y23134D01*
X376956Y25050D01*
X375267Y27168D01*
X373826Y29462D01*
X372650Y31903D01*
X371755Y34460D01*
X371153Y37101D01*
X370868Y39625D01*
X393447Y39625D01*
X393447Y17046D01*
X390923Y17331D01*
G37*
%LPD*%
%LPC*%
G36*
X196244Y290210D02*
X196244Y290210D01*
X195554Y290374D01*
X194517Y290821D01*
X194035Y291029D01*
X193004Y291707D01*
X192654Y291938D01*
X191451Y293073D01*
X190463Y294400D01*
X189721Y295878D01*
X189247Y297463D01*
X189214Y297746D01*
X189193Y297819D01*
X189181Y297895D01*
X189170Y297917D01*
X189167Y297932D01*
X189156Y297951D01*
X189147Y297982D01*
X189103Y298045D01*
X189068Y298113D01*
X189046Y298135D01*
X189040Y298143D01*
X189029Y298153D01*
X189007Y298185D01*
X188946Y298231D01*
X188891Y298284D01*
X188858Y298300D01*
X188853Y298303D01*
X188845Y298307D01*
X188810Y298333D01*
X188738Y298357D01*
X188669Y298389D01*
X188628Y298394D01*
X188625Y298395D01*
X188618Y298396D01*
X188577Y298410D01*
X188501Y298409D01*
X188425Y298418D01*
X188378Y298409D01*
X188331Y298408D01*
X188259Y298384D01*
X188232Y298378D01*
X188207Y298374D01*
X188204Y298372D01*
X188184Y298368D01*
X188127Y298338D01*
X188098Y298328D01*
X188077Y298313D01*
X188035Y298291D01*
X187634Y298023D01*
X186503Y297554D01*
X185764Y297407D01*
X185764Y301481D01*
X187440Y301481D01*
X187487Y301517D01*
X187482Y301524D01*
X187489Y301530D01*
X187489Y319030D01*
X187453Y319077D01*
X187446Y319072D01*
X187440Y319079D01*
X185764Y319079D01*
X185764Y323153D01*
X186503Y323006D01*
X187634Y322537D01*
X188652Y321857D01*
X188844Y321665D01*
X188859Y321654D01*
X188870Y321640D01*
X188959Y321583D01*
X189044Y321521D01*
X189061Y321516D01*
X189076Y321506D01*
X189179Y321480D01*
X189279Y321449D01*
X189297Y321450D01*
X189315Y321445D01*
X189420Y321453D01*
X189525Y321455D01*
X189542Y321462D01*
X189560Y321463D01*
X189657Y321504D01*
X189756Y321540D01*
X189770Y321551D01*
X189787Y321558D01*
X189866Y321628D01*
X189948Y321694D01*
X189958Y321709D01*
X189971Y321721D01*
X190063Y321862D01*
X190463Y322660D01*
X190810Y323126D01*
X191451Y323987D01*
X192654Y325122D01*
X194035Y326031D01*
X195554Y326686D01*
X196641Y326944D01*
X196641Y324310D01*
X195532Y323902D01*
X195528Y323896D01*
X195523Y323898D01*
X194376Y323195D01*
X194373Y323189D01*
X194368Y323190D01*
X193380Y322277D01*
X193379Y322270D01*
X193374Y322270D01*
X192582Y321182D01*
X192583Y321175D01*
X192578Y321174D01*
X192014Y319953D01*
X192015Y319945D01*
X192010Y319943D01*
X191696Y318636D01*
X191699Y318629D01*
X191694Y318626D01*
X191641Y317282D01*
X191642Y317281D01*
X191641Y317280D01*
X191641Y299780D01*
X191642Y299779D01*
X191641Y299778D01*
X191694Y298434D01*
X191699Y298428D01*
X191696Y298424D01*
X192010Y297117D01*
X192016Y297112D01*
X192014Y297108D01*
X192578Y295886D01*
X192584Y295883D01*
X192582Y295878D01*
X193374Y294790D01*
X193381Y294788D01*
X193380Y294783D01*
X194368Y293870D01*
X194376Y293870D01*
X194376Y293865D01*
X195523Y293163D01*
X195531Y293163D01*
X195532Y293158D01*
X196641Y292750D01*
X196641Y290116D01*
X196244Y290210D01*
G37*
%LPD*%
%LPC*%
G36*
X113239Y292722D02*
X113239Y292722D01*
X114411Y293143D01*
X114414Y293149D01*
X114419Y293147D01*
X115580Y293845D01*
X115583Y293852D01*
X115588Y293851D01*
X116590Y294762D01*
X116591Y294769D01*
X116596Y294769D01*
X117401Y295858D01*
X117401Y295865D01*
X117403Y295866D01*
X117406Y295867D01*
X117983Y297092D01*
X117983Y297095D01*
X117985Y297097D01*
X117983Y297099D01*
X117987Y297101D01*
X118313Y298415D01*
X118311Y298422D01*
X118315Y298425D01*
X118379Y299778D01*
X118378Y299779D01*
X118379Y299780D01*
X118379Y317280D01*
X118378Y317281D01*
X118379Y317282D01*
X118315Y318635D01*
X118310Y318641D01*
X118313Y318645D01*
X117987Y319959D01*
X117981Y319964D01*
X117983Y319968D01*
X117406Y321193D01*
X117400Y321197D01*
X117401Y321202D01*
X116596Y322291D01*
X116589Y322293D01*
X116590Y322298D01*
X115588Y323209D01*
X115580Y323210D01*
X115580Y323215D01*
X114419Y323913D01*
X114412Y323912D01*
X114411Y323917D01*
X113239Y324338D01*
X113239Y326961D01*
X114362Y326704D01*
X115893Y326057D01*
X116995Y325344D01*
X117288Y325154D01*
X118506Y324023D01*
X119508Y322697D01*
X119898Y321935D01*
X119907Y321922D01*
X119913Y321908D01*
X119980Y321824D01*
X120044Y321737D01*
X120057Y321728D01*
X120066Y321716D01*
X120157Y321658D01*
X120246Y321596D01*
X120260Y321591D01*
X120273Y321583D01*
X120378Y321557D01*
X120482Y321526D01*
X120497Y321527D01*
X120512Y321523D01*
X120620Y321531D01*
X120727Y321535D01*
X120742Y321541D01*
X120757Y321542D01*
X120856Y321584D01*
X120957Y321623D01*
X120969Y321632D01*
X120983Y321638D01*
X121114Y321743D01*
X121228Y321857D01*
X122246Y322537D01*
X123377Y323006D01*
X124116Y323153D01*
X124116Y319079D01*
X122440Y319079D01*
X122393Y319043D01*
X122398Y319036D01*
X122391Y319030D01*
X122391Y301530D01*
X122427Y301483D01*
X122434Y301488D01*
X122440Y301481D01*
X124116Y301481D01*
X124116Y297407D01*
X123377Y297554D01*
X122246Y298023D01*
X121963Y298212D01*
X121896Y298242D01*
X121834Y298281D01*
X121785Y298293D01*
X121739Y298314D01*
X121666Y298321D01*
X121594Y298338D01*
X121544Y298334D01*
X121494Y298339D01*
X121422Y298323D01*
X121349Y298316D01*
X121303Y298296D01*
X121254Y298285D01*
X121191Y298247D01*
X121124Y298217D01*
X121087Y298183D01*
X121044Y298157D01*
X120997Y298101D01*
X120943Y298051D01*
X120918Y298007D01*
X120886Y297969D01*
X120859Y297900D01*
X120823Y297836D01*
X120807Y297769D01*
X120796Y297740D01*
X120794Y297715D01*
X120784Y297673D01*
X120754Y297432D01*
X120333Y296061D01*
X120332Y296061D01*
X120265Y295843D01*
X119576Y294496D01*
X119576Y294495D01*
X119508Y294363D01*
X118570Y293122D01*
X118506Y293037D01*
X117288Y291906D01*
X115893Y291003D01*
X114362Y290356D01*
X113239Y290099D01*
X113239Y292722D01*
G37*
%LPD*%
%LPC*%
G36*
X206292Y286031D02*
X206292Y286031D01*
X203481Y288842D01*
X203481Y290398D01*
X203463Y290511D01*
X203447Y290625D01*
X203443Y290633D01*
X203442Y290641D01*
X203388Y290742D01*
X203337Y290845D01*
X203331Y290851D01*
X203326Y290859D01*
X203244Y290937D01*
X203162Y291018D01*
X203154Y291022D01*
X203148Y291028D01*
X203044Y291076D01*
X202942Y291127D01*
X202933Y291128D01*
X202925Y291132D01*
X202812Y291144D01*
X202698Y291159D01*
X202689Y291158D01*
X202681Y291159D01*
X202569Y291134D01*
X202456Y291113D01*
X202447Y291108D01*
X202440Y291106D01*
X202420Y291095D01*
X202306Y291038D01*
X202253Y291003D01*
X200722Y290356D01*
X199639Y290108D01*
X199639Y292736D01*
X200771Y293143D01*
X200774Y293149D01*
X200779Y293147D01*
X201940Y293845D01*
X201943Y293852D01*
X201948Y293851D01*
X202950Y294762D01*
X202951Y294769D01*
X202956Y294769D01*
X203761Y295858D01*
X203761Y295865D01*
X203763Y295866D01*
X203766Y295867D01*
X204343Y297092D01*
X204343Y297095D01*
X204345Y297097D01*
X204343Y297099D01*
X204347Y297101D01*
X204673Y298415D01*
X204671Y298422D01*
X204675Y298425D01*
X204739Y299778D01*
X204738Y299779D01*
X204739Y299780D01*
X204739Y307031D01*
X207281Y307031D01*
X207281Y299865D01*
X207283Y299850D01*
X207282Y299826D01*
X207320Y299081D01*
X207114Y297432D01*
X206863Y296614D01*
X206861Y296604D01*
X206857Y296595D01*
X206845Y296483D01*
X206829Y296370D01*
X206831Y296360D01*
X206830Y296351D01*
X206854Y296240D01*
X206875Y296128D01*
X206880Y296120D01*
X206882Y296110D01*
X206940Y296013D01*
X206996Y295914D01*
X207003Y295908D01*
X207008Y295899D01*
X207095Y295825D01*
X207179Y295750D01*
X207188Y295746D01*
X207195Y295739D01*
X207301Y295697D01*
X207404Y295652D01*
X207414Y295651D01*
X207423Y295647D01*
X207590Y295629D01*
X210268Y295629D01*
X213079Y292818D01*
X213079Y288842D01*
X210268Y286031D01*
X206292Y286031D01*
G37*
%LPD*%
G36*
X178987Y301517D02*
X178987Y301517D01*
X178982Y301524D01*
X178989Y301530D01*
X178989Y319030D01*
X178953Y319077D01*
X178946Y319072D01*
X178940Y319079D01*
X173440Y319079D01*
X173393Y319043D01*
X173398Y319036D01*
X173391Y319030D01*
X173391Y301530D01*
X173427Y301483D01*
X173434Y301488D01*
X173440Y301481D01*
X178940Y301481D01*
X178987Y301517D01*
G37*
G36*
X136487Y301517D02*
X136487Y301517D01*
X136482Y301524D01*
X136489Y301530D01*
X136489Y319030D01*
X136453Y319077D01*
X136446Y319072D01*
X136440Y319079D01*
X130940Y319079D01*
X130893Y319043D01*
X130898Y319036D01*
X130891Y319030D01*
X130891Y301530D01*
X130927Y301483D01*
X130934Y301488D01*
X130940Y301481D01*
X136440Y301481D01*
X136487Y301517D01*
G37*
%LPC*%
G36*
X23412Y185701D02*
X23412Y185701D01*
X20601Y188512D01*
X20601Y192488D01*
X23412Y195299D01*
X27388Y195299D01*
X30199Y192488D01*
X30199Y188512D01*
X27388Y185701D01*
X23412Y185701D01*
G37*
%LPD*%
%LPC*%
G36*
X201212Y185701D02*
X201212Y185701D01*
X198401Y188512D01*
X198401Y192488D01*
X201212Y195299D01*
X205188Y195299D01*
X207999Y192488D01*
X207999Y188512D01*
X205188Y185701D01*
X201212Y185701D01*
G37*
%LPD*%
%LPC*%
G36*
X408222Y166651D02*
X408222Y166651D01*
X405411Y169462D01*
X405411Y173438D01*
X408222Y176249D01*
X412198Y176249D01*
X415009Y173438D01*
X415009Y169462D01*
X412198Y166651D01*
X408222Y166651D01*
G37*
%LPD*%
%LPC*%
G36*
X201212Y164111D02*
X201212Y164111D01*
X198401Y166922D01*
X198401Y170898D01*
X201212Y173709D01*
X205188Y173709D01*
X207999Y170898D01*
X207999Y166922D01*
X205188Y164111D01*
X201212Y164111D01*
G37*
%LPD*%
%LPC*%
G36*
X152952Y160455D02*
X152952Y160455D01*
X150141Y163266D01*
X150141Y167242D01*
X152952Y170053D01*
X156928Y170053D01*
X159739Y167242D01*
X159739Y163266D01*
X156928Y160455D01*
X152952Y160455D01*
G37*
%LPD*%
%LPC*%
G36*
X198672Y138711D02*
X198672Y138711D01*
X195861Y141522D01*
X195861Y145498D01*
X198672Y148309D01*
X202648Y148309D01*
X205459Y145498D01*
X205459Y141522D01*
X202648Y138711D01*
X198672Y138711D01*
G37*
%LPD*%
%LPC*%
G36*
X353612Y134901D02*
X353612Y134901D01*
X350801Y137712D01*
X350801Y141688D01*
X353612Y144499D01*
X357588Y144499D01*
X360399Y141688D01*
X360399Y137712D01*
X357588Y134901D01*
X353612Y134901D01*
G37*
%LPD*%
%LPC*%
G36*
X202482Y126011D02*
X202482Y126011D01*
X199671Y128822D01*
X199671Y132798D01*
X202482Y135609D01*
X206458Y135609D01*
X209269Y132798D01*
X209269Y128822D01*
X206458Y126011D01*
X202482Y126011D01*
G37*
%LPD*%
%LPC*%
G36*
X252012Y122201D02*
X252012Y122201D01*
X249201Y125012D01*
X249201Y128988D01*
X252012Y131799D01*
X255988Y131799D01*
X258799Y128988D01*
X258799Y125012D01*
X255988Y122201D01*
X252012Y122201D01*
G37*
%LPD*%
%LPC*%
G36*
X422192Y275871D02*
X422192Y275871D01*
X419381Y278682D01*
X419381Y282658D01*
X422192Y285469D01*
X426168Y285469D01*
X428979Y282658D01*
X428979Y278682D01*
X426168Y275871D01*
X422192Y275871D01*
G37*
%LPD*%
%LPC*%
G36*
X338372Y268251D02*
X338372Y268251D01*
X335561Y271062D01*
X335561Y275038D01*
X338372Y277849D01*
X342348Y277849D01*
X345159Y275038D01*
X345159Y271062D01*
X342348Y268251D01*
X338372Y268251D01*
G37*
%LPD*%
%LPC*%
G36*
X154222Y250471D02*
X154222Y250471D01*
X151411Y253282D01*
X151411Y257258D01*
X154222Y260069D01*
X158198Y260069D01*
X161009Y257258D01*
X161009Y253282D01*
X158198Y250471D01*
X154222Y250471D01*
G37*
%LPD*%
%LPC*%
G36*
X353612Y110771D02*
X353612Y110771D01*
X350801Y113582D01*
X350801Y117558D01*
X353612Y120369D01*
X357588Y120369D01*
X360399Y117558D01*
X360399Y113582D01*
X357588Y110771D01*
X353612Y110771D01*
G37*
%LPD*%
%LPC*%
G36*
X18332Y203987D02*
X18332Y203987D01*
X15521Y206798D01*
X15521Y210774D01*
X18332Y213585D01*
X22308Y213585D01*
X25119Y210774D01*
X25119Y206798D01*
X22308Y203987D01*
X18332Y203987D01*
G37*
%LPD*%
%LPC*%
G36*
X252012Y96801D02*
X252012Y96801D01*
X249201Y99612D01*
X249201Y103588D01*
X252012Y106399D01*
X255988Y106399D01*
X258799Y103588D01*
X258799Y99612D01*
X255988Y96801D01*
X252012Y96801D01*
G37*
%LPD*%
%LPC*%
G36*
X31032Y52351D02*
X31032Y52351D01*
X28221Y55162D01*
X28221Y59138D01*
X31032Y61949D01*
X35008Y61949D01*
X37819Y59138D01*
X37819Y55162D01*
X35008Y52351D01*
X31032Y52351D01*
G37*
%LPD*%
%LPC*%
G36*
X197402Y51081D02*
X197402Y51081D01*
X194591Y53892D01*
X194591Y57868D01*
X197402Y60679D01*
X201378Y60679D01*
X204189Y57868D01*
X204189Y53892D01*
X201378Y51081D01*
X197402Y51081D01*
G37*
%LPD*%
%LPC*%
G36*
X328212Y33301D02*
X328212Y33301D01*
X325401Y36112D01*
X325401Y40088D01*
X328212Y42899D01*
X332188Y42899D01*
X334999Y40088D01*
X334999Y36112D01*
X332188Y33301D01*
X328212Y33301D01*
G37*
%LPD*%
%LPC*%
G36*
X226612Y96801D02*
X226612Y96801D01*
X223801Y99612D01*
X223801Y103588D01*
X226612Y106399D01*
X230588Y106399D01*
X233399Y103588D01*
X233399Y99612D01*
X230588Y96801D01*
X226612Y96801D01*
G37*
%LPD*%
%LPC*%
G36*
X126282Y231421D02*
X126282Y231421D01*
X123471Y234232D01*
X123471Y238208D01*
X126282Y241019D01*
X130258Y241019D01*
X133069Y238208D01*
X133069Y234232D01*
X130258Y231421D01*
X126282Y231421D01*
G37*
%LPD*%
%LPC*%
G36*
X215182Y230151D02*
X215182Y230151D01*
X212371Y232962D01*
X212371Y236938D01*
X215182Y239749D01*
X219158Y239749D01*
X221969Y236938D01*
X221969Y232962D01*
X219158Y230151D01*
X215182Y230151D01*
G37*
%LPD*%
%LPC*%
G36*
X163112Y230151D02*
X163112Y230151D01*
X160301Y232962D01*
X160301Y236938D01*
X163112Y239749D01*
X167088Y239749D01*
X169899Y236938D01*
X169899Y232962D01*
X167088Y230151D01*
X163112Y230151D01*
G37*
%LPD*%
%LPC*%
G36*
X122472Y211101D02*
X122472Y211101D01*
X119661Y213912D01*
X119661Y217888D01*
X122472Y220699D01*
X126448Y220699D01*
X129259Y217888D01*
X129259Y213912D01*
X126448Y211101D01*
X122472Y211101D01*
G37*
%LPD*%
%LPC*%
G36*
X175812Y185701D02*
X175812Y185701D01*
X173001Y188512D01*
X173001Y192488D01*
X175812Y195299D01*
X179788Y195299D01*
X182599Y192488D01*
X182599Y188512D01*
X179788Y185701D01*
X175812Y185701D01*
G37*
%LPD*%
%LPC*%
G36*
X10712Y185701D02*
X10712Y185701D01*
X7901Y188512D01*
X7901Y192488D01*
X10712Y195299D01*
X14688Y195299D01*
X17499Y192488D01*
X17499Y188512D01*
X14688Y185701D01*
X10712Y185701D01*
G37*
%LPD*%
%LPC*%
G36*
X204739Y310029D02*
X204739Y310029D01*
X204739Y317280D01*
X204738Y317281D01*
X204739Y317282D01*
X204675Y318635D01*
X204670Y318641D01*
X204673Y318645D01*
X204347Y319959D01*
X204341Y319964D01*
X204343Y319968D01*
X203766Y321193D01*
X203760Y321197D01*
X203761Y321202D01*
X202956Y322291D01*
X202949Y322293D01*
X202950Y322298D01*
X201948Y323209D01*
X201940Y323210D01*
X201940Y323215D01*
X200779Y323913D01*
X200772Y323912D01*
X200771Y323917D01*
X199639Y324324D01*
X199639Y326952D01*
X200722Y326704D01*
X202253Y326057D01*
X203328Y325362D01*
X203648Y325154D01*
X204866Y324023D01*
X205868Y322697D01*
X206626Y321217D01*
X207114Y319628D01*
X207320Y317979D01*
X207282Y317234D01*
X207283Y317219D01*
X207281Y317195D01*
X207281Y310029D01*
X204739Y310029D01*
G37*
%LPD*%
%LPC*%
G36*
X109811Y290227D02*
X109811Y290227D01*
X109194Y290374D01*
X108096Y290847D01*
X107675Y291029D01*
X106595Y291740D01*
X106294Y291938D01*
X105091Y293073D01*
X104103Y294400D01*
X103361Y295878D01*
X102887Y297463D01*
X102695Y299105D01*
X102738Y299834D01*
X102736Y299851D01*
X102739Y299878D01*
X102739Y307031D01*
X105281Y307031D01*
X105281Y299780D01*
X105282Y299779D01*
X105281Y299778D01*
X105334Y298434D01*
X105339Y298428D01*
X105336Y298424D01*
X105650Y297117D01*
X105656Y297112D01*
X105654Y297108D01*
X106218Y295886D01*
X106224Y295883D01*
X106222Y295878D01*
X107014Y294790D01*
X107021Y294788D01*
X107020Y294783D01*
X108008Y293870D01*
X108016Y293870D01*
X108016Y293865D01*
X109163Y293163D01*
X109171Y293163D01*
X109172Y293158D01*
X110241Y292765D01*
X110241Y290125D01*
X109811Y290227D01*
G37*
%LPD*%
%LPC*%
G36*
X102739Y310029D02*
X102739Y310029D01*
X102739Y317182D01*
X102737Y317199D01*
X102738Y317226D01*
X102695Y317955D01*
X102887Y319598D01*
X103115Y320358D01*
X103115Y320359D01*
X103361Y321182D01*
X103790Y322036D01*
X104103Y322660D01*
X104735Y323509D01*
X105091Y323987D01*
X106294Y325122D01*
X107675Y326031D01*
X109194Y326686D01*
X110241Y326935D01*
X110241Y324295D01*
X109172Y323902D01*
X109168Y323896D01*
X109163Y323898D01*
X108016Y323195D01*
X108013Y323189D01*
X108008Y323190D01*
X107020Y322277D01*
X107019Y322270D01*
X107014Y322270D01*
X106222Y321182D01*
X106223Y321175D01*
X106218Y321174D01*
X105654Y319953D01*
X105655Y319945D01*
X105650Y319943D01*
X105336Y318636D01*
X105339Y318629D01*
X105334Y318626D01*
X105281Y317282D01*
X105282Y317281D01*
X105281Y317280D01*
X105281Y310029D01*
X102739Y310029D01*
G37*
%LPD*%
%LPC*%
G36*
X72119Y234679D02*
X72119Y234679D01*
X72119Y241571D01*
X79011Y241571D01*
X79011Y234679D01*
X72119Y234679D01*
G37*
%LPD*%
%LPC*%
G36*
X72119Y243569D02*
X72119Y243569D01*
X72119Y250461D01*
X79011Y250461D01*
X79011Y243569D01*
X72119Y243569D01*
G37*
%LPD*%
%LPC*%
G36*
X81009Y243569D02*
X81009Y243569D01*
X81009Y250461D01*
X87901Y250461D01*
X87901Y243569D01*
X81009Y243569D01*
G37*
%LPD*%
%LPC*%
G36*
X81009Y234679D02*
X81009Y234679D01*
X81009Y241571D01*
X87901Y241571D01*
X87901Y236585D01*
X87131Y236738D01*
X86628Y236947D01*
X86558Y236963D01*
X86491Y236989D01*
X86439Y236991D01*
X86388Y237003D01*
X86317Y236996D01*
X86245Y236999D01*
X86195Y236985D01*
X86144Y236980D01*
X86078Y236951D01*
X86009Y236931D01*
X85966Y236901D01*
X85919Y236880D01*
X85866Y236831D01*
X85807Y236790D01*
X85776Y236749D01*
X85738Y236713D01*
X85703Y236651D01*
X85660Y236593D01*
X85644Y236544D01*
X85619Y236498D01*
X85606Y236427D01*
X85584Y236359D01*
X85585Y236307D01*
X85575Y236256D01*
X85586Y236185D01*
X85587Y236113D01*
X85607Y236044D01*
X85611Y236013D01*
X85622Y235992D01*
X85633Y235952D01*
X85842Y235449D01*
X85995Y234679D01*
X81009Y234679D01*
G37*
%LPD*%
%LPC*%
G36*
X113239Y337630D02*
X113239Y337630D01*
X114254Y337912D01*
X114258Y337918D01*
X114263Y337916D01*
X115383Y338481D01*
X115386Y338488D01*
X115391Y338486D01*
X116380Y339260D01*
X116382Y339267D01*
X116387Y339266D01*
X117205Y340218D01*
X117206Y340225D01*
X117211Y340225D01*
X117828Y341318D01*
X117827Y341325D01*
X117832Y341327D01*
X118225Y342519D01*
X118222Y342526D01*
X118227Y342528D01*
X118379Y343774D01*
X118377Y343778D01*
X118379Y343780D01*
X118379Y348531D01*
X120921Y348531D01*
X120921Y344181D01*
X120922Y344174D01*
X120921Y344168D01*
X120929Y344104D01*
X120921Y343758D01*
X120922Y343751D01*
X120921Y343740D01*
X120921Y343393D01*
X120911Y343318D01*
X120902Y342933D01*
X120592Y341390D01*
X120019Y339924D01*
X119201Y338581D01*
X118162Y337399D01*
X116933Y336416D01*
X115552Y335662D01*
X114061Y335158D01*
X113239Y335033D01*
X113239Y337630D01*
G37*
%LPD*%
%LPC*%
G36*
X199639Y337641D02*
X199639Y337641D01*
X200614Y337912D01*
X200618Y337918D01*
X200623Y337916D01*
X201743Y338481D01*
X201746Y338488D01*
X201751Y338486D01*
X202740Y339260D01*
X202742Y339267D01*
X202747Y339266D01*
X203565Y340218D01*
X203566Y340225D01*
X203571Y340225D01*
X204188Y341318D01*
X204187Y341325D01*
X204192Y341327D01*
X204585Y342519D01*
X204582Y342526D01*
X204587Y342528D01*
X204739Y343774D01*
X204737Y343778D01*
X204739Y343780D01*
X204739Y348531D01*
X207281Y348531D01*
X207281Y344181D01*
X207282Y344174D01*
X207281Y344168D01*
X207289Y344104D01*
X207281Y343758D01*
X207282Y343751D01*
X207281Y343740D01*
X207281Y343393D01*
X207271Y343318D01*
X207262Y342933D01*
X207006Y341660D01*
X206952Y341390D01*
X206379Y339924D01*
X205561Y338581D01*
X204522Y337399D01*
X203293Y336416D01*
X201912Y335662D01*
X200421Y335158D01*
X199639Y335039D01*
X199639Y337641D01*
G37*
%LPD*%
%LPC*%
G36*
X195568Y335242D02*
X195568Y335242D01*
X193930Y335890D01*
X192450Y336846D01*
X191185Y338071D01*
X190184Y339520D01*
X189484Y341137D01*
X189113Y342859D01*
X189106Y343325D01*
X189104Y343334D01*
X189106Y343344D01*
X189099Y343385D01*
X189099Y343753D01*
X189098Y343758D01*
X189099Y343765D01*
X189093Y344140D01*
X189099Y344194D01*
X189099Y348531D01*
X191641Y348531D01*
X191641Y343780D01*
X191643Y343777D01*
X191641Y343774D01*
X191783Y342538D01*
X191788Y342532D01*
X191785Y342528D01*
X192165Y341343D01*
X192171Y341338D01*
X192169Y341334D01*
X192773Y340245D01*
X192779Y340242D01*
X192778Y340237D01*
X193583Y339287D01*
X193590Y339286D01*
X193590Y339281D01*
X194565Y338506D01*
X194572Y338506D01*
X194573Y338501D01*
X195680Y337931D01*
X195687Y337933D01*
X195689Y337928D01*
X196641Y337655D01*
X196641Y335046D01*
X195568Y335242D01*
G37*
%LPD*%
%LPC*%
G36*
X109208Y335242D02*
X109208Y335242D01*
X107570Y335890D01*
X106090Y336846D01*
X104825Y338071D01*
X103824Y339520D01*
X103124Y341137D01*
X102753Y342859D01*
X102746Y343325D01*
X102744Y343334D01*
X102746Y343344D01*
X102739Y343385D01*
X102739Y343753D01*
X102738Y343758D01*
X102739Y343765D01*
X102733Y344140D01*
X102739Y344194D01*
X102739Y348531D01*
X105281Y348531D01*
X105281Y343780D01*
X105283Y343777D01*
X105281Y343774D01*
X105423Y342538D01*
X105428Y342532D01*
X105425Y342528D01*
X105805Y341343D01*
X105811Y341338D01*
X105809Y341334D01*
X106413Y340245D01*
X106419Y340242D01*
X106418Y340237D01*
X107223Y339287D01*
X107230Y339286D01*
X107230Y339281D01*
X108205Y338506D01*
X108212Y338506D01*
X108213Y338501D01*
X109320Y337931D01*
X109327Y337933D01*
X109329Y337928D01*
X110241Y337667D01*
X110241Y335053D01*
X109208Y335242D01*
G37*
%LPD*%
%LPC*%
G36*
X377506Y146493D02*
X377506Y146493D01*
X377506Y151332D01*
X378349Y151164D01*
X379389Y150733D01*
X380325Y150108D01*
X380652Y149781D01*
X380668Y149769D01*
X380681Y149753D01*
X380768Y149697D01*
X380852Y149637D01*
X380871Y149631D01*
X380888Y149620D01*
X380988Y149595D01*
X381087Y149565D01*
X381107Y149565D01*
X381126Y149560D01*
X381229Y149568D01*
X381333Y149571D01*
X381352Y149578D01*
X381372Y149580D01*
X381466Y149620D01*
X381564Y149656D01*
X381580Y149668D01*
X381598Y149676D01*
X381729Y149781D01*
X382056Y150108D01*
X382992Y150733D01*
X384032Y151164D01*
X384875Y151332D01*
X384875Y146493D01*
X377506Y146493D01*
G37*
%LPD*%
%LPC*%
G36*
X384032Y140174D02*
X384032Y140174D01*
X382992Y140605D01*
X382056Y141230D01*
X381729Y141557D01*
X381713Y141569D01*
X381700Y141585D01*
X381613Y141641D01*
X381529Y141701D01*
X381510Y141707D01*
X381493Y141718D01*
X381393Y141743D01*
X381294Y141773D01*
X381274Y141773D01*
X381255Y141778D01*
X381152Y141770D01*
X381048Y141767D01*
X381029Y141760D01*
X381010Y141758D01*
X380915Y141718D01*
X380817Y141682D01*
X380801Y141670D01*
X380783Y141662D01*
X380652Y141557D01*
X380325Y141230D01*
X379389Y140605D01*
X378349Y140174D01*
X377506Y140006D01*
X377506Y144845D01*
X384875Y144845D01*
X384875Y140006D01*
X384032Y140174D01*
G37*
%LPD*%
%LPC*%
G36*
X81009Y252459D02*
X81009Y252459D01*
X81009Y257445D01*
X81779Y257292D01*
X82883Y256835D01*
X83876Y256171D01*
X83917Y256130D01*
X83933Y256119D01*
X83945Y256103D01*
X84032Y256047D01*
X84116Y255987D01*
X84135Y255981D01*
X84152Y255970D01*
X84253Y255945D01*
X84351Y255914D01*
X84371Y255915D01*
X84391Y255910D01*
X84494Y255918D01*
X84597Y255921D01*
X84616Y255927D01*
X84636Y255929D01*
X84731Y255969D01*
X84828Y256005D01*
X84844Y256017D01*
X84862Y256025D01*
X84993Y256130D01*
X85034Y256171D01*
X86027Y256835D01*
X87131Y257292D01*
X87901Y257445D01*
X87901Y252459D01*
X81009Y252459D01*
G37*
%LPD*%
%LPC*%
G36*
X72119Y252459D02*
X72119Y252459D01*
X72119Y257445D01*
X72889Y257292D01*
X73993Y256835D01*
X74986Y256171D01*
X75027Y256130D01*
X75043Y256119D01*
X75055Y256103D01*
X75142Y256047D01*
X75226Y255987D01*
X75245Y255981D01*
X75262Y255970D01*
X75363Y255945D01*
X75461Y255914D01*
X75481Y255915D01*
X75501Y255910D01*
X75604Y255918D01*
X75707Y255921D01*
X75726Y255927D01*
X75746Y255929D01*
X75841Y255969D01*
X75938Y256005D01*
X75954Y256017D01*
X75972Y256025D01*
X76103Y256130D01*
X76144Y256171D01*
X77137Y256835D01*
X78241Y257292D01*
X79011Y257445D01*
X79011Y252459D01*
X72119Y252459D01*
G37*
%LPD*%
%LPC*%
G36*
X89899Y243569D02*
X89899Y243569D01*
X89899Y250461D01*
X94885Y250461D01*
X94732Y249691D01*
X94275Y248587D01*
X93611Y247594D01*
X93570Y247553D01*
X93558Y247537D01*
X93543Y247525D01*
X93487Y247437D01*
X93427Y247354D01*
X93421Y247334D01*
X93410Y247318D01*
X93385Y247217D01*
X93354Y247118D01*
X93355Y247098D01*
X93350Y247079D01*
X93358Y246976D01*
X93361Y246873D01*
X93367Y246854D01*
X93369Y246834D01*
X93409Y246739D01*
X93445Y246642D01*
X93458Y246626D01*
X93465Y246608D01*
X93570Y246477D01*
X93611Y246436D01*
X94275Y245443D01*
X94732Y244339D01*
X94885Y243569D01*
X89899Y243569D01*
G37*
%LPD*%
%LPC*%
G36*
X65135Y234679D02*
X65135Y234679D01*
X65288Y235449D01*
X65745Y236553D01*
X66409Y237546D01*
X66450Y237587D01*
X66461Y237603D01*
X66477Y237615D01*
X66533Y237702D01*
X66593Y237786D01*
X66599Y237805D01*
X66610Y237822D01*
X66635Y237923D01*
X66666Y238021D01*
X66665Y238041D01*
X66670Y238061D01*
X66662Y238164D01*
X66659Y238267D01*
X66653Y238286D01*
X66651Y238306D01*
X66611Y238401D01*
X66575Y238498D01*
X66563Y238514D01*
X66555Y238532D01*
X66450Y238663D01*
X66409Y238704D01*
X65745Y239697D01*
X65288Y240801D01*
X65135Y241571D01*
X70121Y241571D01*
X70121Y234679D01*
X65135Y234679D01*
G37*
%LPD*%
%LPC*%
G36*
X65135Y243569D02*
X65135Y243569D01*
X65288Y244339D01*
X65745Y245443D01*
X66409Y246436D01*
X66450Y246477D01*
X66462Y246493D01*
X66477Y246505D01*
X66533Y246593D01*
X66593Y246676D01*
X66599Y246696D01*
X66610Y246712D01*
X66635Y246813D01*
X66666Y246912D01*
X66665Y246932D01*
X66670Y246951D01*
X66662Y247054D01*
X66659Y247157D01*
X66653Y247176D01*
X66651Y247196D01*
X66611Y247291D01*
X66575Y247388D01*
X66562Y247404D01*
X66555Y247422D01*
X66450Y247553D01*
X66409Y247594D01*
X65745Y248587D01*
X65288Y249691D01*
X65135Y250461D01*
X70121Y250461D01*
X70121Y243569D01*
X65135Y243569D01*
G37*
%LPD*%
%LPC*%
G36*
X78241Y227848D02*
X78241Y227848D01*
X77137Y228305D01*
X76144Y228969D01*
X76103Y229010D01*
X76087Y229022D01*
X76075Y229037D01*
X75987Y229093D01*
X75904Y229153D01*
X75884Y229159D01*
X75868Y229170D01*
X75767Y229195D01*
X75668Y229226D01*
X75648Y229225D01*
X75629Y229230D01*
X75526Y229222D01*
X75423Y229219D01*
X75404Y229213D01*
X75384Y229211D01*
X75289Y229171D01*
X75192Y229135D01*
X75176Y229122D01*
X75158Y229115D01*
X75027Y229010D01*
X74986Y228969D01*
X73993Y228305D01*
X72889Y227848D01*
X72119Y227695D01*
X72119Y232681D01*
X79011Y232681D01*
X79011Y227695D01*
X78241Y227848D01*
G37*
%LPD*%
%LPC*%
G36*
X89899Y252459D02*
X89899Y252459D01*
X89899Y257445D01*
X90669Y257292D01*
X91773Y256835D01*
X92766Y256171D01*
X93611Y255326D01*
X94275Y254333D01*
X94732Y253229D01*
X94885Y252459D01*
X89899Y252459D01*
G37*
%LPD*%
%LPC*%
G36*
X65135Y252459D02*
X65135Y252459D01*
X65288Y253229D01*
X65745Y254333D01*
X66409Y255326D01*
X67254Y256171D01*
X68247Y256835D01*
X69351Y257292D01*
X70121Y257445D01*
X70121Y252459D01*
X65135Y252459D01*
G37*
%LPD*%
%LPC*%
G36*
X89899Y241571D02*
X89899Y241571D01*
X94885Y241571D01*
X94732Y240801D01*
X94275Y239697D01*
X93611Y238704D01*
X92766Y237859D01*
X91773Y237195D01*
X90669Y236738D01*
X89899Y236585D01*
X89899Y241571D01*
G37*
%LPD*%
%LPC*%
G36*
X81009Y232681D02*
X81009Y232681D01*
X85995Y232681D01*
X85842Y231911D01*
X85385Y230807D01*
X84721Y229814D01*
X83876Y228969D01*
X82883Y228305D01*
X81779Y227848D01*
X81009Y227695D01*
X81009Y232681D01*
G37*
%LPD*%
%LPC*%
G36*
X69351Y227848D02*
X69351Y227848D01*
X68247Y228305D01*
X67254Y228969D01*
X66409Y229814D01*
X65745Y230807D01*
X65288Y231911D01*
X65135Y232681D01*
X70121Y232681D01*
X70121Y227695D01*
X69351Y227848D01*
G37*
%LPD*%
%LPC*%
G36*
X386523Y146493D02*
X386523Y146493D01*
X386523Y151332D01*
X387366Y151164D01*
X388406Y150733D01*
X389342Y150108D01*
X390138Y149312D01*
X390763Y148376D01*
X391194Y147336D01*
X391362Y146493D01*
X386523Y146493D01*
G37*
%LPD*%
%LPC*%
G36*
X386523Y144845D02*
X386523Y144845D01*
X391362Y144845D01*
X391194Y144002D01*
X390763Y142962D01*
X390138Y142026D01*
X389342Y141230D01*
X388406Y140605D01*
X387366Y140174D01*
X386523Y140006D01*
X386523Y144845D01*
G37*
%LPD*%
%LPC*%
G36*
X371019Y146493D02*
X371019Y146493D01*
X371187Y147336D01*
X371618Y148376D01*
X372243Y149312D01*
X373039Y150108D01*
X373975Y150733D01*
X375015Y151164D01*
X375858Y151332D01*
X375858Y146493D01*
X371019Y146493D01*
G37*
%LPD*%
%LPC*%
G36*
X375015Y140174D02*
X375015Y140174D01*
X373975Y140605D01*
X373039Y141230D01*
X372243Y142026D01*
X371618Y142962D01*
X371187Y144002D01*
X371019Y144845D01*
X375858Y144845D01*
X375858Y140006D01*
X375015Y140174D01*
G37*
%LPD*%
%LPC*%
G36*
X394969Y325119D02*
X394969Y325119D01*
X394969Y325121D01*
X394971Y325121D01*
X394971Y325119D01*
X394969Y325119D01*
G37*
%LPD*%
%LPC*%
G36*
X40893Y325119D02*
X40893Y325119D01*
X40893Y325121D01*
X40895Y325121D01*
X40895Y325119D01*
X40893Y325119D01*
G37*
%LPD*%
%LPC*%
G36*
X394969Y41147D02*
X394969Y41147D01*
X394969Y41149D01*
X394971Y41149D01*
X394971Y41147D01*
X394969Y41147D01*
G37*
%LPD*%
D10*
X394970Y41148D03*
X394970Y325120D03*
X40894Y325120D03*
D11*
X71120Y233680D03*
X80010Y233680D03*
X71120Y242570D03*
X80010Y242570D03*
X71120Y251460D03*
X80010Y251460D03*
X88900Y242570D03*
X88900Y251460D03*
D12*
X385699Y145669D03*
X376682Y145669D03*
D13*
X184690Y303530D03*
X176190Y303530D03*
X167690Y303530D03*
X159190Y303530D03*
X150690Y303530D03*
X142190Y303530D03*
X133690Y303530D03*
X125190Y303530D03*
X184690Y317030D03*
X176190Y317030D03*
X167690Y317030D03*
X159190Y317030D03*
X150690Y317030D03*
X142190Y317030D03*
X133690Y317030D03*
X125190Y317030D03*
D14*
X198140Y308530D03*
X111740Y308530D03*
X198140Y350030D03*
X111740Y350030D03*
D15*
X308610Y78740D03*
X292100Y50800D03*
X261620Y69850D03*
X154940Y198120D03*
X27940Y7620D03*
X167640Y7620D03*
X334010Y127000D03*
X300990Y200660D03*
X320040Y184150D03*
X248920Y220980D03*
X190500Y207010D03*
X203200Y227330D03*
X86360Y341630D03*
X35560Y254000D03*
X114300Y236220D03*
X140970Y256540D03*
X388620Y129540D03*
X397510Y109220D03*
X411480Y127000D03*
X382270Y171450D03*
X336550Y167640D03*
X270510Y179070D03*
X342900Y69850D03*
X292100Y26670D03*
X92710Y113030D03*
X128270Y113030D03*
X80010Y100330D03*
X80010Y64770D03*
X92710Y52070D03*
X128270Y52070D03*
X140970Y100330D03*
X140970Y64770D03*
X194310Y279400D03*
X208280Y274320D03*
X72390Y288290D03*
X425450Y91440D03*
X314960Y20320D03*
X311150Y300990D03*
X312420Y350520D03*
X275590Y339090D03*
X261620Y236220D03*
X177800Y190500D03*
X203200Y190500D03*
X355600Y115570D03*
X355600Y139700D03*
X254000Y127000D03*
X228600Y101600D03*
X254000Y101600D03*
X330200Y38100D03*
X7620Y208280D03*
X410210Y171450D03*
X156210Y255270D03*
X20320Y208786D03*
X128270Y236220D03*
X12700Y190500D03*
X124460Y215900D03*
X217170Y234950D03*
X165100Y234950D03*
X199390Y55880D03*
X25400Y190500D03*
X33020Y57150D03*
X200660Y143510D03*
X203200Y168910D03*
X204470Y130810D03*
X154940Y165254D03*
X208280Y290830D03*
X424180Y280670D03*
X340360Y273050D03*
M02*
