G04 EAGLE Gerber RS-274X export*
G75*
%MOMM*%
%FSLAX34Y34*%
%LPD*%
%INSilkscreen Top*%
%IPPOS*%
%AMOC8*
5,1,8,0,0,1.08239X$1,22.5*%
G01*
%ADD10C,0.050800*%
%ADD11C,0.127000*%
%ADD12C,0.101600*%
%ADD13R,0.225000X0.250000*%
%ADD14R,0.250000X0.225000*%
%ADD15C,0.025400*%
%ADD16C,0.076200*%
%ADD17C,0.100000*%
%ADD18C,0.300000*%
%ADD19C,0.152400*%
%ADD20C,0.508000*%
%ADD21R,0.150000X0.300000*%
%ADD22R,0.300000X0.300000*%


D10*
X227584Y112014D02*
X227584Y117602D01*
X229447Y114498D01*
X231309Y117602D01*
X231309Y112014D01*
X233929Y113566D02*
X233929Y116050D01*
X233930Y116050D02*
X233932Y116127D01*
X233938Y116205D01*
X233947Y116281D01*
X233961Y116358D01*
X233978Y116433D01*
X233999Y116507D01*
X234024Y116581D01*
X234052Y116653D01*
X234084Y116723D01*
X234119Y116792D01*
X234158Y116859D01*
X234200Y116924D01*
X234245Y116987D01*
X234293Y117048D01*
X234344Y117106D01*
X234398Y117161D01*
X234455Y117214D01*
X234514Y117263D01*
X234576Y117310D01*
X234640Y117354D01*
X234706Y117394D01*
X234774Y117431D01*
X234844Y117465D01*
X234915Y117495D01*
X234988Y117521D01*
X235062Y117544D01*
X235137Y117563D01*
X235212Y117578D01*
X235289Y117590D01*
X235366Y117598D01*
X235443Y117602D01*
X235521Y117602D01*
X235598Y117598D01*
X235675Y117590D01*
X235752Y117578D01*
X235827Y117563D01*
X235902Y117544D01*
X235976Y117521D01*
X236049Y117495D01*
X236120Y117465D01*
X236190Y117431D01*
X236258Y117394D01*
X236324Y117354D01*
X236388Y117310D01*
X236450Y117263D01*
X236509Y117214D01*
X236566Y117161D01*
X236620Y117106D01*
X236671Y117048D01*
X236719Y116987D01*
X236764Y116924D01*
X236806Y116859D01*
X236845Y116792D01*
X236880Y116723D01*
X236912Y116653D01*
X236940Y116581D01*
X236965Y116507D01*
X236986Y116433D01*
X237003Y116358D01*
X237017Y116281D01*
X237026Y116205D01*
X237032Y116127D01*
X237034Y116050D01*
X237034Y113566D01*
X237032Y113489D01*
X237026Y113411D01*
X237017Y113335D01*
X237003Y113258D01*
X236986Y113183D01*
X236965Y113109D01*
X236940Y113035D01*
X236912Y112963D01*
X236880Y112893D01*
X236845Y112824D01*
X236806Y112757D01*
X236764Y112692D01*
X236719Y112629D01*
X236671Y112568D01*
X236620Y112510D01*
X236566Y112455D01*
X236509Y112402D01*
X236450Y112353D01*
X236388Y112306D01*
X236324Y112262D01*
X236258Y112222D01*
X236190Y112185D01*
X236120Y112151D01*
X236049Y112121D01*
X235976Y112095D01*
X235902Y112072D01*
X235827Y112053D01*
X235752Y112038D01*
X235675Y112026D01*
X235598Y112018D01*
X235521Y112014D01*
X235443Y112014D01*
X235366Y112018D01*
X235289Y112026D01*
X235212Y112038D01*
X235137Y112053D01*
X235062Y112072D01*
X234988Y112095D01*
X234915Y112121D01*
X234844Y112151D01*
X234774Y112185D01*
X234706Y112222D01*
X234640Y112262D01*
X234576Y112306D01*
X234514Y112353D01*
X234455Y112402D01*
X234398Y112455D01*
X234344Y112510D01*
X234293Y112568D01*
X234245Y112629D01*
X234200Y112692D01*
X234158Y112757D01*
X234119Y112824D01*
X234084Y112893D01*
X234052Y112963D01*
X234024Y113035D01*
X233999Y113109D01*
X233978Y113183D01*
X233961Y113258D01*
X233947Y113335D01*
X233938Y113411D01*
X233932Y113489D01*
X233930Y113566D01*
X241096Y112014D02*
X241166Y112016D01*
X241235Y112022D01*
X241304Y112032D01*
X241372Y112045D01*
X241440Y112063D01*
X241506Y112084D01*
X241571Y112109D01*
X241635Y112137D01*
X241697Y112169D01*
X241757Y112204D01*
X241815Y112243D01*
X241870Y112285D01*
X241924Y112330D01*
X241974Y112378D01*
X242022Y112428D01*
X242067Y112482D01*
X242109Y112537D01*
X242148Y112595D01*
X242183Y112655D01*
X242215Y112717D01*
X242243Y112781D01*
X242268Y112846D01*
X242289Y112912D01*
X242307Y112980D01*
X242320Y113048D01*
X242330Y113117D01*
X242336Y113186D01*
X242338Y113256D01*
X241096Y112014D02*
X240997Y112016D01*
X240899Y112021D01*
X240801Y112031D01*
X240703Y112044D01*
X240606Y112060D01*
X240509Y112080D01*
X240414Y112104D01*
X240319Y112132D01*
X240225Y112163D01*
X240133Y112197D01*
X240042Y112235D01*
X239952Y112276D01*
X239864Y112321D01*
X239778Y112369D01*
X239694Y112420D01*
X239612Y112474D01*
X239531Y112532D01*
X239453Y112592D01*
X239378Y112655D01*
X239304Y112721D01*
X239234Y112790D01*
X239388Y116360D02*
X239390Y116430D01*
X239396Y116499D01*
X239406Y116568D01*
X239419Y116636D01*
X239437Y116704D01*
X239458Y116770D01*
X239483Y116835D01*
X239511Y116899D01*
X239543Y116961D01*
X239578Y117021D01*
X239617Y117079D01*
X239659Y117134D01*
X239704Y117188D01*
X239752Y117238D01*
X239802Y117286D01*
X239856Y117331D01*
X239911Y117373D01*
X239969Y117412D01*
X240029Y117447D01*
X240091Y117479D01*
X240155Y117507D01*
X240220Y117532D01*
X240286Y117553D01*
X240354Y117571D01*
X240422Y117584D01*
X240491Y117594D01*
X240560Y117600D01*
X240630Y117602D01*
X240724Y117600D01*
X240817Y117594D01*
X240910Y117585D01*
X241003Y117572D01*
X241095Y117555D01*
X241186Y117535D01*
X241277Y117510D01*
X241366Y117483D01*
X241454Y117451D01*
X241541Y117416D01*
X241627Y117378D01*
X241710Y117336D01*
X241792Y117291D01*
X241873Y117243D01*
X241951Y117191D01*
X242027Y117136D01*
X240009Y115274D02*
X239950Y115310D01*
X239894Y115350D01*
X239840Y115393D01*
X239788Y115438D01*
X239739Y115487D01*
X239693Y115538D01*
X239650Y115591D01*
X239609Y115647D01*
X239572Y115705D01*
X239537Y115765D01*
X239507Y115826D01*
X239479Y115889D01*
X239455Y115954D01*
X239435Y116020D01*
X239418Y116087D01*
X239405Y116154D01*
X239396Y116222D01*
X239390Y116291D01*
X239388Y116360D01*
X241716Y114342D02*
X241775Y114306D01*
X241831Y114266D01*
X241885Y114223D01*
X241937Y114178D01*
X241986Y114129D01*
X242032Y114078D01*
X242075Y114025D01*
X242116Y113969D01*
X242153Y113911D01*
X242188Y113851D01*
X242218Y113790D01*
X242246Y113727D01*
X242270Y113662D01*
X242290Y113596D01*
X242307Y113529D01*
X242320Y113462D01*
X242329Y113394D01*
X242335Y113325D01*
X242337Y113256D01*
X241717Y114342D02*
X240009Y115274D01*
X244991Y117602D02*
X244991Y112014D01*
X244371Y112014D02*
X245612Y112014D01*
X245612Y117602D02*
X244371Y117602D01*
X228854Y92202D02*
X228854Y86614D01*
X230717Y89098D02*
X228854Y92202D01*
X230717Y89098D02*
X232579Y92202D01*
X232579Y86614D01*
X235654Y86614D02*
X235654Y92202D01*
X235034Y86614D02*
X236275Y86614D01*
X236275Y92202D02*
X235034Y92202D01*
X240171Y86614D02*
X240241Y86616D01*
X240310Y86622D01*
X240379Y86632D01*
X240447Y86645D01*
X240515Y86663D01*
X240581Y86684D01*
X240646Y86709D01*
X240710Y86737D01*
X240772Y86769D01*
X240832Y86804D01*
X240890Y86843D01*
X240945Y86885D01*
X240999Y86930D01*
X241049Y86978D01*
X241097Y87028D01*
X241142Y87082D01*
X241184Y87137D01*
X241223Y87195D01*
X241258Y87255D01*
X241290Y87317D01*
X241318Y87381D01*
X241343Y87446D01*
X241364Y87512D01*
X241382Y87580D01*
X241395Y87648D01*
X241405Y87717D01*
X241411Y87786D01*
X241413Y87856D01*
X240171Y86614D02*
X240072Y86616D01*
X239974Y86621D01*
X239876Y86631D01*
X239778Y86644D01*
X239681Y86660D01*
X239584Y86680D01*
X239489Y86704D01*
X239394Y86732D01*
X239300Y86763D01*
X239208Y86797D01*
X239117Y86835D01*
X239027Y86876D01*
X238939Y86921D01*
X238853Y86969D01*
X238769Y87020D01*
X238687Y87074D01*
X238606Y87132D01*
X238528Y87192D01*
X238453Y87255D01*
X238379Y87321D01*
X238309Y87390D01*
X238463Y90960D02*
X238465Y91030D01*
X238471Y91099D01*
X238481Y91168D01*
X238494Y91236D01*
X238512Y91304D01*
X238533Y91370D01*
X238558Y91435D01*
X238586Y91499D01*
X238618Y91561D01*
X238653Y91621D01*
X238692Y91679D01*
X238734Y91734D01*
X238779Y91788D01*
X238827Y91838D01*
X238877Y91886D01*
X238931Y91931D01*
X238986Y91973D01*
X239044Y92012D01*
X239104Y92047D01*
X239166Y92079D01*
X239230Y92107D01*
X239295Y92132D01*
X239361Y92153D01*
X239429Y92171D01*
X239497Y92184D01*
X239566Y92194D01*
X239635Y92200D01*
X239705Y92202D01*
X239799Y92200D01*
X239892Y92194D01*
X239985Y92185D01*
X240078Y92172D01*
X240170Y92155D01*
X240261Y92135D01*
X240352Y92110D01*
X240441Y92083D01*
X240529Y92051D01*
X240616Y92016D01*
X240702Y91978D01*
X240785Y91936D01*
X240867Y91891D01*
X240948Y91843D01*
X241026Y91791D01*
X241102Y91736D01*
X239085Y89874D02*
X239026Y89910D01*
X238970Y89950D01*
X238916Y89993D01*
X238864Y90038D01*
X238815Y90087D01*
X238769Y90138D01*
X238726Y90191D01*
X238685Y90247D01*
X238648Y90305D01*
X238613Y90365D01*
X238583Y90426D01*
X238555Y90489D01*
X238531Y90554D01*
X238511Y90620D01*
X238494Y90687D01*
X238481Y90754D01*
X238472Y90822D01*
X238466Y90891D01*
X238464Y90960D01*
X240792Y88942D02*
X240851Y88906D01*
X240907Y88866D01*
X240961Y88823D01*
X241013Y88778D01*
X241062Y88729D01*
X241108Y88678D01*
X241151Y88625D01*
X241192Y88569D01*
X241229Y88511D01*
X241264Y88451D01*
X241294Y88390D01*
X241322Y88327D01*
X241346Y88262D01*
X241366Y88196D01*
X241383Y88129D01*
X241396Y88062D01*
X241405Y87994D01*
X241411Y87925D01*
X241413Y87856D01*
X240792Y88942D02*
X239085Y89874D01*
X243612Y90650D02*
X243612Y88166D01*
X243612Y90650D02*
X243614Y90727D01*
X243620Y90805D01*
X243629Y90881D01*
X243643Y90958D01*
X243660Y91033D01*
X243681Y91107D01*
X243706Y91181D01*
X243734Y91253D01*
X243766Y91323D01*
X243801Y91392D01*
X243840Y91459D01*
X243882Y91524D01*
X243927Y91587D01*
X243975Y91648D01*
X244026Y91706D01*
X244080Y91761D01*
X244137Y91814D01*
X244196Y91863D01*
X244258Y91910D01*
X244322Y91954D01*
X244388Y91994D01*
X244456Y92031D01*
X244526Y92065D01*
X244597Y92095D01*
X244670Y92121D01*
X244744Y92144D01*
X244819Y92163D01*
X244894Y92178D01*
X244971Y92190D01*
X245048Y92198D01*
X245125Y92202D01*
X245203Y92202D01*
X245280Y92198D01*
X245357Y92190D01*
X245434Y92178D01*
X245509Y92163D01*
X245584Y92144D01*
X245658Y92121D01*
X245731Y92095D01*
X245802Y92065D01*
X245872Y92031D01*
X245940Y91994D01*
X246006Y91954D01*
X246070Y91910D01*
X246132Y91863D01*
X246191Y91814D01*
X246248Y91761D01*
X246302Y91706D01*
X246353Y91648D01*
X246401Y91587D01*
X246446Y91524D01*
X246488Y91459D01*
X246527Y91392D01*
X246562Y91323D01*
X246594Y91253D01*
X246622Y91181D01*
X246647Y91107D01*
X246668Y91033D01*
X246685Y90958D01*
X246699Y90881D01*
X246708Y90805D01*
X246714Y90727D01*
X246716Y90650D01*
X246716Y88166D01*
X246714Y88089D01*
X246708Y88011D01*
X246699Y87935D01*
X246685Y87858D01*
X246668Y87783D01*
X246647Y87709D01*
X246622Y87635D01*
X246594Y87563D01*
X246562Y87493D01*
X246527Y87424D01*
X246488Y87357D01*
X246446Y87292D01*
X246401Y87229D01*
X246353Y87168D01*
X246302Y87110D01*
X246248Y87055D01*
X246191Y87002D01*
X246132Y86953D01*
X246070Y86906D01*
X246006Y86862D01*
X245940Y86822D01*
X245872Y86785D01*
X245802Y86751D01*
X245731Y86721D01*
X245658Y86695D01*
X245584Y86672D01*
X245509Y86653D01*
X245434Y86638D01*
X245357Y86626D01*
X245280Y86618D01*
X245203Y86614D01*
X245125Y86614D01*
X245048Y86618D01*
X244971Y86626D01*
X244894Y86638D01*
X244819Y86653D01*
X244744Y86672D01*
X244670Y86695D01*
X244597Y86721D01*
X244526Y86751D01*
X244456Y86785D01*
X244388Y86822D01*
X244322Y86862D01*
X244258Y86906D01*
X244196Y86953D01*
X244137Y87002D01*
X244080Y87055D01*
X244026Y87110D01*
X243975Y87168D01*
X243927Y87229D01*
X243882Y87292D01*
X243840Y87357D01*
X243801Y87424D01*
X243766Y87493D01*
X243734Y87563D01*
X243706Y87635D01*
X243681Y87709D01*
X243660Y87783D01*
X243643Y87858D01*
X243629Y87935D01*
X243620Y88011D01*
X243614Y88089D01*
X243612Y88166D01*
X230068Y162814D02*
X228826Y162814D01*
X228756Y162816D01*
X228687Y162822D01*
X228618Y162832D01*
X228550Y162845D01*
X228482Y162863D01*
X228416Y162884D01*
X228351Y162909D01*
X228287Y162937D01*
X228225Y162969D01*
X228165Y163004D01*
X228107Y163043D01*
X228052Y163085D01*
X227998Y163130D01*
X227948Y163178D01*
X227900Y163228D01*
X227855Y163282D01*
X227813Y163337D01*
X227774Y163395D01*
X227739Y163455D01*
X227707Y163517D01*
X227679Y163581D01*
X227654Y163646D01*
X227633Y163712D01*
X227615Y163780D01*
X227602Y163848D01*
X227592Y163917D01*
X227586Y163986D01*
X227584Y164056D01*
X227584Y167160D01*
X227586Y167230D01*
X227592Y167299D01*
X227602Y167368D01*
X227615Y167436D01*
X227633Y167504D01*
X227654Y167570D01*
X227679Y167635D01*
X227707Y167699D01*
X227739Y167761D01*
X227774Y167821D01*
X227813Y167879D01*
X227855Y167934D01*
X227900Y167988D01*
X227948Y168038D01*
X227998Y168086D01*
X228052Y168131D01*
X228107Y168173D01*
X228165Y168212D01*
X228225Y168247D01*
X228287Y168279D01*
X228351Y168307D01*
X228416Y168332D01*
X228482Y168353D01*
X228550Y168371D01*
X228618Y168384D01*
X228687Y168394D01*
X228756Y168400D01*
X228826Y168402D01*
X230068Y168402D01*
X235094Y164056D02*
X235092Y163986D01*
X235086Y163917D01*
X235076Y163848D01*
X235063Y163780D01*
X235045Y163712D01*
X235024Y163646D01*
X234999Y163581D01*
X234971Y163517D01*
X234939Y163455D01*
X234904Y163395D01*
X234865Y163337D01*
X234823Y163282D01*
X234778Y163228D01*
X234730Y163178D01*
X234680Y163130D01*
X234626Y163085D01*
X234571Y163043D01*
X234513Y163004D01*
X234453Y162969D01*
X234391Y162937D01*
X234327Y162909D01*
X234262Y162884D01*
X234196Y162863D01*
X234128Y162845D01*
X234060Y162832D01*
X233991Y162822D01*
X233922Y162816D01*
X233852Y162814D01*
X233753Y162816D01*
X233655Y162821D01*
X233557Y162831D01*
X233459Y162844D01*
X233362Y162860D01*
X233265Y162880D01*
X233170Y162904D01*
X233075Y162932D01*
X232981Y162963D01*
X232889Y162997D01*
X232798Y163035D01*
X232708Y163076D01*
X232620Y163121D01*
X232534Y163169D01*
X232450Y163220D01*
X232368Y163274D01*
X232287Y163332D01*
X232209Y163392D01*
X232134Y163455D01*
X232060Y163521D01*
X231990Y163590D01*
X232144Y167160D02*
X232146Y167230D01*
X232152Y167299D01*
X232162Y167368D01*
X232175Y167436D01*
X232193Y167504D01*
X232214Y167570D01*
X232239Y167635D01*
X232267Y167699D01*
X232299Y167761D01*
X232334Y167821D01*
X232373Y167879D01*
X232415Y167934D01*
X232460Y167988D01*
X232508Y168038D01*
X232558Y168086D01*
X232612Y168131D01*
X232667Y168173D01*
X232725Y168212D01*
X232785Y168247D01*
X232847Y168279D01*
X232911Y168307D01*
X232976Y168332D01*
X233042Y168353D01*
X233110Y168371D01*
X233178Y168384D01*
X233247Y168394D01*
X233316Y168400D01*
X233386Y168402D01*
X233480Y168400D01*
X233573Y168394D01*
X233666Y168385D01*
X233759Y168372D01*
X233851Y168355D01*
X233942Y168335D01*
X234033Y168310D01*
X234122Y168283D01*
X234210Y168251D01*
X234297Y168216D01*
X234383Y168178D01*
X234466Y168136D01*
X234548Y168091D01*
X234629Y168043D01*
X234707Y167991D01*
X234783Y167936D01*
X232766Y166074D02*
X232707Y166110D01*
X232651Y166150D01*
X232597Y166193D01*
X232545Y166238D01*
X232496Y166287D01*
X232450Y166338D01*
X232407Y166391D01*
X232366Y166447D01*
X232329Y166505D01*
X232294Y166565D01*
X232264Y166626D01*
X232236Y166689D01*
X232212Y166754D01*
X232192Y166820D01*
X232175Y166887D01*
X232162Y166954D01*
X232153Y167022D01*
X232147Y167091D01*
X232145Y167160D01*
X234473Y165142D02*
X234532Y165106D01*
X234588Y165066D01*
X234642Y165023D01*
X234694Y164978D01*
X234743Y164929D01*
X234789Y164878D01*
X234832Y164825D01*
X234873Y164769D01*
X234910Y164711D01*
X234945Y164651D01*
X234975Y164590D01*
X235003Y164527D01*
X235027Y164462D01*
X235047Y164396D01*
X235064Y164329D01*
X235077Y164262D01*
X235086Y164194D01*
X235092Y164125D01*
X235094Y164056D01*
X234473Y165142D02*
X232765Y166074D01*
X230689Y138656D02*
X230687Y138586D01*
X230681Y138517D01*
X230671Y138448D01*
X230658Y138380D01*
X230640Y138312D01*
X230619Y138246D01*
X230594Y138181D01*
X230566Y138117D01*
X230534Y138055D01*
X230499Y137995D01*
X230460Y137937D01*
X230418Y137882D01*
X230373Y137828D01*
X230325Y137778D01*
X230275Y137730D01*
X230221Y137685D01*
X230166Y137643D01*
X230108Y137604D01*
X230048Y137569D01*
X229986Y137537D01*
X229922Y137509D01*
X229857Y137484D01*
X229791Y137463D01*
X229723Y137445D01*
X229655Y137432D01*
X229586Y137422D01*
X229517Y137416D01*
X229447Y137414D01*
X229348Y137416D01*
X229250Y137421D01*
X229152Y137431D01*
X229054Y137444D01*
X228957Y137460D01*
X228860Y137480D01*
X228765Y137504D01*
X228670Y137532D01*
X228576Y137563D01*
X228484Y137597D01*
X228393Y137635D01*
X228303Y137676D01*
X228215Y137721D01*
X228129Y137769D01*
X228045Y137820D01*
X227963Y137874D01*
X227882Y137932D01*
X227804Y137992D01*
X227729Y138055D01*
X227655Y138121D01*
X227585Y138190D01*
X227739Y141760D02*
X227741Y141830D01*
X227747Y141899D01*
X227757Y141968D01*
X227770Y142036D01*
X227788Y142104D01*
X227809Y142170D01*
X227834Y142235D01*
X227862Y142299D01*
X227894Y142361D01*
X227929Y142421D01*
X227968Y142479D01*
X228010Y142534D01*
X228055Y142588D01*
X228103Y142638D01*
X228153Y142686D01*
X228207Y142731D01*
X228262Y142773D01*
X228320Y142812D01*
X228380Y142847D01*
X228442Y142879D01*
X228506Y142907D01*
X228571Y142932D01*
X228637Y142953D01*
X228705Y142971D01*
X228773Y142984D01*
X228842Y142994D01*
X228911Y143000D01*
X228981Y143002D01*
X229075Y143000D01*
X229168Y142994D01*
X229261Y142985D01*
X229354Y142972D01*
X229446Y142955D01*
X229537Y142935D01*
X229628Y142910D01*
X229717Y142883D01*
X229805Y142851D01*
X229892Y142816D01*
X229978Y142778D01*
X230061Y142736D01*
X230143Y142691D01*
X230224Y142643D01*
X230302Y142591D01*
X230378Y142536D01*
X228360Y140674D02*
X228301Y140710D01*
X228245Y140750D01*
X228191Y140793D01*
X228139Y140838D01*
X228090Y140887D01*
X228044Y140938D01*
X228001Y140991D01*
X227960Y141047D01*
X227923Y141105D01*
X227888Y141165D01*
X227858Y141226D01*
X227830Y141289D01*
X227806Y141354D01*
X227786Y141420D01*
X227769Y141487D01*
X227756Y141554D01*
X227747Y141622D01*
X227741Y141691D01*
X227739Y141760D01*
X230067Y139742D02*
X230126Y139706D01*
X230182Y139666D01*
X230236Y139623D01*
X230288Y139578D01*
X230337Y139529D01*
X230383Y139478D01*
X230426Y139425D01*
X230467Y139369D01*
X230504Y139311D01*
X230539Y139251D01*
X230569Y139190D01*
X230597Y139127D01*
X230621Y139062D01*
X230641Y138996D01*
X230658Y138929D01*
X230671Y138862D01*
X230680Y138794D01*
X230686Y138725D01*
X230688Y138656D01*
X230068Y139742D02*
X228360Y140674D01*
X234113Y137414D02*
X235355Y137414D01*
X234113Y137414D02*
X234043Y137416D01*
X233974Y137422D01*
X233905Y137432D01*
X233837Y137445D01*
X233769Y137463D01*
X233703Y137484D01*
X233638Y137509D01*
X233574Y137537D01*
X233512Y137569D01*
X233452Y137604D01*
X233394Y137643D01*
X233339Y137685D01*
X233285Y137730D01*
X233235Y137778D01*
X233187Y137828D01*
X233142Y137882D01*
X233100Y137937D01*
X233061Y137995D01*
X233026Y138055D01*
X232994Y138117D01*
X232966Y138181D01*
X232941Y138246D01*
X232920Y138312D01*
X232902Y138380D01*
X232889Y138448D01*
X232879Y138517D01*
X232873Y138586D01*
X232871Y138656D01*
X232871Y141760D01*
X232873Y141830D01*
X232879Y141899D01*
X232889Y141968D01*
X232902Y142036D01*
X232920Y142104D01*
X232941Y142170D01*
X232966Y142235D01*
X232994Y142299D01*
X233026Y142361D01*
X233061Y142421D01*
X233100Y142479D01*
X233142Y142534D01*
X233187Y142588D01*
X233235Y142638D01*
X233285Y142686D01*
X233339Y142731D01*
X233394Y142773D01*
X233452Y142812D01*
X233512Y142847D01*
X233574Y142879D01*
X233638Y142907D01*
X233703Y142932D01*
X233769Y142953D01*
X233837Y142971D01*
X233905Y142984D01*
X233974Y142994D01*
X234043Y143000D01*
X234113Y143002D01*
X235355Y143002D01*
X237653Y143002D02*
X237653Y137414D01*
X240137Y137414D01*
X242480Y137414D02*
X242480Y143002D01*
X245585Y143002D02*
X242480Y139587D01*
X243722Y140829D02*
X245585Y137414D01*
X371997Y291648D02*
X372928Y291648D01*
X372928Y288544D01*
X371066Y288544D01*
X370996Y288546D01*
X370927Y288552D01*
X370858Y288562D01*
X370790Y288575D01*
X370722Y288593D01*
X370656Y288614D01*
X370591Y288639D01*
X370527Y288667D01*
X370465Y288699D01*
X370405Y288734D01*
X370347Y288773D01*
X370292Y288815D01*
X370238Y288860D01*
X370188Y288908D01*
X370140Y288958D01*
X370095Y289012D01*
X370053Y289067D01*
X370014Y289125D01*
X369979Y289185D01*
X369947Y289247D01*
X369919Y289311D01*
X369894Y289376D01*
X369873Y289442D01*
X369855Y289510D01*
X369842Y289578D01*
X369832Y289647D01*
X369826Y289716D01*
X369824Y289786D01*
X369824Y292890D01*
X369826Y292960D01*
X369832Y293029D01*
X369842Y293098D01*
X369855Y293166D01*
X369873Y293234D01*
X369894Y293300D01*
X369919Y293365D01*
X369947Y293429D01*
X369979Y293491D01*
X370014Y293551D01*
X370053Y293609D01*
X370095Y293664D01*
X370140Y293718D01*
X370188Y293768D01*
X370238Y293816D01*
X370292Y293861D01*
X370347Y293903D01*
X370405Y293942D01*
X370465Y293977D01*
X370527Y294009D01*
X370591Y294037D01*
X370656Y294062D01*
X370722Y294083D01*
X370790Y294101D01*
X370858Y294114D01*
X370927Y294124D01*
X370996Y294130D01*
X371066Y294132D01*
X372928Y294132D01*
X375676Y294132D02*
X375676Y288544D01*
X378781Y288544D02*
X375676Y294132D01*
X378781Y294132D02*
X378781Y288544D01*
X381528Y288544D02*
X381528Y294132D01*
X383080Y294132D01*
X383156Y294130D01*
X383232Y294125D01*
X383308Y294115D01*
X383383Y294102D01*
X383457Y294085D01*
X383531Y294065D01*
X383603Y294041D01*
X383674Y294014D01*
X383744Y293983D01*
X383812Y293949D01*
X383878Y293911D01*
X383942Y293870D01*
X384005Y293827D01*
X384065Y293780D01*
X384122Y293730D01*
X384177Y293677D01*
X384230Y293622D01*
X384280Y293565D01*
X384327Y293505D01*
X384370Y293442D01*
X384411Y293378D01*
X384449Y293312D01*
X384483Y293244D01*
X384514Y293174D01*
X384541Y293103D01*
X384565Y293030D01*
X384585Y292957D01*
X384602Y292883D01*
X384615Y292808D01*
X384625Y292732D01*
X384630Y292656D01*
X384632Y292580D01*
X384633Y292580D02*
X384633Y290096D01*
X384632Y290096D02*
X384630Y290017D01*
X384624Y289939D01*
X384614Y289861D01*
X384600Y289784D01*
X384582Y289707D01*
X384561Y289631D01*
X384535Y289557D01*
X384506Y289484D01*
X384473Y289413D01*
X384437Y289343D01*
X384397Y289275D01*
X384354Y289209D01*
X384307Y289146D01*
X384258Y289085D01*
X384205Y289027D01*
X384149Y288971D01*
X384091Y288918D01*
X384030Y288869D01*
X383967Y288822D01*
X383901Y288779D01*
X383833Y288739D01*
X383764Y288703D01*
X383692Y288670D01*
X383619Y288641D01*
X383545Y288615D01*
X383469Y288594D01*
X383392Y288576D01*
X383315Y288562D01*
X383237Y288552D01*
X383159Y288546D01*
X383080Y288544D01*
X381528Y288544D01*
D11*
X211380Y43970D02*
X201380Y43970D01*
X206380Y48970D02*
X206380Y38970D01*
D12*
X222560Y215170D02*
X222560Y219170D01*
X229560Y219170D02*
X229560Y215170D01*
D13*
X223185Y215920D03*
D12*
X173450Y203510D02*
X169450Y203510D01*
X169450Y210510D02*
X173450Y210510D01*
D14*
X172700Y204135D03*
D11*
X171450Y234950D02*
X171450Y262890D01*
X214630Y262890D01*
X214630Y234950D01*
X171450Y234950D01*
D15*
X177050Y247523D02*
X177108Y247525D01*
X177165Y247531D01*
X177222Y247541D01*
X177279Y247554D01*
X177334Y247572D01*
X177387Y247593D01*
X177440Y247618D01*
X177490Y247646D01*
X177538Y247678D01*
X177585Y247713D01*
X177628Y247751D01*
X177669Y247792D01*
X177707Y247835D01*
X177742Y247882D01*
X177774Y247930D01*
X177802Y247980D01*
X177827Y248033D01*
X177848Y248086D01*
X177866Y248141D01*
X177879Y248198D01*
X177889Y248255D01*
X177895Y248312D01*
X177897Y248370D01*
X177050Y247523D02*
X176967Y247525D01*
X176884Y247531D01*
X176802Y247540D01*
X176720Y247554D01*
X176639Y247571D01*
X176558Y247592D01*
X176479Y247617D01*
X176401Y247645D01*
X176324Y247677D01*
X176249Y247712D01*
X176176Y247751D01*
X176104Y247794D01*
X176035Y247839D01*
X175968Y247888D01*
X175903Y247940D01*
X175840Y247994D01*
X175780Y248052D01*
X175886Y250486D02*
X175888Y250541D01*
X175893Y250597D01*
X175902Y250651D01*
X175915Y250705D01*
X175931Y250758D01*
X175950Y250810D01*
X175973Y250861D01*
X175999Y250910D01*
X176029Y250957D01*
X176061Y251002D01*
X176096Y251044D01*
X176134Y251085D01*
X176175Y251123D01*
X176217Y251158D01*
X176262Y251190D01*
X176310Y251220D01*
X176358Y251246D01*
X176409Y251269D01*
X176461Y251288D01*
X176514Y251304D01*
X176568Y251317D01*
X176622Y251326D01*
X176678Y251331D01*
X176733Y251333D01*
X176733Y251334D02*
X176812Y251332D01*
X176890Y251326D01*
X176968Y251317D01*
X177045Y251303D01*
X177122Y251286D01*
X177198Y251264D01*
X177272Y251240D01*
X177346Y251211D01*
X177417Y251179D01*
X177487Y251143D01*
X177556Y251104D01*
X177622Y251062D01*
X177686Y251016D01*
X176309Y249745D02*
X176262Y249775D01*
X176217Y249808D01*
X176174Y249844D01*
X176134Y249882D01*
X176096Y249923D01*
X176061Y249966D01*
X176029Y250012D01*
X175999Y250059D01*
X175973Y250109D01*
X175950Y250160D01*
X175931Y250212D01*
X175915Y250265D01*
X175902Y250320D01*
X175893Y250375D01*
X175888Y250430D01*
X175886Y250486D01*
X177474Y249111D02*
X177521Y249081D01*
X177566Y249048D01*
X177609Y249012D01*
X177649Y248974D01*
X177687Y248933D01*
X177722Y248890D01*
X177754Y248844D01*
X177784Y248797D01*
X177810Y248747D01*
X177833Y248696D01*
X177852Y248644D01*
X177868Y248591D01*
X177881Y248536D01*
X177890Y248481D01*
X177895Y248426D01*
X177897Y248370D01*
X177473Y249111D02*
X176309Y249746D01*
X179486Y251333D02*
X179486Y247523D01*
X179486Y251333D02*
X180544Y251333D01*
X180608Y251331D01*
X180672Y251325D01*
X180735Y251316D01*
X180797Y251302D01*
X180859Y251285D01*
X180919Y251264D01*
X180978Y251240D01*
X181036Y251212D01*
X181091Y251180D01*
X181145Y251146D01*
X181196Y251108D01*
X181246Y251067D01*
X181292Y251023D01*
X181336Y250977D01*
X181377Y250927D01*
X181415Y250876D01*
X181449Y250822D01*
X181481Y250767D01*
X181509Y250709D01*
X181533Y250650D01*
X181554Y250590D01*
X181571Y250528D01*
X181585Y250466D01*
X181594Y250403D01*
X181600Y250339D01*
X181602Y250275D01*
X181600Y250211D01*
X181594Y250147D01*
X181585Y250084D01*
X181571Y250022D01*
X181554Y249960D01*
X181533Y249900D01*
X181509Y249841D01*
X181481Y249783D01*
X181449Y249728D01*
X181415Y249674D01*
X181377Y249623D01*
X181336Y249573D01*
X181292Y249527D01*
X181246Y249483D01*
X181196Y249442D01*
X181145Y249404D01*
X181091Y249370D01*
X181036Y249338D01*
X180978Y249310D01*
X180919Y249286D01*
X180859Y249265D01*
X180797Y249248D01*
X180735Y249234D01*
X180672Y249225D01*
X180608Y249219D01*
X180544Y249217D01*
X180544Y249216D02*
X179486Y249216D01*
X182973Y249428D02*
X182975Y249538D01*
X182981Y249647D01*
X182990Y249756D01*
X183004Y249865D01*
X183021Y249973D01*
X183042Y250081D01*
X183066Y250187D01*
X183095Y250293D01*
X183127Y250398D01*
X183162Y250502D01*
X183201Y250604D01*
X183244Y250705D01*
X183291Y250804D01*
X183311Y250854D01*
X183333Y250903D01*
X183359Y250951D01*
X183388Y250996D01*
X183421Y251039D01*
X183456Y251080D01*
X183494Y251119D01*
X183534Y251154D01*
X183577Y251187D01*
X183622Y251217D01*
X183669Y251244D01*
X183717Y251267D01*
X183767Y251287D01*
X183819Y251303D01*
X183871Y251316D01*
X183924Y251326D01*
X183978Y251331D01*
X184032Y251333D01*
X184086Y251331D01*
X184140Y251326D01*
X184193Y251316D01*
X184245Y251303D01*
X184297Y251287D01*
X184347Y251267D01*
X184395Y251244D01*
X184442Y251217D01*
X184487Y251187D01*
X184530Y251154D01*
X184570Y251119D01*
X184608Y251080D01*
X184643Y251039D01*
X184676Y250996D01*
X184705Y250951D01*
X184731Y250903D01*
X184753Y250854D01*
X184773Y250804D01*
X184772Y250804D02*
X184819Y250705D01*
X184862Y250604D01*
X184901Y250502D01*
X184936Y250398D01*
X184968Y250293D01*
X184997Y250187D01*
X185021Y250081D01*
X185042Y249973D01*
X185059Y249865D01*
X185073Y249756D01*
X185082Y249647D01*
X185088Y249538D01*
X185090Y249428D01*
X182973Y249428D02*
X182975Y249318D01*
X182981Y249209D01*
X182990Y249100D01*
X183004Y248991D01*
X183021Y248883D01*
X183042Y248775D01*
X183066Y248669D01*
X183095Y248563D01*
X183127Y248458D01*
X183162Y248355D01*
X183201Y248252D01*
X183244Y248151D01*
X183291Y248052D01*
X183311Y248002D01*
X183333Y247953D01*
X183359Y247905D01*
X183388Y247860D01*
X183421Y247817D01*
X183456Y247776D01*
X183494Y247737D01*
X183534Y247702D01*
X183577Y247669D01*
X183622Y247639D01*
X183669Y247612D01*
X183717Y247589D01*
X183767Y247569D01*
X183819Y247553D01*
X183871Y247540D01*
X183924Y247530D01*
X183978Y247525D01*
X184032Y247523D01*
X184772Y248052D02*
X184819Y248151D01*
X184862Y248252D01*
X184901Y248355D01*
X184936Y248458D01*
X184968Y248563D01*
X184997Y248669D01*
X185021Y248775D01*
X185042Y248883D01*
X185059Y248991D01*
X185073Y249100D01*
X185082Y249209D01*
X185088Y249318D01*
X185090Y249428D01*
X184773Y248052D02*
X184753Y248002D01*
X184731Y247953D01*
X184705Y247905D01*
X184676Y247860D01*
X184643Y247817D01*
X184608Y247776D01*
X184570Y247737D01*
X184530Y247702D01*
X184487Y247669D01*
X184442Y247639D01*
X184395Y247612D01*
X184347Y247589D01*
X184297Y247569D01*
X184245Y247553D01*
X184193Y247540D01*
X184140Y247530D01*
X184086Y247525D01*
X184032Y247523D01*
X183185Y248370D02*
X184878Y250486D01*
X186631Y247523D02*
X187901Y247523D01*
X187956Y247525D01*
X188012Y247530D01*
X188066Y247539D01*
X188120Y247552D01*
X188173Y247568D01*
X188225Y247587D01*
X188276Y247610D01*
X188325Y247636D01*
X188372Y247666D01*
X188417Y247698D01*
X188459Y247733D01*
X188500Y247771D01*
X188538Y247812D01*
X188573Y247854D01*
X188605Y247899D01*
X188635Y247947D01*
X188661Y247995D01*
X188684Y248046D01*
X188703Y248098D01*
X188719Y248151D01*
X188732Y248205D01*
X188741Y248259D01*
X188746Y248315D01*
X188748Y248370D01*
X188748Y248793D01*
X188746Y248848D01*
X188741Y248904D01*
X188732Y248958D01*
X188719Y249012D01*
X188703Y249065D01*
X188684Y249117D01*
X188661Y249168D01*
X188635Y249217D01*
X188605Y249264D01*
X188573Y249309D01*
X188538Y249351D01*
X188500Y249392D01*
X188459Y249430D01*
X188417Y249465D01*
X188372Y249497D01*
X188325Y249527D01*
X188276Y249553D01*
X188225Y249576D01*
X188173Y249595D01*
X188120Y249611D01*
X188066Y249624D01*
X188012Y249633D01*
X187956Y249638D01*
X187901Y249640D01*
X186631Y249640D01*
X186631Y251333D01*
X188748Y251333D01*
X190606Y250804D02*
X190559Y250705D01*
X190516Y250604D01*
X190477Y250502D01*
X190442Y250398D01*
X190410Y250293D01*
X190381Y250187D01*
X190357Y250081D01*
X190336Y249973D01*
X190319Y249865D01*
X190305Y249756D01*
X190296Y249647D01*
X190290Y249538D01*
X190288Y249428D01*
X190606Y250804D02*
X190626Y250854D01*
X190648Y250903D01*
X190674Y250951D01*
X190703Y250996D01*
X190736Y251039D01*
X190771Y251080D01*
X190809Y251119D01*
X190849Y251154D01*
X190892Y251187D01*
X190937Y251217D01*
X190984Y251244D01*
X191032Y251267D01*
X191082Y251287D01*
X191134Y251303D01*
X191186Y251316D01*
X191239Y251326D01*
X191293Y251331D01*
X191347Y251333D01*
X191401Y251331D01*
X191455Y251326D01*
X191508Y251316D01*
X191560Y251303D01*
X191612Y251287D01*
X191662Y251267D01*
X191710Y251244D01*
X191757Y251217D01*
X191802Y251187D01*
X191845Y251154D01*
X191885Y251119D01*
X191923Y251080D01*
X191958Y251039D01*
X191991Y250996D01*
X192020Y250951D01*
X192046Y250903D01*
X192068Y250854D01*
X192088Y250804D01*
X192087Y250804D02*
X192134Y250705D01*
X192177Y250604D01*
X192216Y250502D01*
X192251Y250398D01*
X192283Y250293D01*
X192312Y250187D01*
X192336Y250081D01*
X192357Y249973D01*
X192374Y249865D01*
X192388Y249756D01*
X192397Y249647D01*
X192403Y249538D01*
X192405Y249428D01*
X190288Y249428D02*
X190290Y249318D01*
X190296Y249209D01*
X190305Y249100D01*
X190319Y248991D01*
X190336Y248883D01*
X190357Y248775D01*
X190381Y248669D01*
X190410Y248563D01*
X190442Y248458D01*
X190477Y248355D01*
X190516Y248252D01*
X190559Y248151D01*
X190606Y248052D01*
X190626Y248002D01*
X190648Y247953D01*
X190674Y247905D01*
X190703Y247860D01*
X190736Y247817D01*
X190771Y247776D01*
X190809Y247737D01*
X190849Y247702D01*
X190892Y247669D01*
X190937Y247639D01*
X190984Y247612D01*
X191032Y247589D01*
X191082Y247569D01*
X191134Y247553D01*
X191186Y247540D01*
X191239Y247530D01*
X191293Y247525D01*
X191347Y247523D01*
X192087Y248052D02*
X192134Y248151D01*
X192177Y248252D01*
X192216Y248355D01*
X192251Y248458D01*
X192283Y248563D01*
X192312Y248669D01*
X192336Y248775D01*
X192357Y248883D01*
X192374Y248991D01*
X192388Y249100D01*
X192397Y249209D01*
X192403Y249318D01*
X192405Y249428D01*
X192088Y248052D02*
X192068Y248002D01*
X192046Y247953D01*
X192020Y247905D01*
X191991Y247860D01*
X191958Y247817D01*
X191923Y247776D01*
X191885Y247737D01*
X191845Y247702D01*
X191802Y247669D01*
X191757Y247639D01*
X191710Y247612D01*
X191662Y247589D01*
X191612Y247569D01*
X191560Y247553D01*
X191508Y247540D01*
X191455Y247530D01*
X191401Y247525D01*
X191347Y247523D01*
X190500Y248370D02*
X192193Y250486D01*
X193946Y247523D02*
X195004Y247523D01*
X195068Y247525D01*
X195132Y247531D01*
X195195Y247540D01*
X195257Y247554D01*
X195319Y247571D01*
X195379Y247592D01*
X195438Y247616D01*
X195496Y247644D01*
X195551Y247676D01*
X195605Y247710D01*
X195656Y247748D01*
X195706Y247789D01*
X195752Y247833D01*
X195796Y247879D01*
X195837Y247929D01*
X195875Y247980D01*
X195909Y248034D01*
X195941Y248089D01*
X195969Y248147D01*
X195993Y248206D01*
X196014Y248266D01*
X196031Y248328D01*
X196045Y248390D01*
X196054Y248453D01*
X196060Y248517D01*
X196062Y248581D01*
X196060Y248645D01*
X196054Y248709D01*
X196045Y248772D01*
X196031Y248834D01*
X196014Y248896D01*
X195993Y248956D01*
X195969Y249015D01*
X195941Y249073D01*
X195909Y249128D01*
X195875Y249182D01*
X195837Y249233D01*
X195796Y249283D01*
X195752Y249329D01*
X195706Y249373D01*
X195656Y249414D01*
X195605Y249452D01*
X195551Y249486D01*
X195496Y249518D01*
X195438Y249546D01*
X195379Y249570D01*
X195319Y249591D01*
X195257Y249608D01*
X195195Y249622D01*
X195132Y249631D01*
X195068Y249637D01*
X195004Y249639D01*
X195216Y251333D02*
X193946Y251333D01*
X195216Y251333D02*
X195273Y251331D01*
X195329Y251325D01*
X195385Y251316D01*
X195440Y251303D01*
X195494Y251286D01*
X195547Y251266D01*
X195598Y251242D01*
X195648Y251215D01*
X195695Y251184D01*
X195741Y251151D01*
X195784Y251114D01*
X195825Y251075D01*
X195863Y251033D01*
X195898Y250988D01*
X195930Y250942D01*
X195959Y250893D01*
X195984Y250843D01*
X196006Y250790D01*
X196025Y250737D01*
X196040Y250682D01*
X196051Y250627D01*
X196059Y250571D01*
X196063Y250514D01*
X196063Y250458D01*
X196059Y250401D01*
X196051Y250345D01*
X196040Y250290D01*
X196025Y250235D01*
X196006Y250182D01*
X195984Y250129D01*
X195959Y250079D01*
X195930Y250030D01*
X195898Y249984D01*
X195863Y249939D01*
X195825Y249897D01*
X195784Y249858D01*
X195741Y249821D01*
X195695Y249788D01*
X195648Y249757D01*
X195598Y249730D01*
X195547Y249706D01*
X195494Y249686D01*
X195440Y249669D01*
X195385Y249656D01*
X195329Y249647D01*
X195273Y249641D01*
X195216Y249639D01*
X195216Y249640D02*
X194369Y249640D01*
X197774Y249640D02*
X198832Y249640D01*
X198832Y249639D02*
X198896Y249637D01*
X198960Y249631D01*
X199023Y249622D01*
X199085Y249608D01*
X199147Y249591D01*
X199207Y249570D01*
X199266Y249546D01*
X199324Y249518D01*
X199379Y249486D01*
X199433Y249452D01*
X199484Y249414D01*
X199534Y249373D01*
X199580Y249329D01*
X199624Y249283D01*
X199665Y249233D01*
X199703Y249182D01*
X199737Y249128D01*
X199769Y249073D01*
X199797Y249015D01*
X199821Y248956D01*
X199842Y248896D01*
X199859Y248834D01*
X199873Y248772D01*
X199882Y248709D01*
X199888Y248645D01*
X199890Y248581D01*
X199888Y248517D01*
X199882Y248453D01*
X199873Y248390D01*
X199859Y248328D01*
X199842Y248266D01*
X199821Y248206D01*
X199797Y248147D01*
X199769Y248089D01*
X199737Y248034D01*
X199703Y247980D01*
X199665Y247929D01*
X199624Y247879D01*
X199580Y247833D01*
X199534Y247789D01*
X199484Y247748D01*
X199433Y247710D01*
X199379Y247676D01*
X199324Y247644D01*
X199266Y247616D01*
X199207Y247592D01*
X199147Y247571D01*
X199085Y247554D01*
X199023Y247540D01*
X198960Y247531D01*
X198896Y247525D01*
X198832Y247523D01*
X197774Y247523D01*
X197774Y251333D01*
X198832Y251333D01*
X198889Y251331D01*
X198945Y251325D01*
X199001Y251316D01*
X199056Y251303D01*
X199110Y251286D01*
X199163Y251266D01*
X199214Y251242D01*
X199264Y251215D01*
X199311Y251184D01*
X199357Y251151D01*
X199400Y251114D01*
X199441Y251075D01*
X199479Y251033D01*
X199514Y250988D01*
X199546Y250942D01*
X199575Y250893D01*
X199600Y250843D01*
X199622Y250790D01*
X199641Y250737D01*
X199656Y250682D01*
X199667Y250627D01*
X199675Y250571D01*
X199679Y250514D01*
X199679Y250458D01*
X199675Y250401D01*
X199667Y250345D01*
X199656Y250290D01*
X199641Y250235D01*
X199622Y250182D01*
X199600Y250129D01*
X199575Y250079D01*
X199546Y250030D01*
X199514Y249984D01*
X199479Y249939D01*
X199441Y249897D01*
X199400Y249858D01*
X199357Y249821D01*
X199311Y249788D01*
X199264Y249757D01*
X199214Y249730D01*
X199163Y249706D01*
X199110Y249686D01*
X199056Y249669D01*
X199001Y249656D01*
X198945Y249647D01*
X198889Y249641D01*
X198832Y249639D01*
X201050Y247523D02*
X202320Y251333D01*
X203590Y247523D01*
X203272Y248476D02*
X201367Y248476D01*
X205041Y247523D02*
X205041Y251333D01*
X205041Y249640D02*
X207157Y249640D01*
X207157Y251333D02*
X207157Y247523D01*
X209635Y247523D02*
X209635Y251333D01*
X210693Y251333D02*
X208576Y251333D01*
D11*
X185380Y120D02*
X10380Y120D01*
D12*
X59512Y5428D02*
X59512Y17112D01*
X62757Y17112D01*
X62870Y17110D01*
X62983Y17104D01*
X63096Y17094D01*
X63209Y17080D01*
X63321Y17063D01*
X63432Y17041D01*
X63542Y17016D01*
X63652Y16986D01*
X63760Y16953D01*
X63867Y16916D01*
X63973Y16876D01*
X64077Y16831D01*
X64180Y16783D01*
X64281Y16732D01*
X64380Y16677D01*
X64477Y16619D01*
X64572Y16557D01*
X64665Y16492D01*
X64755Y16424D01*
X64843Y16353D01*
X64929Y16278D01*
X65012Y16201D01*
X65092Y16121D01*
X65169Y16038D01*
X65244Y15952D01*
X65315Y15864D01*
X65383Y15774D01*
X65448Y15681D01*
X65510Y15586D01*
X65568Y15489D01*
X65623Y15390D01*
X65674Y15289D01*
X65722Y15186D01*
X65767Y15082D01*
X65807Y14976D01*
X65844Y14869D01*
X65877Y14761D01*
X65907Y14651D01*
X65932Y14541D01*
X65954Y14430D01*
X65971Y14318D01*
X65985Y14205D01*
X65995Y14092D01*
X66001Y13979D01*
X66003Y13866D01*
X66001Y13753D01*
X65995Y13640D01*
X65985Y13527D01*
X65971Y13414D01*
X65954Y13302D01*
X65932Y13191D01*
X65907Y13081D01*
X65877Y12971D01*
X65844Y12863D01*
X65807Y12756D01*
X65767Y12650D01*
X65722Y12546D01*
X65674Y12443D01*
X65623Y12342D01*
X65568Y12243D01*
X65510Y12146D01*
X65448Y12051D01*
X65383Y11958D01*
X65315Y11868D01*
X65244Y11780D01*
X65169Y11694D01*
X65092Y11611D01*
X65012Y11531D01*
X64929Y11454D01*
X64843Y11379D01*
X64755Y11308D01*
X64665Y11240D01*
X64572Y11175D01*
X64477Y11113D01*
X64380Y11055D01*
X64281Y11000D01*
X64180Y10949D01*
X64077Y10901D01*
X63973Y10856D01*
X63867Y10816D01*
X63760Y10779D01*
X63652Y10746D01*
X63542Y10716D01*
X63432Y10691D01*
X63321Y10669D01*
X63209Y10652D01*
X63096Y10638D01*
X62983Y10628D01*
X62870Y10622D01*
X62757Y10620D01*
X62757Y10621D02*
X59512Y10621D01*
X72954Y5428D02*
X75551Y5428D01*
X72954Y5428D02*
X72855Y5430D01*
X72755Y5436D01*
X72656Y5445D01*
X72558Y5458D01*
X72460Y5475D01*
X72362Y5496D01*
X72266Y5521D01*
X72171Y5549D01*
X72077Y5581D01*
X71984Y5616D01*
X71892Y5655D01*
X71802Y5698D01*
X71714Y5743D01*
X71627Y5793D01*
X71543Y5845D01*
X71460Y5901D01*
X71380Y5959D01*
X71302Y6021D01*
X71227Y6086D01*
X71154Y6154D01*
X71084Y6224D01*
X71016Y6297D01*
X70951Y6372D01*
X70889Y6450D01*
X70831Y6530D01*
X70775Y6613D01*
X70723Y6697D01*
X70673Y6784D01*
X70628Y6872D01*
X70585Y6962D01*
X70546Y7054D01*
X70511Y7147D01*
X70479Y7241D01*
X70451Y7336D01*
X70426Y7432D01*
X70405Y7530D01*
X70388Y7628D01*
X70375Y7726D01*
X70366Y7825D01*
X70360Y7925D01*
X70358Y8024D01*
X70358Y14516D01*
X70360Y14615D01*
X70366Y14715D01*
X70375Y14814D01*
X70388Y14912D01*
X70405Y15010D01*
X70426Y15108D01*
X70451Y15204D01*
X70479Y15299D01*
X70511Y15393D01*
X70546Y15486D01*
X70585Y15578D01*
X70628Y15668D01*
X70673Y15756D01*
X70723Y15843D01*
X70775Y15927D01*
X70831Y16010D01*
X70889Y16090D01*
X70951Y16168D01*
X71016Y16243D01*
X71084Y16316D01*
X71154Y16386D01*
X71227Y16454D01*
X71302Y16519D01*
X71380Y16581D01*
X71460Y16639D01*
X71543Y16695D01*
X71627Y16747D01*
X71714Y16797D01*
X71802Y16842D01*
X71892Y16885D01*
X71984Y16924D01*
X72076Y16959D01*
X72171Y16991D01*
X72266Y17019D01*
X72362Y17044D01*
X72460Y17065D01*
X72558Y17082D01*
X72656Y17095D01*
X72755Y17104D01*
X72855Y17110D01*
X72954Y17112D01*
X75551Y17112D01*
X80466Y11919D02*
X83712Y11919D01*
X83712Y11920D02*
X83825Y11918D01*
X83938Y11912D01*
X84051Y11902D01*
X84164Y11888D01*
X84276Y11871D01*
X84387Y11849D01*
X84497Y11824D01*
X84607Y11794D01*
X84715Y11761D01*
X84822Y11724D01*
X84928Y11684D01*
X85032Y11639D01*
X85135Y11591D01*
X85236Y11540D01*
X85335Y11485D01*
X85432Y11427D01*
X85527Y11365D01*
X85620Y11300D01*
X85710Y11232D01*
X85798Y11161D01*
X85884Y11086D01*
X85967Y11009D01*
X86047Y10929D01*
X86124Y10846D01*
X86199Y10760D01*
X86270Y10672D01*
X86338Y10582D01*
X86403Y10489D01*
X86465Y10394D01*
X86523Y10297D01*
X86578Y10198D01*
X86629Y10097D01*
X86677Y9994D01*
X86722Y9890D01*
X86762Y9784D01*
X86799Y9677D01*
X86832Y9569D01*
X86862Y9459D01*
X86887Y9349D01*
X86909Y9238D01*
X86926Y9126D01*
X86940Y9013D01*
X86950Y8900D01*
X86956Y8787D01*
X86958Y8674D01*
X86956Y8561D01*
X86950Y8448D01*
X86940Y8335D01*
X86926Y8222D01*
X86909Y8110D01*
X86887Y7999D01*
X86862Y7889D01*
X86832Y7779D01*
X86799Y7671D01*
X86762Y7564D01*
X86722Y7458D01*
X86677Y7354D01*
X86629Y7251D01*
X86578Y7150D01*
X86523Y7051D01*
X86465Y6954D01*
X86403Y6859D01*
X86338Y6766D01*
X86270Y6676D01*
X86199Y6588D01*
X86124Y6502D01*
X86047Y6419D01*
X85967Y6339D01*
X85884Y6262D01*
X85798Y6187D01*
X85710Y6116D01*
X85620Y6048D01*
X85527Y5983D01*
X85432Y5921D01*
X85335Y5863D01*
X85236Y5808D01*
X85135Y5757D01*
X85032Y5709D01*
X84928Y5664D01*
X84822Y5624D01*
X84715Y5587D01*
X84607Y5554D01*
X84497Y5524D01*
X84387Y5499D01*
X84276Y5477D01*
X84164Y5460D01*
X84051Y5446D01*
X83938Y5436D01*
X83825Y5430D01*
X83712Y5428D01*
X80466Y5428D01*
X80466Y17112D01*
X83712Y17112D01*
X83813Y17110D01*
X83913Y17104D01*
X84013Y17094D01*
X84113Y17081D01*
X84212Y17063D01*
X84311Y17042D01*
X84408Y17017D01*
X84505Y16988D01*
X84600Y16955D01*
X84694Y16919D01*
X84786Y16879D01*
X84877Y16836D01*
X84966Y16789D01*
X85053Y16739D01*
X85139Y16685D01*
X85222Y16628D01*
X85302Y16568D01*
X85381Y16505D01*
X85457Y16438D01*
X85530Y16369D01*
X85600Y16297D01*
X85668Y16223D01*
X85733Y16146D01*
X85794Y16066D01*
X85853Y15984D01*
X85908Y15900D01*
X85960Y15814D01*
X86009Y15726D01*
X86054Y15636D01*
X86096Y15544D01*
X86134Y15451D01*
X86168Y15356D01*
X86199Y15261D01*
X86226Y15164D01*
X86249Y15066D01*
X86269Y14967D01*
X86284Y14867D01*
X86296Y14767D01*
X86304Y14667D01*
X86308Y14566D01*
X86308Y14466D01*
X86304Y14365D01*
X86296Y14265D01*
X86284Y14165D01*
X86269Y14065D01*
X86249Y13966D01*
X86226Y13868D01*
X86199Y13771D01*
X86168Y13676D01*
X86134Y13581D01*
X86096Y13488D01*
X86054Y13396D01*
X86009Y13306D01*
X85960Y13218D01*
X85908Y13132D01*
X85853Y13048D01*
X85794Y12966D01*
X85733Y12886D01*
X85668Y12809D01*
X85600Y12735D01*
X85530Y12663D01*
X85457Y12594D01*
X85381Y12527D01*
X85302Y12464D01*
X85222Y12404D01*
X85139Y12347D01*
X85053Y12293D01*
X84966Y12243D01*
X84877Y12196D01*
X84786Y12153D01*
X84694Y12113D01*
X84600Y12077D01*
X84505Y12044D01*
X84408Y12015D01*
X84311Y11990D01*
X84212Y11969D01*
X84113Y11951D01*
X84013Y11938D01*
X83913Y11928D01*
X83813Y11922D01*
X83712Y11920D01*
X97846Y5428D02*
X103039Y5428D01*
X97846Y5428D02*
X97846Y17112D01*
X103039Y17112D01*
X101740Y11919D02*
X97846Y11919D01*
X107729Y17112D02*
X107729Y5428D01*
X107729Y17112D02*
X110975Y17112D01*
X111088Y17110D01*
X111201Y17104D01*
X111314Y17094D01*
X111427Y17080D01*
X111539Y17063D01*
X111650Y17041D01*
X111760Y17016D01*
X111870Y16986D01*
X111978Y16953D01*
X112085Y16916D01*
X112191Y16876D01*
X112295Y16831D01*
X112398Y16783D01*
X112499Y16732D01*
X112598Y16677D01*
X112695Y16619D01*
X112790Y16557D01*
X112883Y16492D01*
X112973Y16424D01*
X113061Y16353D01*
X113147Y16278D01*
X113230Y16201D01*
X113310Y16121D01*
X113387Y16038D01*
X113462Y15952D01*
X113533Y15864D01*
X113601Y15774D01*
X113666Y15681D01*
X113728Y15586D01*
X113786Y15489D01*
X113841Y15390D01*
X113892Y15289D01*
X113940Y15186D01*
X113985Y15082D01*
X114025Y14976D01*
X114062Y14869D01*
X114095Y14761D01*
X114125Y14651D01*
X114150Y14541D01*
X114172Y14430D01*
X114189Y14318D01*
X114203Y14205D01*
X114213Y14092D01*
X114219Y13979D01*
X114221Y13866D01*
X114220Y13866D02*
X114220Y8674D01*
X114221Y8674D02*
X114219Y8561D01*
X114213Y8448D01*
X114203Y8335D01*
X114189Y8222D01*
X114172Y8110D01*
X114150Y7999D01*
X114125Y7889D01*
X114095Y7779D01*
X114062Y7671D01*
X114025Y7564D01*
X113985Y7458D01*
X113940Y7354D01*
X113892Y7251D01*
X113841Y7150D01*
X113786Y7051D01*
X113728Y6954D01*
X113666Y6859D01*
X113601Y6766D01*
X113533Y6676D01*
X113462Y6588D01*
X113387Y6502D01*
X113310Y6419D01*
X113230Y6339D01*
X113147Y6262D01*
X113061Y6187D01*
X112973Y6116D01*
X112883Y6048D01*
X112790Y5983D01*
X112695Y5921D01*
X112598Y5863D01*
X112499Y5808D01*
X112398Y5757D01*
X112295Y5709D01*
X112191Y5664D01*
X112085Y5624D01*
X111978Y5587D01*
X111870Y5554D01*
X111760Y5524D01*
X111650Y5499D01*
X111539Y5477D01*
X111427Y5460D01*
X111314Y5446D01*
X111201Y5436D01*
X111088Y5430D01*
X110975Y5428D01*
X107729Y5428D01*
X124465Y11919D02*
X126412Y11919D01*
X126412Y5428D01*
X122518Y5428D01*
X122419Y5430D01*
X122319Y5436D01*
X122220Y5445D01*
X122122Y5458D01*
X122024Y5475D01*
X121926Y5496D01*
X121830Y5521D01*
X121735Y5549D01*
X121641Y5581D01*
X121548Y5616D01*
X121456Y5655D01*
X121366Y5698D01*
X121278Y5743D01*
X121191Y5793D01*
X121107Y5845D01*
X121024Y5901D01*
X120944Y5959D01*
X120866Y6021D01*
X120791Y6086D01*
X120718Y6154D01*
X120648Y6224D01*
X120580Y6297D01*
X120515Y6372D01*
X120453Y6450D01*
X120395Y6530D01*
X120339Y6613D01*
X120287Y6697D01*
X120237Y6784D01*
X120192Y6872D01*
X120149Y6962D01*
X120110Y7054D01*
X120075Y7147D01*
X120043Y7241D01*
X120015Y7336D01*
X119990Y7432D01*
X119969Y7530D01*
X119952Y7628D01*
X119939Y7726D01*
X119930Y7825D01*
X119924Y7925D01*
X119922Y8024D01*
X119921Y8024D02*
X119921Y14516D01*
X119922Y14516D02*
X119924Y14615D01*
X119930Y14715D01*
X119939Y14814D01*
X119952Y14912D01*
X119969Y15010D01*
X119990Y15108D01*
X120015Y15204D01*
X120043Y15299D01*
X120075Y15393D01*
X120110Y15486D01*
X120149Y15578D01*
X120192Y15668D01*
X120237Y15756D01*
X120287Y15843D01*
X120339Y15927D01*
X120395Y16010D01*
X120453Y16090D01*
X120515Y16168D01*
X120580Y16243D01*
X120648Y16316D01*
X120718Y16386D01*
X120791Y16454D01*
X120866Y16519D01*
X120944Y16581D01*
X121024Y16639D01*
X121107Y16695D01*
X121191Y16747D01*
X121278Y16797D01*
X121366Y16842D01*
X121456Y16885D01*
X121548Y16924D01*
X121640Y16959D01*
X121735Y16991D01*
X121830Y17019D01*
X121926Y17044D01*
X122024Y17065D01*
X122122Y17082D01*
X122220Y17095D01*
X122319Y17104D01*
X122419Y17110D01*
X122518Y17112D01*
X126412Y17112D01*
X132136Y5428D02*
X137329Y5428D01*
X132136Y5428D02*
X132136Y17112D01*
X137329Y17112D01*
X136030Y11919D02*
X132136Y11919D01*
D11*
X152880Y7620D02*
X152880Y17620D01*
X42880Y17620D02*
X42880Y7620D01*
X152880Y7620D02*
X157880Y12620D01*
X152880Y7620D02*
X147880Y12620D01*
X47880Y12620D02*
X42880Y7620D01*
X37880Y12620D01*
X185380Y2620D02*
X185380Y120D01*
X185380Y12620D02*
X185380Y15120D01*
X185380Y165120D02*
X185380Y167620D01*
X185380Y185120D02*
X160380Y185120D01*
X185380Y185120D02*
X185380Y177620D01*
X35380Y185120D02*
X10380Y185120D01*
X10380Y177620D01*
X10380Y2620D02*
X10380Y120D01*
X10380Y12620D02*
X10380Y15120D01*
X10380Y165120D02*
X10380Y167620D01*
D16*
X24098Y127841D02*
X28275Y127841D01*
X24098Y127841D02*
X24098Y137239D01*
X28275Y137239D01*
X27231Y133062D02*
X24098Y133062D01*
X34529Y127841D02*
X34618Y127843D01*
X34706Y127849D01*
X34794Y127858D01*
X34882Y127871D01*
X34969Y127888D01*
X35055Y127908D01*
X35140Y127933D01*
X35225Y127960D01*
X35308Y127992D01*
X35389Y128026D01*
X35469Y128065D01*
X35547Y128106D01*
X35624Y128151D01*
X35698Y128199D01*
X35771Y128250D01*
X35841Y128304D01*
X35908Y128362D01*
X35974Y128422D01*
X36036Y128484D01*
X36096Y128550D01*
X36154Y128617D01*
X36208Y128687D01*
X36259Y128760D01*
X36307Y128834D01*
X36352Y128911D01*
X36393Y128989D01*
X36432Y129069D01*
X36466Y129150D01*
X36498Y129233D01*
X36525Y129318D01*
X36550Y129403D01*
X36570Y129489D01*
X36587Y129576D01*
X36600Y129664D01*
X36609Y129752D01*
X36615Y129840D01*
X36617Y129929D01*
X34529Y127841D02*
X34400Y127843D01*
X34271Y127849D01*
X34142Y127858D01*
X34014Y127871D01*
X33886Y127888D01*
X33759Y127909D01*
X33632Y127933D01*
X33506Y127961D01*
X33381Y127993D01*
X33257Y128028D01*
X33134Y128067D01*
X33012Y128110D01*
X32892Y128156D01*
X32773Y128206D01*
X32655Y128259D01*
X32539Y128315D01*
X32425Y128375D01*
X32312Y128438D01*
X32202Y128505D01*
X32093Y128574D01*
X31987Y128647D01*
X31882Y128723D01*
X31780Y128802D01*
X31681Y128884D01*
X31583Y128968D01*
X31488Y129056D01*
X31396Y129146D01*
X31657Y135151D02*
X31659Y135240D01*
X31665Y135328D01*
X31674Y135416D01*
X31687Y135504D01*
X31704Y135591D01*
X31724Y135677D01*
X31749Y135762D01*
X31776Y135847D01*
X31808Y135930D01*
X31842Y136011D01*
X31881Y136091D01*
X31922Y136169D01*
X31967Y136246D01*
X32015Y136320D01*
X32066Y136393D01*
X32120Y136463D01*
X32178Y136530D01*
X32238Y136596D01*
X32300Y136658D01*
X32366Y136718D01*
X32433Y136776D01*
X32503Y136830D01*
X32576Y136881D01*
X32650Y136929D01*
X32727Y136974D01*
X32805Y137015D01*
X32885Y137054D01*
X32966Y137088D01*
X33049Y137120D01*
X33134Y137147D01*
X33219Y137172D01*
X33305Y137192D01*
X33392Y137209D01*
X33480Y137222D01*
X33568Y137231D01*
X33656Y137237D01*
X33745Y137239D01*
X33865Y137237D01*
X33985Y137232D01*
X34105Y137222D01*
X34224Y137210D01*
X34343Y137193D01*
X34461Y137173D01*
X34579Y137149D01*
X34695Y137122D01*
X34811Y137091D01*
X34926Y137057D01*
X35040Y137019D01*
X35153Y136977D01*
X35264Y136932D01*
X35374Y136884D01*
X35482Y136833D01*
X35589Y136778D01*
X35694Y136720D01*
X35797Y136658D01*
X35898Y136594D01*
X35998Y136526D01*
X36095Y136456D01*
X32701Y133324D02*
X32623Y133372D01*
X32547Y133424D01*
X32474Y133478D01*
X32403Y133536D01*
X32334Y133597D01*
X32268Y133661D01*
X32205Y133728D01*
X32145Y133797D01*
X32088Y133869D01*
X32034Y133943D01*
X31984Y134020D01*
X31936Y134099D01*
X31893Y134179D01*
X31852Y134262D01*
X31816Y134346D01*
X31783Y134431D01*
X31754Y134518D01*
X31728Y134607D01*
X31706Y134696D01*
X31689Y134786D01*
X31675Y134876D01*
X31665Y134968D01*
X31659Y135059D01*
X31657Y135151D01*
X35573Y131756D02*
X35651Y131708D01*
X35727Y131656D01*
X35800Y131602D01*
X35871Y131544D01*
X35940Y131483D01*
X36006Y131419D01*
X36069Y131352D01*
X36129Y131283D01*
X36186Y131211D01*
X36240Y131137D01*
X36290Y131060D01*
X36338Y130981D01*
X36381Y130901D01*
X36422Y130818D01*
X36458Y130734D01*
X36491Y130649D01*
X36520Y130562D01*
X36546Y130473D01*
X36568Y130384D01*
X36585Y130294D01*
X36599Y130204D01*
X36609Y130112D01*
X36615Y130021D01*
X36617Y129929D01*
X35573Y131757D02*
X32701Y133323D01*
X40671Y137239D02*
X40671Y127841D01*
X40671Y137239D02*
X43282Y137239D01*
X43383Y137237D01*
X43484Y137231D01*
X43585Y137221D01*
X43685Y137208D01*
X43785Y137190D01*
X43884Y137169D01*
X43982Y137143D01*
X44079Y137114D01*
X44175Y137082D01*
X44269Y137045D01*
X44362Y137005D01*
X44454Y136961D01*
X44543Y136914D01*
X44631Y136863D01*
X44717Y136809D01*
X44800Y136752D01*
X44882Y136692D01*
X44960Y136628D01*
X45037Y136562D01*
X45110Y136492D01*
X45181Y136420D01*
X45249Y136345D01*
X45314Y136267D01*
X45376Y136187D01*
X45435Y136105D01*
X45491Y136020D01*
X45543Y135933D01*
X45592Y135845D01*
X45638Y135754D01*
X45679Y135662D01*
X45718Y135568D01*
X45752Y135473D01*
X45783Y135377D01*
X45810Y135279D01*
X45834Y135181D01*
X45853Y135081D01*
X45869Y134981D01*
X45881Y134881D01*
X45889Y134780D01*
X45893Y134679D01*
X45893Y134577D01*
X45889Y134476D01*
X45881Y134375D01*
X45869Y134275D01*
X45853Y134175D01*
X45834Y134075D01*
X45810Y133977D01*
X45783Y133879D01*
X45752Y133783D01*
X45718Y133688D01*
X45679Y133594D01*
X45638Y133502D01*
X45592Y133411D01*
X45543Y133322D01*
X45491Y133236D01*
X45435Y133151D01*
X45376Y133069D01*
X45314Y132989D01*
X45249Y132911D01*
X45181Y132836D01*
X45110Y132764D01*
X45037Y132694D01*
X44960Y132628D01*
X44882Y132564D01*
X44800Y132504D01*
X44717Y132447D01*
X44631Y132393D01*
X44543Y132342D01*
X44454Y132295D01*
X44362Y132251D01*
X44269Y132211D01*
X44175Y132174D01*
X44079Y132142D01*
X43982Y132113D01*
X43884Y132087D01*
X43785Y132066D01*
X43685Y132048D01*
X43585Y132035D01*
X43484Y132025D01*
X43383Y132019D01*
X43282Y132017D01*
X43282Y132018D02*
X40671Y132018D01*
X49379Y127841D02*
X51990Y127841D01*
X52091Y127843D01*
X52192Y127849D01*
X52293Y127859D01*
X52393Y127872D01*
X52493Y127890D01*
X52592Y127911D01*
X52690Y127937D01*
X52787Y127966D01*
X52883Y127998D01*
X52977Y128035D01*
X53070Y128075D01*
X53162Y128119D01*
X53251Y128166D01*
X53339Y128217D01*
X53425Y128271D01*
X53508Y128328D01*
X53590Y128388D01*
X53668Y128452D01*
X53745Y128518D01*
X53818Y128588D01*
X53889Y128660D01*
X53957Y128735D01*
X54022Y128813D01*
X54084Y128893D01*
X54143Y128975D01*
X54199Y129060D01*
X54251Y129146D01*
X54300Y129235D01*
X54346Y129326D01*
X54387Y129418D01*
X54426Y129512D01*
X54460Y129607D01*
X54491Y129703D01*
X54518Y129801D01*
X54542Y129899D01*
X54561Y129999D01*
X54577Y130099D01*
X54589Y130199D01*
X54597Y130300D01*
X54601Y130401D01*
X54601Y130503D01*
X54597Y130604D01*
X54589Y130705D01*
X54577Y130805D01*
X54561Y130905D01*
X54542Y131005D01*
X54518Y131103D01*
X54491Y131201D01*
X54460Y131297D01*
X54426Y131392D01*
X54387Y131486D01*
X54346Y131578D01*
X54300Y131669D01*
X54251Y131757D01*
X54199Y131844D01*
X54143Y131929D01*
X54084Y132011D01*
X54022Y132091D01*
X53957Y132169D01*
X53889Y132244D01*
X53818Y132316D01*
X53745Y132386D01*
X53668Y132452D01*
X53590Y132516D01*
X53508Y132576D01*
X53425Y132633D01*
X53339Y132687D01*
X53251Y132738D01*
X53162Y132785D01*
X53070Y132829D01*
X52977Y132869D01*
X52883Y132906D01*
X52787Y132938D01*
X52690Y132967D01*
X52592Y132993D01*
X52493Y133014D01*
X52393Y133032D01*
X52293Y133045D01*
X52192Y133055D01*
X52091Y133061D01*
X51990Y133063D01*
X52512Y137239D02*
X49379Y137239D01*
X52512Y137239D02*
X52602Y137237D01*
X52691Y137231D01*
X52781Y137222D01*
X52870Y137208D01*
X52958Y137191D01*
X53045Y137170D01*
X53132Y137145D01*
X53217Y137116D01*
X53301Y137084D01*
X53383Y137049D01*
X53464Y137009D01*
X53543Y136967D01*
X53620Y136921D01*
X53695Y136871D01*
X53768Y136819D01*
X53839Y136763D01*
X53907Y136705D01*
X53972Y136643D01*
X54035Y136579D01*
X54095Y136512D01*
X54152Y136443D01*
X54206Y136371D01*
X54257Y136297D01*
X54305Y136221D01*
X54349Y136143D01*
X54390Y136063D01*
X54428Y135981D01*
X54462Y135898D01*
X54492Y135813D01*
X54519Y135727D01*
X54542Y135641D01*
X54561Y135553D01*
X54576Y135464D01*
X54588Y135375D01*
X54596Y135286D01*
X54600Y135196D01*
X54600Y135106D01*
X54596Y135016D01*
X54588Y134927D01*
X54576Y134838D01*
X54561Y134749D01*
X54542Y134661D01*
X54519Y134575D01*
X54492Y134489D01*
X54462Y134404D01*
X54428Y134321D01*
X54390Y134239D01*
X54349Y134159D01*
X54305Y134081D01*
X54257Y134005D01*
X54206Y133931D01*
X54152Y133859D01*
X54095Y133790D01*
X54035Y133723D01*
X53972Y133659D01*
X53907Y133597D01*
X53839Y133539D01*
X53768Y133483D01*
X53695Y133431D01*
X53620Y133381D01*
X53543Y133335D01*
X53464Y133293D01*
X53383Y133253D01*
X53301Y133218D01*
X53217Y133186D01*
X53132Y133157D01*
X53045Y133132D01*
X52958Y133111D01*
X52870Y133094D01*
X52781Y133080D01*
X52691Y133071D01*
X52602Y133065D01*
X52512Y133063D01*
X52512Y133062D02*
X50423Y133062D01*
X61395Y137240D02*
X61490Y137238D01*
X61584Y137232D01*
X61678Y137223D01*
X61772Y137210D01*
X61865Y137193D01*
X61957Y137172D01*
X62049Y137147D01*
X62139Y137119D01*
X62228Y137087D01*
X62316Y137052D01*
X62402Y137013D01*
X62487Y136971D01*
X62570Y136925D01*
X62651Y136876D01*
X62730Y136824D01*
X62807Y136769D01*
X62881Y136710D01*
X62953Y136649D01*
X63023Y136585D01*
X63090Y136518D01*
X63154Y136448D01*
X63215Y136376D01*
X63274Y136302D01*
X63329Y136225D01*
X63381Y136146D01*
X63430Y136065D01*
X63476Y135982D01*
X63518Y135897D01*
X63557Y135811D01*
X63592Y135723D01*
X63624Y135634D01*
X63652Y135544D01*
X63677Y135452D01*
X63698Y135360D01*
X63715Y135267D01*
X63728Y135173D01*
X63737Y135079D01*
X63743Y134985D01*
X63745Y134890D01*
X61395Y137239D02*
X61287Y137237D01*
X61178Y137231D01*
X61070Y137221D01*
X60963Y137208D01*
X60856Y137190D01*
X60749Y137169D01*
X60644Y137144D01*
X60539Y137115D01*
X60436Y137083D01*
X60334Y137046D01*
X60233Y137006D01*
X60134Y136963D01*
X60036Y136916D01*
X59940Y136865D01*
X59846Y136811D01*
X59754Y136754D01*
X59664Y136693D01*
X59576Y136629D01*
X59491Y136563D01*
X59408Y136493D01*
X59328Y136420D01*
X59250Y136344D01*
X59175Y136266D01*
X59103Y136185D01*
X59034Y136101D01*
X58968Y136015D01*
X58905Y135927D01*
X58846Y135836D01*
X58789Y135744D01*
X58736Y135649D01*
X58687Y135553D01*
X58641Y135454D01*
X58598Y135355D01*
X58559Y135253D01*
X58524Y135151D01*
X62961Y133062D02*
X63030Y133131D01*
X63096Y133202D01*
X63160Y133275D01*
X63221Y133351D01*
X63279Y133430D01*
X63333Y133510D01*
X63385Y133593D01*
X63433Y133677D01*
X63479Y133763D01*
X63520Y133851D01*
X63559Y133941D01*
X63594Y134032D01*
X63625Y134124D01*
X63653Y134217D01*
X63677Y134311D01*
X63697Y134406D01*
X63714Y134502D01*
X63727Y134599D01*
X63736Y134696D01*
X63742Y134793D01*
X63744Y134890D01*
X62961Y133062D02*
X58523Y127841D01*
X63744Y127841D01*
X67754Y131496D02*
X74020Y131496D01*
X77683Y137239D02*
X79771Y127841D01*
X81860Y134106D01*
X83948Y127841D01*
X86037Y137239D01*
X89974Y137239D02*
X89974Y127841D01*
X89974Y137239D02*
X92585Y137239D01*
X92686Y137237D01*
X92787Y137231D01*
X92888Y137221D01*
X92988Y137208D01*
X93088Y137190D01*
X93187Y137169D01*
X93285Y137143D01*
X93382Y137114D01*
X93478Y137082D01*
X93572Y137045D01*
X93665Y137005D01*
X93757Y136961D01*
X93846Y136914D01*
X93934Y136863D01*
X94020Y136809D01*
X94103Y136752D01*
X94185Y136692D01*
X94263Y136628D01*
X94340Y136562D01*
X94413Y136492D01*
X94484Y136420D01*
X94552Y136345D01*
X94617Y136267D01*
X94679Y136187D01*
X94738Y136105D01*
X94794Y136020D01*
X94846Y135933D01*
X94895Y135845D01*
X94941Y135754D01*
X94982Y135662D01*
X95021Y135568D01*
X95055Y135473D01*
X95086Y135377D01*
X95113Y135279D01*
X95137Y135181D01*
X95156Y135081D01*
X95172Y134981D01*
X95184Y134881D01*
X95192Y134780D01*
X95196Y134679D01*
X95196Y134577D01*
X95192Y134476D01*
X95184Y134375D01*
X95172Y134275D01*
X95156Y134175D01*
X95137Y134075D01*
X95113Y133977D01*
X95086Y133879D01*
X95055Y133783D01*
X95021Y133688D01*
X94982Y133594D01*
X94941Y133502D01*
X94895Y133411D01*
X94846Y133322D01*
X94794Y133236D01*
X94738Y133151D01*
X94679Y133069D01*
X94617Y132989D01*
X94552Y132911D01*
X94484Y132836D01*
X94413Y132764D01*
X94340Y132694D01*
X94263Y132628D01*
X94185Y132564D01*
X94103Y132504D01*
X94020Y132447D01*
X93934Y132393D01*
X93846Y132342D01*
X93757Y132295D01*
X93665Y132251D01*
X93572Y132211D01*
X93478Y132174D01*
X93382Y132142D01*
X93285Y132113D01*
X93187Y132087D01*
X93088Y132066D01*
X92988Y132048D01*
X92888Y132035D01*
X92787Y132025D01*
X92686Y132019D01*
X92585Y132017D01*
X92585Y132018D02*
X89974Y132018D01*
X93107Y132018D02*
X95195Y127841D01*
X99061Y130452D02*
X99061Y134628D01*
X99063Y134729D01*
X99069Y134830D01*
X99079Y134931D01*
X99092Y135031D01*
X99110Y135131D01*
X99131Y135230D01*
X99157Y135328D01*
X99186Y135425D01*
X99218Y135521D01*
X99255Y135615D01*
X99295Y135708D01*
X99339Y135800D01*
X99386Y135889D01*
X99437Y135977D01*
X99491Y136063D01*
X99548Y136146D01*
X99608Y136228D01*
X99672Y136306D01*
X99738Y136383D01*
X99808Y136456D01*
X99880Y136527D01*
X99955Y136595D01*
X100033Y136660D01*
X100113Y136722D01*
X100195Y136781D01*
X100280Y136837D01*
X100367Y136889D01*
X100455Y136938D01*
X100546Y136984D01*
X100638Y137025D01*
X100732Y137064D01*
X100827Y137098D01*
X100923Y137129D01*
X101021Y137156D01*
X101119Y137180D01*
X101219Y137199D01*
X101319Y137215D01*
X101419Y137227D01*
X101520Y137235D01*
X101621Y137239D01*
X101723Y137239D01*
X101824Y137235D01*
X101925Y137227D01*
X102025Y137215D01*
X102125Y137199D01*
X102225Y137180D01*
X102323Y137156D01*
X102421Y137129D01*
X102517Y137098D01*
X102612Y137064D01*
X102706Y137025D01*
X102798Y136984D01*
X102889Y136938D01*
X102978Y136889D01*
X103064Y136837D01*
X103149Y136781D01*
X103231Y136722D01*
X103311Y136660D01*
X103389Y136595D01*
X103464Y136527D01*
X103536Y136456D01*
X103606Y136383D01*
X103672Y136306D01*
X103736Y136228D01*
X103796Y136146D01*
X103853Y136063D01*
X103907Y135977D01*
X103958Y135889D01*
X104005Y135800D01*
X104049Y135708D01*
X104089Y135615D01*
X104126Y135521D01*
X104158Y135425D01*
X104187Y135328D01*
X104213Y135230D01*
X104234Y135131D01*
X104252Y135031D01*
X104265Y134931D01*
X104275Y134830D01*
X104281Y134729D01*
X104283Y134628D01*
X104282Y134628D02*
X104282Y130452D01*
X104283Y130452D02*
X104281Y130351D01*
X104275Y130250D01*
X104265Y130149D01*
X104252Y130049D01*
X104234Y129949D01*
X104213Y129850D01*
X104187Y129752D01*
X104158Y129655D01*
X104126Y129559D01*
X104089Y129465D01*
X104049Y129372D01*
X104005Y129280D01*
X103958Y129191D01*
X103907Y129103D01*
X103853Y129017D01*
X103796Y128934D01*
X103736Y128852D01*
X103672Y128774D01*
X103606Y128697D01*
X103536Y128624D01*
X103464Y128553D01*
X103389Y128485D01*
X103311Y128420D01*
X103231Y128358D01*
X103149Y128299D01*
X103064Y128243D01*
X102977Y128191D01*
X102889Y128142D01*
X102798Y128096D01*
X102706Y128055D01*
X102612Y128016D01*
X102517Y127982D01*
X102421Y127951D01*
X102323Y127924D01*
X102225Y127900D01*
X102125Y127881D01*
X102025Y127865D01*
X101925Y127853D01*
X101824Y127845D01*
X101723Y127841D01*
X101621Y127841D01*
X101520Y127845D01*
X101419Y127853D01*
X101319Y127865D01*
X101219Y127881D01*
X101119Y127900D01*
X101021Y127924D01*
X100923Y127951D01*
X100827Y127982D01*
X100732Y128016D01*
X100638Y128055D01*
X100546Y128096D01*
X100455Y128142D01*
X100367Y128191D01*
X100280Y128243D01*
X100195Y128299D01*
X100113Y128358D01*
X100033Y128420D01*
X99955Y128485D01*
X99880Y128553D01*
X99808Y128624D01*
X99738Y128697D01*
X99672Y128774D01*
X99608Y128852D01*
X99548Y128934D01*
X99491Y129017D01*
X99437Y129103D01*
X99386Y129191D01*
X99339Y129280D01*
X99295Y129372D01*
X99255Y129465D01*
X99218Y129559D01*
X99186Y129655D01*
X99157Y129752D01*
X99131Y129850D01*
X99110Y129949D01*
X99092Y130049D01*
X99079Y130149D01*
X99069Y130250D01*
X99063Y130351D01*
X99061Y130452D01*
X108205Y130452D02*
X108205Y134628D01*
X108207Y134729D01*
X108213Y134830D01*
X108223Y134931D01*
X108236Y135031D01*
X108254Y135131D01*
X108275Y135230D01*
X108301Y135328D01*
X108330Y135425D01*
X108362Y135521D01*
X108399Y135615D01*
X108439Y135708D01*
X108483Y135800D01*
X108530Y135889D01*
X108581Y135977D01*
X108635Y136063D01*
X108692Y136146D01*
X108752Y136228D01*
X108816Y136306D01*
X108882Y136383D01*
X108952Y136456D01*
X109024Y136527D01*
X109099Y136595D01*
X109177Y136660D01*
X109257Y136722D01*
X109339Y136781D01*
X109424Y136837D01*
X109511Y136889D01*
X109599Y136938D01*
X109690Y136984D01*
X109782Y137025D01*
X109876Y137064D01*
X109971Y137098D01*
X110067Y137129D01*
X110165Y137156D01*
X110263Y137180D01*
X110363Y137199D01*
X110463Y137215D01*
X110563Y137227D01*
X110664Y137235D01*
X110765Y137239D01*
X110867Y137239D01*
X110968Y137235D01*
X111069Y137227D01*
X111169Y137215D01*
X111269Y137199D01*
X111369Y137180D01*
X111467Y137156D01*
X111565Y137129D01*
X111661Y137098D01*
X111756Y137064D01*
X111850Y137025D01*
X111942Y136984D01*
X112033Y136938D01*
X112122Y136889D01*
X112208Y136837D01*
X112293Y136781D01*
X112375Y136722D01*
X112455Y136660D01*
X112533Y136595D01*
X112608Y136527D01*
X112680Y136456D01*
X112750Y136383D01*
X112816Y136306D01*
X112880Y136228D01*
X112940Y136146D01*
X112997Y136063D01*
X113051Y135977D01*
X113102Y135889D01*
X113149Y135800D01*
X113193Y135708D01*
X113233Y135615D01*
X113270Y135521D01*
X113302Y135425D01*
X113331Y135328D01*
X113357Y135230D01*
X113378Y135131D01*
X113396Y135031D01*
X113409Y134931D01*
X113419Y134830D01*
X113425Y134729D01*
X113427Y134628D01*
X113426Y134628D02*
X113426Y130452D01*
X113427Y130452D02*
X113425Y130351D01*
X113419Y130250D01*
X113409Y130149D01*
X113396Y130049D01*
X113378Y129949D01*
X113357Y129850D01*
X113331Y129752D01*
X113302Y129655D01*
X113270Y129559D01*
X113233Y129465D01*
X113193Y129372D01*
X113149Y129280D01*
X113102Y129191D01*
X113051Y129103D01*
X112997Y129017D01*
X112940Y128934D01*
X112880Y128852D01*
X112816Y128774D01*
X112750Y128697D01*
X112680Y128624D01*
X112608Y128553D01*
X112533Y128485D01*
X112455Y128420D01*
X112375Y128358D01*
X112293Y128299D01*
X112208Y128243D01*
X112121Y128191D01*
X112033Y128142D01*
X111942Y128096D01*
X111850Y128055D01*
X111756Y128016D01*
X111661Y127982D01*
X111565Y127951D01*
X111467Y127924D01*
X111369Y127900D01*
X111269Y127881D01*
X111169Y127865D01*
X111069Y127853D01*
X110968Y127845D01*
X110867Y127841D01*
X110765Y127841D01*
X110664Y127845D01*
X110563Y127853D01*
X110463Y127865D01*
X110363Y127881D01*
X110263Y127900D01*
X110165Y127924D01*
X110067Y127951D01*
X109971Y127982D01*
X109876Y128016D01*
X109782Y128055D01*
X109690Y128096D01*
X109599Y128142D01*
X109511Y128191D01*
X109424Y128243D01*
X109339Y128299D01*
X109257Y128358D01*
X109177Y128420D01*
X109099Y128485D01*
X109024Y128553D01*
X108952Y128624D01*
X108882Y128697D01*
X108816Y128774D01*
X108752Y128852D01*
X108692Y128934D01*
X108635Y129017D01*
X108581Y129103D01*
X108530Y129191D01*
X108483Y129280D01*
X108439Y129372D01*
X108399Y129465D01*
X108362Y129559D01*
X108330Y129655D01*
X108301Y129752D01*
X108275Y129850D01*
X108254Y129949D01*
X108236Y130049D01*
X108223Y130149D01*
X108213Y130250D01*
X108207Y130351D01*
X108205Y130452D01*
X117742Y127841D02*
X117742Y137239D01*
X120874Y132018D01*
X124007Y137239D01*
X124007Y127841D01*
X128409Y131496D02*
X134675Y131496D01*
X138685Y127841D02*
X141296Y127841D01*
X141397Y127843D01*
X141498Y127849D01*
X141599Y127859D01*
X141699Y127872D01*
X141799Y127890D01*
X141898Y127911D01*
X141996Y127937D01*
X142093Y127966D01*
X142189Y127998D01*
X142283Y128035D01*
X142376Y128075D01*
X142468Y128119D01*
X142557Y128166D01*
X142645Y128217D01*
X142731Y128271D01*
X142814Y128328D01*
X142896Y128388D01*
X142974Y128452D01*
X143051Y128518D01*
X143124Y128588D01*
X143195Y128660D01*
X143263Y128735D01*
X143328Y128813D01*
X143390Y128893D01*
X143449Y128975D01*
X143505Y129060D01*
X143557Y129146D01*
X143606Y129235D01*
X143652Y129326D01*
X143693Y129418D01*
X143732Y129512D01*
X143766Y129607D01*
X143797Y129703D01*
X143824Y129801D01*
X143848Y129899D01*
X143867Y129999D01*
X143883Y130099D01*
X143895Y130199D01*
X143903Y130300D01*
X143907Y130401D01*
X143907Y130503D01*
X143903Y130604D01*
X143895Y130705D01*
X143883Y130805D01*
X143867Y130905D01*
X143848Y131005D01*
X143824Y131103D01*
X143797Y131201D01*
X143766Y131297D01*
X143732Y131392D01*
X143693Y131486D01*
X143652Y131578D01*
X143606Y131669D01*
X143557Y131757D01*
X143505Y131844D01*
X143449Y131929D01*
X143390Y132011D01*
X143328Y132091D01*
X143263Y132169D01*
X143195Y132244D01*
X143124Y132316D01*
X143051Y132386D01*
X142974Y132452D01*
X142896Y132516D01*
X142814Y132576D01*
X142731Y132633D01*
X142645Y132687D01*
X142557Y132738D01*
X142468Y132785D01*
X142376Y132829D01*
X142283Y132869D01*
X142189Y132906D01*
X142093Y132938D01*
X141996Y132967D01*
X141898Y132993D01*
X141799Y133014D01*
X141699Y133032D01*
X141599Y133045D01*
X141498Y133055D01*
X141397Y133061D01*
X141296Y133063D01*
X141818Y137239D02*
X138685Y137239D01*
X141818Y137239D02*
X141908Y137237D01*
X141997Y137231D01*
X142087Y137222D01*
X142176Y137208D01*
X142264Y137191D01*
X142351Y137170D01*
X142438Y137145D01*
X142523Y137116D01*
X142607Y137084D01*
X142689Y137049D01*
X142770Y137009D01*
X142849Y136967D01*
X142926Y136921D01*
X143001Y136871D01*
X143074Y136819D01*
X143145Y136763D01*
X143213Y136705D01*
X143278Y136643D01*
X143341Y136579D01*
X143401Y136512D01*
X143458Y136443D01*
X143512Y136371D01*
X143563Y136297D01*
X143611Y136221D01*
X143655Y136143D01*
X143696Y136063D01*
X143734Y135981D01*
X143768Y135898D01*
X143798Y135813D01*
X143825Y135727D01*
X143848Y135641D01*
X143867Y135553D01*
X143882Y135464D01*
X143894Y135375D01*
X143902Y135286D01*
X143906Y135196D01*
X143906Y135106D01*
X143902Y135016D01*
X143894Y134927D01*
X143882Y134838D01*
X143867Y134749D01*
X143848Y134661D01*
X143825Y134575D01*
X143798Y134489D01*
X143768Y134404D01*
X143734Y134321D01*
X143696Y134239D01*
X143655Y134159D01*
X143611Y134081D01*
X143563Y134005D01*
X143512Y133931D01*
X143458Y133859D01*
X143401Y133790D01*
X143341Y133723D01*
X143278Y133659D01*
X143213Y133597D01*
X143145Y133539D01*
X143074Y133483D01*
X143001Y133431D01*
X142926Y133381D01*
X142849Y133335D01*
X142770Y133293D01*
X142689Y133253D01*
X142607Y133218D01*
X142523Y133186D01*
X142438Y133157D01*
X142351Y133132D01*
X142264Y133111D01*
X142176Y133094D01*
X142087Y133080D01*
X141997Y133071D01*
X141908Y133065D01*
X141818Y133063D01*
X141818Y133062D02*
X139729Y133062D01*
X150701Y137240D02*
X150796Y137238D01*
X150890Y137232D01*
X150984Y137223D01*
X151078Y137210D01*
X151171Y137193D01*
X151263Y137172D01*
X151355Y137147D01*
X151445Y137119D01*
X151534Y137087D01*
X151622Y137052D01*
X151708Y137013D01*
X151793Y136971D01*
X151876Y136925D01*
X151957Y136876D01*
X152036Y136824D01*
X152113Y136769D01*
X152187Y136710D01*
X152259Y136649D01*
X152329Y136585D01*
X152396Y136518D01*
X152460Y136448D01*
X152521Y136376D01*
X152580Y136302D01*
X152635Y136225D01*
X152687Y136146D01*
X152736Y136065D01*
X152782Y135982D01*
X152824Y135897D01*
X152863Y135811D01*
X152898Y135723D01*
X152930Y135634D01*
X152958Y135544D01*
X152983Y135452D01*
X153004Y135360D01*
X153021Y135267D01*
X153034Y135173D01*
X153043Y135079D01*
X153049Y134985D01*
X153051Y134890D01*
X150701Y137239D02*
X150593Y137237D01*
X150484Y137231D01*
X150376Y137221D01*
X150269Y137208D01*
X150162Y137190D01*
X150055Y137169D01*
X149950Y137144D01*
X149845Y137115D01*
X149742Y137083D01*
X149640Y137046D01*
X149539Y137006D01*
X149440Y136963D01*
X149342Y136916D01*
X149246Y136865D01*
X149152Y136811D01*
X149060Y136754D01*
X148970Y136693D01*
X148882Y136629D01*
X148797Y136563D01*
X148714Y136493D01*
X148634Y136420D01*
X148556Y136344D01*
X148481Y136266D01*
X148409Y136185D01*
X148340Y136101D01*
X148274Y136015D01*
X148211Y135927D01*
X148152Y135836D01*
X148095Y135744D01*
X148042Y135649D01*
X147993Y135553D01*
X147947Y135454D01*
X147904Y135355D01*
X147865Y135253D01*
X147830Y135151D01*
X152268Y133062D02*
X152337Y133131D01*
X152403Y133202D01*
X152467Y133275D01*
X152528Y133351D01*
X152586Y133430D01*
X152640Y133510D01*
X152692Y133593D01*
X152740Y133677D01*
X152786Y133763D01*
X152827Y133851D01*
X152866Y133941D01*
X152901Y134032D01*
X152932Y134124D01*
X152960Y134217D01*
X152984Y134311D01*
X153004Y134406D01*
X153021Y134502D01*
X153034Y134599D01*
X153043Y134696D01*
X153049Y134793D01*
X153051Y134890D01*
X152267Y133062D02*
X147829Y127841D01*
X153050Y127841D01*
X157278Y127841D02*
X157278Y137239D01*
X159888Y137239D01*
X159988Y137237D01*
X160088Y137231D01*
X160187Y137222D01*
X160287Y137208D01*
X160385Y137191D01*
X160483Y137170D01*
X160580Y137146D01*
X160676Y137117D01*
X160771Y137085D01*
X160864Y137050D01*
X160956Y137011D01*
X161047Y136968D01*
X161135Y136922D01*
X161222Y136872D01*
X161307Y136820D01*
X161390Y136764D01*
X161471Y136705D01*
X161549Y136642D01*
X161625Y136577D01*
X161699Y136509D01*
X161769Y136439D01*
X161837Y136365D01*
X161902Y136289D01*
X161965Y136211D01*
X162024Y136130D01*
X162080Y136047D01*
X162132Y135962D01*
X162182Y135875D01*
X162228Y135787D01*
X162271Y135696D01*
X162310Y135604D01*
X162345Y135511D01*
X162377Y135416D01*
X162406Y135320D01*
X162430Y135223D01*
X162451Y135125D01*
X162468Y135027D01*
X162482Y134927D01*
X162491Y134828D01*
X162497Y134728D01*
X162499Y134628D01*
X162499Y130452D01*
X162497Y130352D01*
X162491Y130252D01*
X162482Y130153D01*
X162468Y130053D01*
X162451Y129955D01*
X162430Y129857D01*
X162406Y129760D01*
X162377Y129664D01*
X162345Y129569D01*
X162310Y129476D01*
X162271Y129384D01*
X162228Y129293D01*
X162182Y129205D01*
X162132Y129118D01*
X162080Y129033D01*
X162024Y128950D01*
X161965Y128869D01*
X161902Y128791D01*
X161837Y128715D01*
X161769Y128641D01*
X161699Y128571D01*
X161625Y128503D01*
X161549Y128438D01*
X161471Y128375D01*
X161390Y128316D01*
X161307Y128260D01*
X161222Y128208D01*
X161135Y128158D01*
X161047Y128112D01*
X160956Y128069D01*
X160864Y128030D01*
X160771Y127995D01*
X160676Y127963D01*
X160580Y127934D01*
X160483Y127910D01*
X160385Y127889D01*
X160287Y127872D01*
X160187Y127858D01*
X160088Y127849D01*
X159988Y127843D01*
X159888Y127841D01*
X157278Y127841D01*
X165453Y12239D02*
X163407Y10602D01*
X165453Y12239D02*
X165453Y4873D01*
X163407Y4873D02*
X167499Y4873D01*
X28138Y4873D02*
X26092Y4873D01*
X28138Y4873D02*
X28227Y4875D01*
X28316Y4881D01*
X28405Y4891D01*
X28493Y4904D01*
X28581Y4921D01*
X28668Y4943D01*
X28753Y4968D01*
X28838Y4996D01*
X28921Y5029D01*
X29003Y5065D01*
X29083Y5104D01*
X29161Y5147D01*
X29237Y5193D01*
X29312Y5243D01*
X29384Y5296D01*
X29453Y5352D01*
X29520Y5411D01*
X29585Y5472D01*
X29646Y5537D01*
X29705Y5604D01*
X29761Y5673D01*
X29814Y5745D01*
X29864Y5820D01*
X29910Y5896D01*
X29953Y5974D01*
X29992Y6054D01*
X30028Y6136D01*
X30061Y6219D01*
X30089Y6304D01*
X30114Y6389D01*
X30136Y6476D01*
X30153Y6564D01*
X30166Y6652D01*
X30176Y6741D01*
X30182Y6830D01*
X30184Y6919D01*
X30182Y7008D01*
X30176Y7097D01*
X30166Y7186D01*
X30153Y7274D01*
X30136Y7362D01*
X30114Y7449D01*
X30089Y7534D01*
X30061Y7619D01*
X30028Y7702D01*
X29992Y7784D01*
X29953Y7864D01*
X29910Y7942D01*
X29864Y8018D01*
X29814Y8093D01*
X29761Y8165D01*
X29705Y8234D01*
X29646Y8301D01*
X29585Y8366D01*
X29520Y8427D01*
X29453Y8486D01*
X29384Y8542D01*
X29312Y8595D01*
X29237Y8645D01*
X29161Y8691D01*
X29083Y8734D01*
X29003Y8773D01*
X28921Y8809D01*
X28838Y8842D01*
X28753Y8870D01*
X28668Y8895D01*
X28581Y8917D01*
X28493Y8934D01*
X28405Y8947D01*
X28316Y8957D01*
X28227Y8963D01*
X28138Y8965D01*
X28547Y12239D02*
X26092Y12239D01*
X28547Y12239D02*
X28626Y12237D01*
X28705Y12231D01*
X28784Y12222D01*
X28862Y12209D01*
X28939Y12191D01*
X29015Y12171D01*
X29090Y12146D01*
X29164Y12118D01*
X29237Y12087D01*
X29308Y12051D01*
X29377Y12013D01*
X29444Y11971D01*
X29509Y11926D01*
X29572Y11878D01*
X29633Y11827D01*
X29690Y11773D01*
X29746Y11717D01*
X29798Y11658D01*
X29848Y11596D01*
X29894Y11532D01*
X29938Y11466D01*
X29978Y11398D01*
X30014Y11328D01*
X30048Y11256D01*
X30078Y11182D01*
X30104Y11108D01*
X30127Y11032D01*
X30145Y10955D01*
X30161Y10878D01*
X30172Y10799D01*
X30180Y10721D01*
X30184Y10642D01*
X30184Y10562D01*
X30180Y10483D01*
X30172Y10405D01*
X30161Y10326D01*
X30145Y10249D01*
X30127Y10172D01*
X30104Y10096D01*
X30078Y10022D01*
X30048Y9948D01*
X30014Y9876D01*
X29978Y9806D01*
X29938Y9738D01*
X29894Y9672D01*
X29848Y9608D01*
X29798Y9546D01*
X29746Y9487D01*
X29690Y9431D01*
X29633Y9377D01*
X29572Y9326D01*
X29509Y9278D01*
X29444Y9233D01*
X29377Y9191D01*
X29308Y9153D01*
X29237Y9117D01*
X29164Y9086D01*
X29090Y9058D01*
X29015Y9033D01*
X28939Y9013D01*
X28862Y8995D01*
X28784Y8982D01*
X28705Y8973D01*
X28626Y8967D01*
X28547Y8965D01*
X26910Y8965D01*
X33407Y6919D02*
X33409Y7008D01*
X33415Y7097D01*
X33425Y7186D01*
X33438Y7274D01*
X33455Y7362D01*
X33477Y7449D01*
X33502Y7534D01*
X33530Y7619D01*
X33563Y7702D01*
X33599Y7784D01*
X33638Y7864D01*
X33681Y7942D01*
X33727Y8018D01*
X33777Y8093D01*
X33830Y8165D01*
X33886Y8234D01*
X33945Y8301D01*
X34006Y8366D01*
X34071Y8427D01*
X34138Y8486D01*
X34207Y8542D01*
X34279Y8595D01*
X34354Y8645D01*
X34430Y8691D01*
X34508Y8734D01*
X34588Y8773D01*
X34670Y8809D01*
X34753Y8842D01*
X34838Y8870D01*
X34923Y8895D01*
X35010Y8917D01*
X35098Y8934D01*
X35186Y8947D01*
X35275Y8957D01*
X35364Y8963D01*
X35453Y8965D01*
X35542Y8963D01*
X35631Y8957D01*
X35720Y8947D01*
X35808Y8934D01*
X35896Y8917D01*
X35983Y8895D01*
X36068Y8870D01*
X36153Y8842D01*
X36236Y8809D01*
X36318Y8773D01*
X36398Y8734D01*
X36476Y8691D01*
X36552Y8645D01*
X36627Y8595D01*
X36699Y8542D01*
X36768Y8486D01*
X36835Y8427D01*
X36900Y8366D01*
X36961Y8301D01*
X37020Y8234D01*
X37076Y8165D01*
X37129Y8093D01*
X37179Y8018D01*
X37225Y7942D01*
X37268Y7864D01*
X37307Y7784D01*
X37343Y7702D01*
X37376Y7619D01*
X37404Y7534D01*
X37429Y7449D01*
X37451Y7362D01*
X37468Y7274D01*
X37481Y7186D01*
X37491Y7097D01*
X37497Y7008D01*
X37499Y6919D01*
X37497Y6830D01*
X37491Y6741D01*
X37481Y6652D01*
X37468Y6564D01*
X37451Y6476D01*
X37429Y6389D01*
X37404Y6304D01*
X37376Y6219D01*
X37343Y6136D01*
X37307Y6054D01*
X37268Y5974D01*
X37225Y5896D01*
X37179Y5820D01*
X37129Y5745D01*
X37076Y5673D01*
X37020Y5604D01*
X36961Y5537D01*
X36900Y5472D01*
X36835Y5411D01*
X36768Y5352D01*
X36699Y5296D01*
X36627Y5243D01*
X36552Y5193D01*
X36476Y5147D01*
X36398Y5104D01*
X36318Y5065D01*
X36236Y5029D01*
X36153Y4996D01*
X36068Y4968D01*
X35983Y4943D01*
X35896Y4921D01*
X35808Y4904D01*
X35720Y4891D01*
X35631Y4881D01*
X35542Y4875D01*
X35453Y4873D01*
X35364Y4875D01*
X35275Y4881D01*
X35186Y4891D01*
X35098Y4904D01*
X35010Y4921D01*
X34923Y4943D01*
X34838Y4968D01*
X34753Y4996D01*
X34670Y5029D01*
X34588Y5065D01*
X34508Y5104D01*
X34430Y5147D01*
X34354Y5193D01*
X34279Y5243D01*
X34207Y5296D01*
X34138Y5352D01*
X34071Y5411D01*
X34006Y5472D01*
X33945Y5537D01*
X33886Y5604D01*
X33830Y5673D01*
X33777Y5745D01*
X33727Y5820D01*
X33681Y5896D01*
X33638Y5974D01*
X33599Y6054D01*
X33563Y6136D01*
X33530Y6219D01*
X33502Y6304D01*
X33477Y6389D01*
X33455Y6476D01*
X33438Y6564D01*
X33425Y6652D01*
X33415Y6741D01*
X33409Y6830D01*
X33407Y6919D01*
X33816Y10602D02*
X33818Y10681D01*
X33824Y10760D01*
X33833Y10839D01*
X33846Y10917D01*
X33864Y10994D01*
X33884Y11070D01*
X33909Y11145D01*
X33937Y11219D01*
X33968Y11292D01*
X34004Y11363D01*
X34042Y11432D01*
X34084Y11499D01*
X34129Y11564D01*
X34177Y11627D01*
X34228Y11688D01*
X34282Y11745D01*
X34338Y11801D01*
X34397Y11853D01*
X34459Y11903D01*
X34523Y11949D01*
X34589Y11993D01*
X34657Y12033D01*
X34727Y12069D01*
X34799Y12103D01*
X34873Y12133D01*
X34947Y12159D01*
X35023Y12182D01*
X35100Y12200D01*
X35177Y12216D01*
X35256Y12227D01*
X35334Y12235D01*
X35413Y12239D01*
X35493Y12239D01*
X35572Y12235D01*
X35650Y12227D01*
X35729Y12216D01*
X35806Y12200D01*
X35883Y12182D01*
X35959Y12159D01*
X36033Y12133D01*
X36107Y12103D01*
X36179Y12069D01*
X36249Y12033D01*
X36317Y11993D01*
X36383Y11949D01*
X36447Y11903D01*
X36509Y11853D01*
X36568Y11801D01*
X36624Y11745D01*
X36678Y11688D01*
X36729Y11627D01*
X36777Y11564D01*
X36822Y11499D01*
X36864Y11432D01*
X36902Y11363D01*
X36938Y11292D01*
X36969Y11219D01*
X36997Y11145D01*
X37022Y11070D01*
X37042Y10994D01*
X37060Y10917D01*
X37073Y10839D01*
X37082Y10760D01*
X37088Y10681D01*
X37090Y10602D01*
X37088Y10523D01*
X37082Y10444D01*
X37073Y10365D01*
X37060Y10287D01*
X37042Y10210D01*
X37022Y10134D01*
X36997Y10059D01*
X36969Y9985D01*
X36938Y9912D01*
X36902Y9841D01*
X36864Y9772D01*
X36822Y9705D01*
X36777Y9640D01*
X36729Y9577D01*
X36678Y9516D01*
X36624Y9459D01*
X36568Y9403D01*
X36509Y9351D01*
X36447Y9301D01*
X36383Y9255D01*
X36317Y9211D01*
X36249Y9171D01*
X36179Y9135D01*
X36107Y9101D01*
X36033Y9071D01*
X35959Y9045D01*
X35883Y9022D01*
X35806Y9004D01*
X35729Y8988D01*
X35650Y8977D01*
X35572Y8969D01*
X35493Y8965D01*
X35413Y8965D01*
X35334Y8969D01*
X35256Y8977D01*
X35177Y8988D01*
X35100Y9004D01*
X35023Y9022D01*
X34947Y9045D01*
X34873Y9071D01*
X34799Y9101D01*
X34727Y9135D01*
X34657Y9171D01*
X34589Y9211D01*
X34523Y9255D01*
X34459Y9301D01*
X34397Y9351D01*
X34338Y9403D01*
X34282Y9459D01*
X34228Y9516D01*
X34177Y9577D01*
X34129Y9640D01*
X34084Y9705D01*
X34042Y9772D01*
X34004Y9841D01*
X33968Y9912D01*
X33937Y9985D01*
X33909Y10059D01*
X33884Y10134D01*
X33864Y10210D01*
X33846Y10287D01*
X33833Y10365D01*
X33824Y10444D01*
X33818Y10523D01*
X33816Y10602D01*
D11*
X152880Y-42380D02*
X152880Y-52380D01*
X157880Y-47380D01*
X152880Y-52380D02*
X147880Y-47380D01*
X32880Y-42380D02*
X32880Y-52380D01*
X37880Y-47380D01*
X32880Y-52380D02*
X27880Y-47380D01*
D12*
X35480Y-38862D02*
X39375Y-27178D01*
X43270Y-38862D01*
X42296Y-35941D02*
X36454Y-35941D01*
X47940Y-38862D02*
X47940Y-27178D01*
X54432Y-38862D01*
X54432Y-27178D01*
X62235Y-27178D02*
X62235Y-38862D01*
X58989Y-27178D02*
X65480Y-27178D01*
X70061Y-38862D02*
X75254Y-38862D01*
X70061Y-38862D02*
X70061Y-27178D01*
X75254Y-27178D01*
X73956Y-32371D02*
X70061Y-32371D01*
X79944Y-27178D02*
X79944Y-38862D01*
X86435Y-38862D02*
X79944Y-27178D01*
X86435Y-27178D02*
X86435Y-38862D01*
X92136Y-38862D02*
X92136Y-27178D01*
X98627Y-38862D01*
X98627Y-27178D01*
X107193Y-27178D02*
X103298Y-38862D01*
X111088Y-38862D02*
X107193Y-27178D01*
X110114Y-35941D02*
X104272Y-35941D01*
X121877Y-38862D02*
X127070Y-38862D01*
X121877Y-38862D02*
X121877Y-27178D01*
X127070Y-27178D01*
X125772Y-32371D02*
X121877Y-32371D01*
X131760Y-27178D02*
X131760Y-38862D01*
X131760Y-27178D02*
X135006Y-27178D01*
X135119Y-27180D01*
X135232Y-27186D01*
X135345Y-27196D01*
X135458Y-27210D01*
X135570Y-27227D01*
X135681Y-27249D01*
X135791Y-27274D01*
X135901Y-27304D01*
X136009Y-27337D01*
X136116Y-27374D01*
X136222Y-27414D01*
X136326Y-27459D01*
X136429Y-27507D01*
X136530Y-27558D01*
X136629Y-27613D01*
X136726Y-27671D01*
X136821Y-27733D01*
X136914Y-27798D01*
X137004Y-27866D01*
X137092Y-27937D01*
X137178Y-28012D01*
X137261Y-28089D01*
X137341Y-28169D01*
X137418Y-28252D01*
X137493Y-28338D01*
X137564Y-28426D01*
X137632Y-28516D01*
X137697Y-28609D01*
X137759Y-28704D01*
X137817Y-28801D01*
X137872Y-28900D01*
X137923Y-29001D01*
X137971Y-29104D01*
X138016Y-29208D01*
X138056Y-29314D01*
X138093Y-29421D01*
X138126Y-29529D01*
X138156Y-29639D01*
X138181Y-29749D01*
X138203Y-29860D01*
X138220Y-29972D01*
X138234Y-30085D01*
X138244Y-30198D01*
X138250Y-30311D01*
X138252Y-30424D01*
X138251Y-30424D02*
X138251Y-35616D01*
X138252Y-35616D02*
X138250Y-35729D01*
X138244Y-35842D01*
X138234Y-35955D01*
X138220Y-36068D01*
X138203Y-36180D01*
X138181Y-36291D01*
X138156Y-36401D01*
X138126Y-36511D01*
X138093Y-36619D01*
X138056Y-36726D01*
X138016Y-36832D01*
X137971Y-36936D01*
X137923Y-37039D01*
X137872Y-37140D01*
X137817Y-37239D01*
X137759Y-37336D01*
X137697Y-37431D01*
X137632Y-37524D01*
X137564Y-37614D01*
X137493Y-37702D01*
X137418Y-37788D01*
X137341Y-37871D01*
X137261Y-37951D01*
X137178Y-38028D01*
X137092Y-38103D01*
X137004Y-38174D01*
X136914Y-38242D01*
X136821Y-38307D01*
X136726Y-38369D01*
X136629Y-38427D01*
X136530Y-38482D01*
X136429Y-38533D01*
X136326Y-38581D01*
X136222Y-38626D01*
X136116Y-38666D01*
X136009Y-38703D01*
X135901Y-38736D01*
X135791Y-38766D01*
X135681Y-38791D01*
X135570Y-38813D01*
X135458Y-38830D01*
X135345Y-38844D01*
X135232Y-38854D01*
X135119Y-38860D01*
X135006Y-38862D01*
X131760Y-38862D01*
X148496Y-32371D02*
X150443Y-32371D01*
X150443Y-38862D01*
X146549Y-38862D01*
X146450Y-38860D01*
X146350Y-38854D01*
X146251Y-38845D01*
X146153Y-38832D01*
X146055Y-38815D01*
X145957Y-38794D01*
X145861Y-38769D01*
X145766Y-38741D01*
X145672Y-38709D01*
X145579Y-38674D01*
X145487Y-38635D01*
X145397Y-38592D01*
X145309Y-38547D01*
X145222Y-38497D01*
X145138Y-38445D01*
X145055Y-38389D01*
X144975Y-38331D01*
X144897Y-38269D01*
X144822Y-38204D01*
X144749Y-38136D01*
X144679Y-38066D01*
X144611Y-37993D01*
X144546Y-37918D01*
X144484Y-37840D01*
X144426Y-37760D01*
X144370Y-37677D01*
X144318Y-37593D01*
X144268Y-37506D01*
X144223Y-37418D01*
X144180Y-37328D01*
X144141Y-37236D01*
X144106Y-37143D01*
X144074Y-37049D01*
X144046Y-36954D01*
X144021Y-36858D01*
X144000Y-36760D01*
X143983Y-36662D01*
X143970Y-36564D01*
X143961Y-36465D01*
X143955Y-36365D01*
X143953Y-36266D01*
X143952Y-36266D02*
X143952Y-29774D01*
X143954Y-29675D01*
X143960Y-29575D01*
X143969Y-29476D01*
X143982Y-29378D01*
X144000Y-29280D01*
X144020Y-29182D01*
X144045Y-29086D01*
X144073Y-28990D01*
X144105Y-28896D01*
X144140Y-28803D01*
X144179Y-28712D01*
X144222Y-28622D01*
X144267Y-28533D01*
X144317Y-28447D01*
X144369Y-28362D01*
X144425Y-28280D01*
X144484Y-28200D01*
X144545Y-28122D01*
X144610Y-28046D01*
X144678Y-27973D01*
X144748Y-27903D01*
X144821Y-27835D01*
X144897Y-27770D01*
X144975Y-27709D01*
X145055Y-27650D01*
X145137Y-27594D01*
X145222Y-27542D01*
X145308Y-27493D01*
X145397Y-27447D01*
X145487Y-27404D01*
X145578Y-27365D01*
X145671Y-27330D01*
X145765Y-27298D01*
X145861Y-27270D01*
X145957Y-27245D01*
X146055Y-27225D01*
X146153Y-27207D01*
X146251Y-27194D01*
X146350Y-27185D01*
X146449Y-27179D01*
X146549Y-27177D01*
X146549Y-27178D02*
X150443Y-27178D01*
X156167Y-38862D02*
X161360Y-38862D01*
X156167Y-38862D02*
X156167Y-27178D01*
X161360Y-27178D01*
X160061Y-32371D02*
X156167Y-32371D01*
D17*
X108140Y260330D02*
X108140Y270330D01*
X98140Y270330D01*
X62140Y270330D02*
X52140Y270330D01*
X52140Y260330D01*
X52140Y224330D02*
X52140Y214330D01*
X62140Y214330D01*
X98140Y214330D02*
X108140Y214330D01*
X108140Y224330D01*
X103226Y217830D02*
X103228Y217905D01*
X103234Y217979D01*
X103244Y218053D01*
X103257Y218126D01*
X103275Y218199D01*
X103296Y218270D01*
X103321Y218341D01*
X103350Y218410D01*
X103383Y218477D01*
X103419Y218542D01*
X103458Y218606D01*
X103500Y218667D01*
X103546Y218726D01*
X103595Y218783D01*
X103647Y218836D01*
X103701Y218887D01*
X103758Y218936D01*
X103818Y218980D01*
X103880Y219022D01*
X103944Y219061D01*
X104010Y219096D01*
X104077Y219127D01*
X104147Y219155D01*
X104217Y219179D01*
X104289Y219200D01*
X104362Y219216D01*
X104435Y219229D01*
X104510Y219238D01*
X104584Y219243D01*
X104659Y219244D01*
X104733Y219241D01*
X104808Y219234D01*
X104881Y219223D01*
X104955Y219209D01*
X105027Y219190D01*
X105098Y219168D01*
X105168Y219142D01*
X105237Y219112D01*
X105303Y219079D01*
X105368Y219042D01*
X105431Y219002D01*
X105492Y218958D01*
X105550Y218912D01*
X105606Y218862D01*
X105659Y218810D01*
X105710Y218755D01*
X105757Y218697D01*
X105801Y218637D01*
X105842Y218574D01*
X105880Y218510D01*
X105914Y218444D01*
X105945Y218375D01*
X105972Y218306D01*
X105995Y218235D01*
X106014Y218163D01*
X106030Y218090D01*
X106042Y218016D01*
X106050Y217942D01*
X106054Y217867D01*
X106054Y217793D01*
X106050Y217718D01*
X106042Y217644D01*
X106030Y217570D01*
X106014Y217497D01*
X105995Y217425D01*
X105972Y217354D01*
X105945Y217285D01*
X105914Y217216D01*
X105880Y217150D01*
X105842Y217086D01*
X105801Y217023D01*
X105757Y216963D01*
X105710Y216905D01*
X105659Y216850D01*
X105606Y216798D01*
X105550Y216748D01*
X105492Y216702D01*
X105431Y216658D01*
X105368Y216618D01*
X105303Y216581D01*
X105237Y216548D01*
X105168Y216518D01*
X105098Y216492D01*
X105027Y216470D01*
X104955Y216451D01*
X104881Y216437D01*
X104808Y216426D01*
X104733Y216419D01*
X104659Y216416D01*
X104584Y216417D01*
X104510Y216422D01*
X104435Y216431D01*
X104362Y216444D01*
X104289Y216460D01*
X104217Y216481D01*
X104147Y216505D01*
X104077Y216533D01*
X104010Y216564D01*
X103944Y216599D01*
X103880Y216638D01*
X103818Y216680D01*
X103758Y216724D01*
X103701Y216773D01*
X103647Y216824D01*
X103595Y216877D01*
X103546Y216934D01*
X103500Y216993D01*
X103458Y217054D01*
X103419Y217118D01*
X103383Y217183D01*
X103350Y217250D01*
X103321Y217319D01*
X103296Y217390D01*
X103275Y217461D01*
X103257Y217534D01*
X103244Y217607D01*
X103234Y217681D01*
X103228Y217755D01*
X103226Y217830D01*
D16*
X130810Y238760D02*
X130812Y238831D01*
X130818Y238902D01*
X130828Y238973D01*
X130842Y239043D01*
X130860Y239112D01*
X130881Y239179D01*
X130907Y239246D01*
X130936Y239311D01*
X130968Y239374D01*
X131005Y239436D01*
X131044Y239495D01*
X131087Y239552D01*
X131133Y239606D01*
X131182Y239658D01*
X131234Y239707D01*
X131288Y239753D01*
X131345Y239796D01*
X131404Y239835D01*
X131466Y239872D01*
X131529Y239904D01*
X131594Y239933D01*
X131661Y239959D01*
X131728Y239980D01*
X131797Y239998D01*
X131867Y240012D01*
X131938Y240022D01*
X132009Y240028D01*
X132080Y240030D01*
X132151Y240028D01*
X132222Y240022D01*
X132293Y240012D01*
X132363Y239998D01*
X132432Y239980D01*
X132499Y239959D01*
X132566Y239933D01*
X132631Y239904D01*
X132694Y239872D01*
X132756Y239835D01*
X132815Y239796D01*
X132872Y239753D01*
X132926Y239707D01*
X132978Y239658D01*
X133027Y239606D01*
X133073Y239552D01*
X133116Y239495D01*
X133155Y239436D01*
X133192Y239374D01*
X133224Y239311D01*
X133253Y239246D01*
X133279Y239179D01*
X133300Y239112D01*
X133318Y239043D01*
X133332Y238973D01*
X133342Y238902D01*
X133348Y238831D01*
X133350Y238760D01*
X133348Y238689D01*
X133342Y238618D01*
X133332Y238547D01*
X133318Y238477D01*
X133300Y238408D01*
X133279Y238341D01*
X133253Y238274D01*
X133224Y238209D01*
X133192Y238146D01*
X133155Y238084D01*
X133116Y238025D01*
X133073Y237968D01*
X133027Y237914D01*
X132978Y237862D01*
X132926Y237813D01*
X132872Y237767D01*
X132815Y237724D01*
X132756Y237685D01*
X132694Y237648D01*
X132631Y237616D01*
X132566Y237587D01*
X132499Y237561D01*
X132432Y237540D01*
X132363Y237522D01*
X132293Y237508D01*
X132222Y237498D01*
X132151Y237492D01*
X132080Y237490D01*
X132009Y237492D01*
X131938Y237498D01*
X131867Y237508D01*
X131797Y237522D01*
X131728Y237540D01*
X131661Y237561D01*
X131594Y237587D01*
X131529Y237616D01*
X131466Y237648D01*
X131404Y237685D01*
X131345Y237724D01*
X131288Y237767D01*
X131234Y237813D01*
X131182Y237862D01*
X131133Y237914D01*
X131087Y237968D01*
X131044Y238025D01*
X131005Y238084D01*
X130968Y238146D01*
X130936Y238209D01*
X130907Y238274D01*
X130881Y238341D01*
X130860Y238408D01*
X130842Y238477D01*
X130828Y238547D01*
X130818Y238618D01*
X130812Y238689D01*
X130810Y238760D01*
D10*
X144018Y212344D02*
X148054Y212344D01*
X148131Y212346D01*
X148209Y212352D01*
X148285Y212361D01*
X148362Y212375D01*
X148437Y212392D01*
X148511Y212413D01*
X148585Y212438D01*
X148657Y212466D01*
X148727Y212498D01*
X148796Y212533D01*
X148863Y212572D01*
X148928Y212614D01*
X148991Y212659D01*
X149052Y212707D01*
X149110Y212758D01*
X149165Y212812D01*
X149218Y212869D01*
X149267Y212928D01*
X149314Y212990D01*
X149358Y213054D01*
X149398Y213120D01*
X149435Y213188D01*
X149469Y213258D01*
X149499Y213329D01*
X149525Y213402D01*
X149548Y213476D01*
X149567Y213551D01*
X149582Y213626D01*
X149594Y213703D01*
X149602Y213780D01*
X149606Y213857D01*
X149606Y213935D01*
X149602Y214012D01*
X149594Y214089D01*
X149582Y214166D01*
X149567Y214241D01*
X149548Y214316D01*
X149525Y214390D01*
X149499Y214463D01*
X149469Y214534D01*
X149435Y214604D01*
X149398Y214672D01*
X149358Y214738D01*
X149314Y214802D01*
X149267Y214864D01*
X149218Y214923D01*
X149165Y214980D01*
X149110Y215034D01*
X149052Y215085D01*
X148991Y215133D01*
X148928Y215178D01*
X148863Y215220D01*
X148796Y215259D01*
X148727Y215294D01*
X148657Y215326D01*
X148585Y215354D01*
X148511Y215379D01*
X148437Y215400D01*
X148362Y215417D01*
X148285Y215431D01*
X148209Y215440D01*
X148131Y215446D01*
X148054Y215448D01*
X144018Y215448D01*
X144018Y218251D02*
X149606Y218251D01*
X147122Y220114D02*
X144018Y218251D01*
X147122Y220114D02*
X144018Y221977D01*
X149606Y221977D01*
X149606Y224780D02*
X144018Y224780D01*
X146502Y224780D02*
X146502Y227884D01*
X144018Y227884D02*
X149606Y227884D01*
X149606Y230449D02*
X149606Y232001D01*
X149604Y232078D01*
X149598Y232156D01*
X149589Y232232D01*
X149575Y232309D01*
X149558Y232384D01*
X149537Y232458D01*
X149512Y232532D01*
X149484Y232604D01*
X149452Y232674D01*
X149417Y232743D01*
X149378Y232810D01*
X149336Y232875D01*
X149291Y232938D01*
X149243Y232999D01*
X149192Y233057D01*
X149138Y233112D01*
X149081Y233165D01*
X149022Y233214D01*
X148960Y233261D01*
X148896Y233305D01*
X148830Y233345D01*
X148762Y233382D01*
X148692Y233416D01*
X148621Y233446D01*
X148548Y233472D01*
X148474Y233495D01*
X148399Y233514D01*
X148324Y233529D01*
X148247Y233541D01*
X148170Y233549D01*
X148093Y233553D01*
X148015Y233553D01*
X147938Y233549D01*
X147861Y233541D01*
X147784Y233529D01*
X147709Y233514D01*
X147634Y233495D01*
X147560Y233472D01*
X147487Y233446D01*
X147416Y233416D01*
X147346Y233382D01*
X147278Y233345D01*
X147212Y233305D01*
X147148Y233261D01*
X147086Y233214D01*
X147027Y233165D01*
X146970Y233112D01*
X146916Y233057D01*
X146865Y232999D01*
X146817Y232938D01*
X146772Y232875D01*
X146730Y232810D01*
X146691Y232743D01*
X146656Y232674D01*
X146624Y232604D01*
X146596Y232532D01*
X146571Y232458D01*
X146550Y232384D01*
X146533Y232309D01*
X146519Y232232D01*
X146510Y232156D01*
X146504Y232078D01*
X146502Y232001D01*
X144018Y232312D02*
X144018Y230449D01*
X144018Y232312D02*
X144020Y232382D01*
X144026Y232451D01*
X144036Y232520D01*
X144049Y232588D01*
X144067Y232656D01*
X144088Y232722D01*
X144113Y232787D01*
X144141Y232851D01*
X144173Y232913D01*
X144208Y232973D01*
X144247Y233031D01*
X144289Y233086D01*
X144334Y233140D01*
X144382Y233190D01*
X144432Y233238D01*
X144486Y233283D01*
X144541Y233325D01*
X144599Y233364D01*
X144659Y233399D01*
X144721Y233431D01*
X144785Y233459D01*
X144850Y233484D01*
X144916Y233505D01*
X144984Y233523D01*
X145052Y233536D01*
X145121Y233546D01*
X145190Y233552D01*
X145260Y233554D01*
X145330Y233552D01*
X145399Y233546D01*
X145468Y233536D01*
X145536Y233523D01*
X145604Y233505D01*
X145670Y233484D01*
X145735Y233459D01*
X145799Y233431D01*
X145861Y233399D01*
X145921Y233364D01*
X145979Y233325D01*
X146034Y233283D01*
X146088Y233238D01*
X146138Y233190D01*
X146186Y233140D01*
X146231Y233086D01*
X146273Y233031D01*
X146312Y232973D01*
X146347Y232913D01*
X146379Y232851D01*
X146407Y232787D01*
X146432Y232722D01*
X146453Y232656D01*
X146471Y232588D01*
X146484Y232520D01*
X146494Y232451D01*
X146500Y232382D01*
X146502Y232312D01*
X146502Y231070D01*
X144018Y236118D02*
X149606Y236118D01*
X149606Y239223D02*
X144018Y236118D01*
X144018Y239223D02*
X149606Y239223D01*
D11*
X259670Y187370D02*
X259670Y173370D01*
X259670Y187370D02*
X282670Y187370D01*
X282670Y173370D01*
X259670Y173370D01*
X254256Y163370D02*
X254258Y163445D01*
X254264Y163519D01*
X254274Y163593D01*
X254287Y163666D01*
X254305Y163739D01*
X254326Y163810D01*
X254351Y163881D01*
X254380Y163950D01*
X254413Y164017D01*
X254449Y164082D01*
X254488Y164146D01*
X254530Y164207D01*
X254576Y164266D01*
X254625Y164323D01*
X254677Y164376D01*
X254731Y164427D01*
X254788Y164476D01*
X254848Y164520D01*
X254910Y164562D01*
X254974Y164601D01*
X255040Y164636D01*
X255107Y164667D01*
X255177Y164695D01*
X255247Y164719D01*
X255319Y164740D01*
X255392Y164756D01*
X255465Y164769D01*
X255540Y164778D01*
X255614Y164783D01*
X255689Y164784D01*
X255763Y164781D01*
X255838Y164774D01*
X255911Y164763D01*
X255985Y164749D01*
X256057Y164730D01*
X256128Y164708D01*
X256198Y164682D01*
X256267Y164652D01*
X256333Y164619D01*
X256398Y164582D01*
X256461Y164542D01*
X256522Y164498D01*
X256580Y164452D01*
X256636Y164402D01*
X256689Y164350D01*
X256740Y164295D01*
X256787Y164237D01*
X256831Y164177D01*
X256872Y164114D01*
X256910Y164050D01*
X256944Y163984D01*
X256975Y163915D01*
X257002Y163846D01*
X257025Y163775D01*
X257044Y163703D01*
X257060Y163630D01*
X257072Y163556D01*
X257080Y163482D01*
X257084Y163407D01*
X257084Y163333D01*
X257080Y163258D01*
X257072Y163184D01*
X257060Y163110D01*
X257044Y163037D01*
X257025Y162965D01*
X257002Y162894D01*
X256975Y162825D01*
X256944Y162756D01*
X256910Y162690D01*
X256872Y162626D01*
X256831Y162563D01*
X256787Y162503D01*
X256740Y162445D01*
X256689Y162390D01*
X256636Y162338D01*
X256580Y162288D01*
X256522Y162242D01*
X256461Y162198D01*
X256398Y162158D01*
X256333Y162121D01*
X256267Y162088D01*
X256198Y162058D01*
X256128Y162032D01*
X256057Y162010D01*
X255985Y161991D01*
X255911Y161977D01*
X255838Y161966D01*
X255763Y161959D01*
X255689Y161956D01*
X255614Y161957D01*
X255540Y161962D01*
X255465Y161971D01*
X255392Y161984D01*
X255319Y162000D01*
X255247Y162021D01*
X255177Y162045D01*
X255107Y162073D01*
X255040Y162104D01*
X254974Y162139D01*
X254910Y162178D01*
X254848Y162220D01*
X254788Y162264D01*
X254731Y162313D01*
X254677Y162364D01*
X254625Y162417D01*
X254576Y162474D01*
X254530Y162533D01*
X254488Y162594D01*
X254449Y162658D01*
X254413Y162723D01*
X254380Y162790D01*
X254351Y162859D01*
X254326Y162930D01*
X254305Y163001D01*
X254287Y163074D01*
X254274Y163147D01*
X254264Y163221D01*
X254258Y163295D01*
X254256Y163370D01*
D15*
X256665Y178623D02*
X256665Y182433D01*
X257935Y180316D01*
X259205Y182433D01*
X259205Y178623D01*
X261738Y178623D02*
X262584Y178623D01*
X261738Y178623D02*
X261683Y178625D01*
X261627Y178630D01*
X261573Y178639D01*
X261519Y178652D01*
X261466Y178668D01*
X261414Y178687D01*
X261363Y178710D01*
X261315Y178736D01*
X261267Y178766D01*
X261222Y178798D01*
X261180Y178833D01*
X261139Y178871D01*
X261101Y178912D01*
X261066Y178954D01*
X261034Y178999D01*
X261004Y179047D01*
X260978Y179095D01*
X260955Y179146D01*
X260936Y179198D01*
X260920Y179251D01*
X260907Y179305D01*
X260898Y179359D01*
X260893Y179415D01*
X260891Y179470D01*
X260891Y181586D01*
X260893Y181644D01*
X260899Y181701D01*
X260909Y181758D01*
X260922Y181815D01*
X260940Y181870D01*
X260961Y181923D01*
X260986Y181976D01*
X261014Y182026D01*
X261046Y182074D01*
X261081Y182121D01*
X261119Y182164D01*
X261160Y182205D01*
X261203Y182243D01*
X261250Y182278D01*
X261298Y182310D01*
X261348Y182338D01*
X261401Y182363D01*
X261454Y182384D01*
X261509Y182402D01*
X261566Y182415D01*
X261623Y182425D01*
X261680Y182431D01*
X261738Y182433D01*
X262584Y182433D01*
X264119Y182433D02*
X264119Y178623D01*
X264119Y182433D02*
X265177Y182433D01*
X265241Y182431D01*
X265305Y182425D01*
X265368Y182416D01*
X265430Y182402D01*
X265492Y182385D01*
X265552Y182364D01*
X265611Y182340D01*
X265669Y182312D01*
X265724Y182280D01*
X265778Y182246D01*
X265829Y182208D01*
X265879Y182167D01*
X265925Y182123D01*
X265969Y182077D01*
X266010Y182027D01*
X266048Y181976D01*
X266082Y181922D01*
X266114Y181867D01*
X266142Y181809D01*
X266166Y181750D01*
X266187Y181690D01*
X266204Y181628D01*
X266218Y181566D01*
X266227Y181503D01*
X266233Y181439D01*
X266235Y181375D01*
X266233Y181311D01*
X266227Y181247D01*
X266218Y181184D01*
X266204Y181122D01*
X266187Y181060D01*
X266166Y181000D01*
X266142Y180941D01*
X266114Y180883D01*
X266082Y180828D01*
X266048Y180774D01*
X266010Y180723D01*
X265969Y180673D01*
X265925Y180627D01*
X265879Y180583D01*
X265829Y180542D01*
X265778Y180504D01*
X265724Y180470D01*
X265669Y180438D01*
X265611Y180410D01*
X265552Y180386D01*
X265492Y180365D01*
X265430Y180348D01*
X265368Y180334D01*
X265305Y180325D01*
X265241Y180319D01*
X265177Y180317D01*
X265177Y180316D02*
X264119Y180316D01*
X267606Y182010D02*
X267606Y182433D01*
X269723Y182433D01*
X268664Y178623D01*
X271264Y178623D02*
X272322Y178623D01*
X272386Y178625D01*
X272450Y178631D01*
X272513Y178640D01*
X272575Y178654D01*
X272637Y178671D01*
X272697Y178692D01*
X272756Y178716D01*
X272814Y178744D01*
X272869Y178776D01*
X272923Y178810D01*
X272974Y178848D01*
X273024Y178889D01*
X273070Y178933D01*
X273114Y178979D01*
X273155Y179029D01*
X273193Y179080D01*
X273227Y179134D01*
X273259Y179189D01*
X273287Y179247D01*
X273311Y179306D01*
X273332Y179366D01*
X273349Y179428D01*
X273363Y179490D01*
X273372Y179553D01*
X273378Y179617D01*
X273380Y179681D01*
X273378Y179745D01*
X273372Y179809D01*
X273363Y179872D01*
X273349Y179934D01*
X273332Y179996D01*
X273311Y180056D01*
X273287Y180115D01*
X273259Y180173D01*
X273227Y180228D01*
X273193Y180282D01*
X273155Y180333D01*
X273114Y180383D01*
X273070Y180429D01*
X273024Y180473D01*
X272974Y180514D01*
X272923Y180552D01*
X272869Y180586D01*
X272814Y180618D01*
X272756Y180646D01*
X272697Y180670D01*
X272637Y180691D01*
X272575Y180708D01*
X272513Y180722D01*
X272450Y180731D01*
X272386Y180737D01*
X272322Y180739D01*
X272534Y182433D02*
X271264Y182433D01*
X272534Y182433D02*
X272591Y182431D01*
X272647Y182425D01*
X272703Y182416D01*
X272758Y182403D01*
X272812Y182386D01*
X272865Y182366D01*
X272916Y182342D01*
X272966Y182315D01*
X273013Y182284D01*
X273059Y182251D01*
X273102Y182214D01*
X273143Y182175D01*
X273181Y182133D01*
X273216Y182088D01*
X273248Y182042D01*
X273277Y181993D01*
X273302Y181943D01*
X273324Y181890D01*
X273343Y181837D01*
X273358Y181782D01*
X273369Y181727D01*
X273377Y181671D01*
X273381Y181614D01*
X273381Y181558D01*
X273377Y181501D01*
X273369Y181445D01*
X273358Y181390D01*
X273343Y181335D01*
X273324Y181282D01*
X273302Y181229D01*
X273277Y181179D01*
X273248Y181130D01*
X273216Y181084D01*
X273181Y181039D01*
X273143Y180997D01*
X273102Y180958D01*
X273059Y180921D01*
X273013Y180888D01*
X272966Y180857D01*
X272916Y180830D01*
X272865Y180806D01*
X272812Y180786D01*
X272758Y180769D01*
X272703Y180756D01*
X272647Y180747D01*
X272591Y180741D01*
X272534Y180739D01*
X272534Y180740D02*
X271687Y180740D01*
X274921Y179681D02*
X274923Y179745D01*
X274929Y179809D01*
X274938Y179872D01*
X274952Y179934D01*
X274969Y179996D01*
X274990Y180056D01*
X275014Y180115D01*
X275042Y180173D01*
X275074Y180228D01*
X275108Y180282D01*
X275146Y180333D01*
X275187Y180383D01*
X275231Y180429D01*
X275277Y180473D01*
X275327Y180514D01*
X275378Y180552D01*
X275432Y180586D01*
X275487Y180618D01*
X275545Y180646D01*
X275604Y180670D01*
X275664Y180691D01*
X275726Y180708D01*
X275788Y180722D01*
X275851Y180731D01*
X275915Y180737D01*
X275979Y180739D01*
X276043Y180737D01*
X276107Y180731D01*
X276170Y180722D01*
X276232Y180708D01*
X276294Y180691D01*
X276354Y180670D01*
X276413Y180646D01*
X276471Y180618D01*
X276526Y180586D01*
X276580Y180552D01*
X276631Y180514D01*
X276681Y180473D01*
X276727Y180429D01*
X276771Y180383D01*
X276812Y180333D01*
X276850Y180282D01*
X276884Y180228D01*
X276916Y180173D01*
X276944Y180115D01*
X276968Y180056D01*
X276989Y179996D01*
X277006Y179934D01*
X277020Y179872D01*
X277029Y179809D01*
X277035Y179745D01*
X277037Y179681D01*
X277035Y179617D01*
X277029Y179553D01*
X277020Y179490D01*
X277006Y179428D01*
X276989Y179366D01*
X276968Y179306D01*
X276944Y179247D01*
X276916Y179189D01*
X276884Y179134D01*
X276850Y179080D01*
X276812Y179029D01*
X276771Y178979D01*
X276727Y178933D01*
X276681Y178889D01*
X276631Y178848D01*
X276580Y178810D01*
X276526Y178776D01*
X276471Y178744D01*
X276413Y178716D01*
X276354Y178692D01*
X276294Y178671D01*
X276232Y178654D01*
X276170Y178640D01*
X276107Y178631D01*
X276043Y178625D01*
X275979Y178623D01*
X275915Y178625D01*
X275851Y178631D01*
X275788Y178640D01*
X275726Y178654D01*
X275664Y178671D01*
X275604Y178692D01*
X275545Y178716D01*
X275487Y178744D01*
X275432Y178776D01*
X275378Y178810D01*
X275327Y178848D01*
X275277Y178889D01*
X275231Y178933D01*
X275187Y178979D01*
X275146Y179029D01*
X275108Y179080D01*
X275074Y179134D01*
X275042Y179189D01*
X275014Y179247D01*
X274990Y179306D01*
X274969Y179366D01*
X274952Y179428D01*
X274938Y179490D01*
X274929Y179553D01*
X274923Y179617D01*
X274921Y179681D01*
X275132Y181586D02*
X275134Y181643D01*
X275140Y181699D01*
X275149Y181755D01*
X275162Y181810D01*
X275179Y181864D01*
X275199Y181917D01*
X275223Y181968D01*
X275250Y182018D01*
X275281Y182065D01*
X275314Y182111D01*
X275351Y182154D01*
X275390Y182195D01*
X275432Y182233D01*
X275477Y182268D01*
X275523Y182300D01*
X275572Y182329D01*
X275622Y182354D01*
X275675Y182376D01*
X275728Y182395D01*
X275783Y182410D01*
X275838Y182421D01*
X275894Y182429D01*
X275951Y182433D01*
X276007Y182433D01*
X276064Y182429D01*
X276120Y182421D01*
X276175Y182410D01*
X276230Y182395D01*
X276283Y182376D01*
X276336Y182354D01*
X276386Y182329D01*
X276435Y182300D01*
X276481Y182268D01*
X276526Y182233D01*
X276568Y182195D01*
X276607Y182154D01*
X276644Y182111D01*
X276677Y182065D01*
X276708Y182018D01*
X276735Y181968D01*
X276759Y181917D01*
X276779Y181864D01*
X276796Y181810D01*
X276809Y181755D01*
X276818Y181699D01*
X276824Y181643D01*
X276826Y181586D01*
X276824Y181529D01*
X276818Y181473D01*
X276809Y181417D01*
X276796Y181362D01*
X276779Y181308D01*
X276759Y181255D01*
X276735Y181204D01*
X276708Y181154D01*
X276677Y181107D01*
X276644Y181061D01*
X276607Y181018D01*
X276568Y180977D01*
X276526Y180939D01*
X276481Y180904D01*
X276435Y180872D01*
X276386Y180843D01*
X276336Y180818D01*
X276283Y180796D01*
X276230Y180777D01*
X276175Y180762D01*
X276120Y180751D01*
X276064Y180743D01*
X276007Y180739D01*
X275951Y180739D01*
X275894Y180743D01*
X275838Y180751D01*
X275783Y180762D01*
X275728Y180777D01*
X275675Y180796D01*
X275622Y180818D01*
X275572Y180843D01*
X275523Y180872D01*
X275477Y180904D01*
X275432Y180939D01*
X275390Y180977D01*
X275351Y181018D01*
X275314Y181061D01*
X275281Y181107D01*
X275250Y181154D01*
X275223Y181204D01*
X275199Y181255D01*
X275179Y181308D01*
X275162Y181362D01*
X275149Y181417D01*
X275140Y181473D01*
X275134Y181529D01*
X275132Y181586D01*
X278579Y178623D02*
X279637Y178623D01*
X279701Y178625D01*
X279765Y178631D01*
X279828Y178640D01*
X279890Y178654D01*
X279952Y178671D01*
X280012Y178692D01*
X280071Y178716D01*
X280129Y178744D01*
X280184Y178776D01*
X280238Y178810D01*
X280289Y178848D01*
X280339Y178889D01*
X280385Y178933D01*
X280429Y178979D01*
X280470Y179029D01*
X280508Y179080D01*
X280542Y179134D01*
X280574Y179189D01*
X280602Y179247D01*
X280626Y179306D01*
X280647Y179366D01*
X280664Y179428D01*
X280678Y179490D01*
X280687Y179553D01*
X280693Y179617D01*
X280695Y179681D01*
X280693Y179745D01*
X280687Y179809D01*
X280678Y179872D01*
X280664Y179934D01*
X280647Y179996D01*
X280626Y180056D01*
X280602Y180115D01*
X280574Y180173D01*
X280542Y180228D01*
X280508Y180282D01*
X280470Y180333D01*
X280429Y180383D01*
X280385Y180429D01*
X280339Y180473D01*
X280289Y180514D01*
X280238Y180552D01*
X280184Y180586D01*
X280129Y180618D01*
X280071Y180646D01*
X280012Y180670D01*
X279952Y180691D01*
X279890Y180708D01*
X279828Y180722D01*
X279765Y180731D01*
X279701Y180737D01*
X279637Y180739D01*
X279849Y182433D02*
X278579Y182433D01*
X279849Y182433D02*
X279906Y182431D01*
X279962Y182425D01*
X280018Y182416D01*
X280073Y182403D01*
X280127Y182386D01*
X280180Y182366D01*
X280231Y182342D01*
X280281Y182315D01*
X280328Y182284D01*
X280374Y182251D01*
X280417Y182214D01*
X280458Y182175D01*
X280496Y182133D01*
X280531Y182088D01*
X280563Y182042D01*
X280592Y181993D01*
X280617Y181943D01*
X280639Y181890D01*
X280658Y181837D01*
X280673Y181782D01*
X280684Y181727D01*
X280692Y181671D01*
X280696Y181614D01*
X280696Y181558D01*
X280692Y181501D01*
X280684Y181445D01*
X280673Y181390D01*
X280658Y181335D01*
X280639Y181282D01*
X280617Y181229D01*
X280592Y181179D01*
X280563Y181130D01*
X280531Y181084D01*
X280496Y181039D01*
X280458Y180997D01*
X280417Y180958D01*
X280374Y180921D01*
X280328Y180888D01*
X280281Y180857D01*
X280231Y180830D01*
X280180Y180806D01*
X280127Y180786D01*
X280073Y180769D01*
X280018Y180756D01*
X279962Y180747D01*
X279906Y180741D01*
X279849Y180739D01*
X279849Y180740D02*
X279002Y180740D01*
X282236Y181586D02*
X283295Y182433D01*
X283295Y178623D01*
X284353Y178623D02*
X282236Y178623D01*
D11*
X384150Y135170D02*
X384650Y135170D01*
X378150Y135170D02*
X377650Y135170D01*
X377650Y156170D02*
X378150Y156170D01*
X384150Y156170D02*
X384650Y156170D01*
X391650Y156170D02*
X391650Y135170D01*
X370650Y134670D02*
X370650Y155670D01*
X386532Y158670D02*
X386534Y158736D01*
X386540Y158802D01*
X386550Y158868D01*
X386563Y158933D01*
X386581Y158997D01*
X386602Y159059D01*
X386627Y159121D01*
X386655Y159181D01*
X386687Y159239D01*
X386723Y159295D01*
X386761Y159348D01*
X386803Y159400D01*
X386848Y159449D01*
X386895Y159495D01*
X386946Y159538D01*
X386998Y159578D01*
X387053Y159615D01*
X387110Y159649D01*
X387169Y159679D01*
X387230Y159706D01*
X387292Y159729D01*
X387355Y159748D01*
X387420Y159764D01*
X387485Y159776D01*
X387551Y159784D01*
X387617Y159788D01*
X387683Y159788D01*
X387749Y159784D01*
X387815Y159776D01*
X387880Y159764D01*
X387945Y159748D01*
X388008Y159729D01*
X388070Y159706D01*
X388131Y159679D01*
X388190Y159649D01*
X388247Y159615D01*
X388302Y159578D01*
X388354Y159538D01*
X388405Y159495D01*
X388452Y159449D01*
X388497Y159400D01*
X388539Y159348D01*
X388577Y159295D01*
X388613Y159239D01*
X388645Y159181D01*
X388673Y159121D01*
X388698Y159059D01*
X388719Y158997D01*
X388737Y158933D01*
X388750Y158868D01*
X388760Y158802D01*
X388766Y158736D01*
X388768Y158670D01*
X388766Y158604D01*
X388760Y158538D01*
X388750Y158472D01*
X388737Y158407D01*
X388719Y158343D01*
X388698Y158281D01*
X388673Y158219D01*
X388645Y158159D01*
X388613Y158101D01*
X388577Y158045D01*
X388539Y157992D01*
X388497Y157940D01*
X388452Y157891D01*
X388405Y157845D01*
X388354Y157802D01*
X388302Y157762D01*
X388247Y157725D01*
X388190Y157691D01*
X388131Y157661D01*
X388070Y157634D01*
X388008Y157611D01*
X387945Y157592D01*
X387880Y157576D01*
X387815Y157564D01*
X387749Y157556D01*
X387683Y157552D01*
X387617Y157552D01*
X387551Y157556D01*
X387485Y157564D01*
X387420Y157576D01*
X387355Y157592D01*
X387292Y157611D01*
X387230Y157634D01*
X387169Y157661D01*
X387110Y157691D01*
X387053Y157725D01*
X386998Y157762D01*
X386946Y157802D01*
X386895Y157845D01*
X386848Y157891D01*
X386803Y157940D01*
X386761Y157992D01*
X386723Y158045D01*
X386687Y158101D01*
X386655Y158159D01*
X386627Y158219D01*
X386602Y158281D01*
X386581Y158343D01*
X386563Y158407D01*
X386550Y158472D01*
X386540Y158538D01*
X386534Y158604D01*
X386532Y158670D01*
X390650Y156170D02*
X391650Y156170D01*
X391650Y135170D02*
X390650Y135170D01*
X371650Y155670D02*
X370650Y155670D01*
X370650Y134670D02*
X371650Y134670D01*
D16*
X376426Y236055D02*
X377653Y236055D01*
X377653Y231963D01*
X375198Y231963D01*
X375120Y231965D01*
X375042Y231970D01*
X374965Y231980D01*
X374888Y231993D01*
X374812Y232009D01*
X374737Y232029D01*
X374663Y232053D01*
X374590Y232080D01*
X374518Y232111D01*
X374448Y232145D01*
X374380Y232182D01*
X374313Y232223D01*
X374248Y232267D01*
X374186Y232313D01*
X374126Y232363D01*
X374068Y232415D01*
X374013Y232470D01*
X373961Y232528D01*
X373911Y232588D01*
X373865Y232650D01*
X373821Y232715D01*
X373780Y232782D01*
X373743Y232850D01*
X373709Y232920D01*
X373678Y232992D01*
X373651Y233065D01*
X373627Y233139D01*
X373607Y233214D01*
X373591Y233290D01*
X373578Y233367D01*
X373568Y233444D01*
X373563Y233522D01*
X373561Y233600D01*
X373561Y237692D01*
X373563Y237772D01*
X373569Y237852D01*
X373579Y237932D01*
X373592Y238011D01*
X373610Y238090D01*
X373631Y238167D01*
X373657Y238243D01*
X373686Y238318D01*
X373718Y238392D01*
X373754Y238464D01*
X373794Y238534D01*
X373837Y238601D01*
X373883Y238667D01*
X373933Y238730D01*
X373985Y238791D01*
X374040Y238850D01*
X374099Y238905D01*
X374159Y238957D01*
X374223Y239007D01*
X374289Y239053D01*
X374356Y239096D01*
X374426Y239136D01*
X374498Y239172D01*
X374572Y239204D01*
X374646Y239233D01*
X374723Y239259D01*
X374800Y239280D01*
X374879Y239298D01*
X374958Y239311D01*
X375038Y239321D01*
X375118Y239327D01*
X375198Y239329D01*
X377653Y239329D01*
X381364Y239329D02*
X381364Y231963D01*
X385456Y231963D02*
X381364Y239329D01*
X385456Y239329D02*
X385456Y231963D01*
X389167Y231963D02*
X389167Y239329D01*
X391213Y239329D01*
X391302Y239327D01*
X391391Y239321D01*
X391480Y239311D01*
X391568Y239298D01*
X391656Y239281D01*
X391743Y239259D01*
X391828Y239234D01*
X391913Y239206D01*
X391996Y239173D01*
X392078Y239137D01*
X392158Y239098D01*
X392236Y239055D01*
X392312Y239009D01*
X392387Y238959D01*
X392459Y238906D01*
X392528Y238850D01*
X392595Y238791D01*
X392660Y238730D01*
X392721Y238665D01*
X392780Y238598D01*
X392836Y238529D01*
X392889Y238457D01*
X392939Y238382D01*
X392985Y238306D01*
X393028Y238228D01*
X393067Y238148D01*
X393103Y238066D01*
X393136Y237983D01*
X393164Y237898D01*
X393189Y237813D01*
X393211Y237726D01*
X393228Y237638D01*
X393241Y237550D01*
X393251Y237461D01*
X393257Y237372D01*
X393259Y237283D01*
X393259Y234009D01*
X393257Y233920D01*
X393251Y233831D01*
X393241Y233742D01*
X393228Y233654D01*
X393211Y233566D01*
X393189Y233479D01*
X393164Y233394D01*
X393136Y233309D01*
X393103Y233226D01*
X393067Y233144D01*
X393028Y233064D01*
X392985Y232986D01*
X392939Y232910D01*
X392889Y232835D01*
X392836Y232763D01*
X392780Y232694D01*
X392721Y232627D01*
X392660Y232562D01*
X392595Y232501D01*
X392528Y232442D01*
X392459Y232386D01*
X392387Y232333D01*
X392312Y232283D01*
X392236Y232237D01*
X392158Y232194D01*
X392078Y232155D01*
X391996Y232119D01*
X391913Y232086D01*
X391828Y232058D01*
X391743Y232033D01*
X391656Y232011D01*
X391568Y231994D01*
X391480Y231981D01*
X391391Y231971D01*
X391302Y231965D01*
X391213Y231963D01*
X389167Y231963D01*
X372126Y218689D02*
X374581Y211323D01*
X377036Y218689D01*
X380094Y218689D02*
X380094Y211323D01*
X380094Y218689D02*
X382140Y218689D01*
X382229Y218687D01*
X382318Y218681D01*
X382407Y218671D01*
X382495Y218658D01*
X382583Y218641D01*
X382670Y218619D01*
X382755Y218594D01*
X382840Y218566D01*
X382923Y218533D01*
X383005Y218497D01*
X383085Y218458D01*
X383163Y218415D01*
X383239Y218369D01*
X383314Y218319D01*
X383386Y218266D01*
X383455Y218210D01*
X383522Y218151D01*
X383587Y218090D01*
X383648Y218025D01*
X383707Y217958D01*
X383763Y217889D01*
X383816Y217817D01*
X383866Y217742D01*
X383912Y217666D01*
X383955Y217588D01*
X383994Y217508D01*
X384030Y217426D01*
X384063Y217343D01*
X384091Y217258D01*
X384116Y217173D01*
X384138Y217086D01*
X384155Y216998D01*
X384168Y216910D01*
X384178Y216821D01*
X384184Y216732D01*
X384186Y216643D01*
X384186Y213369D01*
X384184Y213280D01*
X384178Y213191D01*
X384168Y213102D01*
X384155Y213014D01*
X384138Y212926D01*
X384116Y212839D01*
X384091Y212754D01*
X384063Y212669D01*
X384030Y212586D01*
X383994Y212504D01*
X383955Y212424D01*
X383912Y212346D01*
X383866Y212270D01*
X383816Y212195D01*
X383763Y212123D01*
X383707Y212054D01*
X383648Y211987D01*
X383587Y211922D01*
X383522Y211861D01*
X383455Y211802D01*
X383386Y211746D01*
X383314Y211693D01*
X383239Y211643D01*
X383163Y211597D01*
X383085Y211554D01*
X383005Y211515D01*
X382923Y211479D01*
X382840Y211446D01*
X382755Y211418D01*
X382670Y211393D01*
X382583Y211371D01*
X382495Y211354D01*
X382407Y211341D01*
X382318Y211331D01*
X382229Y211325D01*
X382140Y211323D01*
X380094Y211323D01*
X387897Y211323D02*
X387897Y218689D01*
X389943Y218689D01*
X390032Y218687D01*
X390121Y218681D01*
X390210Y218671D01*
X390298Y218658D01*
X390386Y218641D01*
X390473Y218619D01*
X390558Y218594D01*
X390643Y218566D01*
X390726Y218533D01*
X390808Y218497D01*
X390888Y218458D01*
X390966Y218415D01*
X391042Y218369D01*
X391117Y218319D01*
X391189Y218266D01*
X391258Y218210D01*
X391325Y218151D01*
X391390Y218090D01*
X391451Y218025D01*
X391510Y217958D01*
X391566Y217889D01*
X391619Y217817D01*
X391669Y217742D01*
X391715Y217666D01*
X391758Y217588D01*
X391797Y217508D01*
X391833Y217426D01*
X391866Y217343D01*
X391894Y217258D01*
X391919Y217173D01*
X391941Y217086D01*
X391958Y216998D01*
X391971Y216910D01*
X391981Y216821D01*
X391987Y216732D01*
X391989Y216643D01*
X391989Y213369D01*
X391987Y213280D01*
X391981Y213191D01*
X391971Y213102D01*
X391958Y213014D01*
X391941Y212926D01*
X391919Y212839D01*
X391894Y212754D01*
X391866Y212669D01*
X391833Y212586D01*
X391797Y212504D01*
X391758Y212424D01*
X391715Y212346D01*
X391669Y212270D01*
X391619Y212195D01*
X391566Y212123D01*
X391510Y212054D01*
X391451Y211987D01*
X391390Y211922D01*
X391325Y211861D01*
X391258Y211802D01*
X391189Y211746D01*
X391117Y211693D01*
X391042Y211643D01*
X390966Y211597D01*
X390888Y211554D01*
X390808Y211515D01*
X390726Y211479D01*
X390643Y211446D01*
X390558Y211418D01*
X390473Y211393D01*
X390386Y211371D01*
X390298Y211354D01*
X390210Y211341D01*
X390121Y211331D01*
X390032Y211325D01*
X389943Y211323D01*
X387897Y211323D01*
D11*
X340670Y243790D02*
X340670Y264290D01*
X340670Y205790D02*
X340670Y185290D01*
X380670Y185290D01*
D18*
X329670Y203290D02*
X329672Y203353D01*
X329678Y203415D01*
X329688Y203477D01*
X329701Y203539D01*
X329719Y203599D01*
X329740Y203658D01*
X329765Y203716D01*
X329794Y203772D01*
X329826Y203826D01*
X329861Y203878D01*
X329899Y203927D01*
X329941Y203975D01*
X329985Y204019D01*
X330033Y204061D01*
X330082Y204099D01*
X330134Y204134D01*
X330188Y204166D01*
X330244Y204195D01*
X330302Y204220D01*
X330361Y204241D01*
X330421Y204259D01*
X330483Y204272D01*
X330545Y204282D01*
X330607Y204288D01*
X330670Y204290D01*
X330733Y204288D01*
X330795Y204282D01*
X330857Y204272D01*
X330919Y204259D01*
X330979Y204241D01*
X331038Y204220D01*
X331096Y204195D01*
X331152Y204166D01*
X331206Y204134D01*
X331258Y204099D01*
X331307Y204061D01*
X331355Y204019D01*
X331399Y203975D01*
X331441Y203927D01*
X331479Y203878D01*
X331514Y203826D01*
X331546Y203772D01*
X331575Y203716D01*
X331600Y203658D01*
X331621Y203599D01*
X331639Y203539D01*
X331652Y203477D01*
X331662Y203415D01*
X331668Y203353D01*
X331670Y203290D01*
X331668Y203227D01*
X331662Y203165D01*
X331652Y203103D01*
X331639Y203041D01*
X331621Y202981D01*
X331600Y202922D01*
X331575Y202864D01*
X331546Y202808D01*
X331514Y202754D01*
X331479Y202702D01*
X331441Y202653D01*
X331399Y202605D01*
X331355Y202561D01*
X331307Y202519D01*
X331258Y202481D01*
X331206Y202446D01*
X331152Y202414D01*
X331096Y202385D01*
X331038Y202360D01*
X330979Y202339D01*
X330919Y202321D01*
X330857Y202308D01*
X330795Y202298D01*
X330733Y202292D01*
X330670Y202290D01*
X330607Y202292D01*
X330545Y202298D01*
X330483Y202308D01*
X330421Y202321D01*
X330361Y202339D01*
X330302Y202360D01*
X330244Y202385D01*
X330188Y202414D01*
X330134Y202446D01*
X330082Y202481D01*
X330033Y202519D01*
X329985Y202561D01*
X329941Y202605D01*
X329899Y202653D01*
X329861Y202702D01*
X329826Y202754D01*
X329794Y202808D01*
X329765Y202864D01*
X329740Y202922D01*
X329719Y202981D01*
X329701Y203041D01*
X329688Y203103D01*
X329678Y203165D01*
X329672Y203227D01*
X329670Y203290D01*
D11*
X416670Y202790D02*
X416670Y246790D01*
X380670Y264290D02*
X340670Y264290D01*
D16*
X278450Y134300D02*
X278450Y130300D01*
X278450Y98300D02*
X278450Y94300D01*
X278450Y134300D02*
X282450Y134300D01*
X314450Y134300D02*
X318450Y134300D01*
X318450Y130300D01*
X282450Y94300D02*
X278450Y94300D01*
X314450Y94300D02*
X318450Y94300D01*
X318450Y98300D01*
X275130Y136270D02*
X275132Y136333D01*
X275138Y136395D01*
X275148Y136457D01*
X275161Y136519D01*
X275179Y136579D01*
X275200Y136638D01*
X275225Y136696D01*
X275254Y136752D01*
X275286Y136806D01*
X275321Y136858D01*
X275359Y136907D01*
X275401Y136955D01*
X275445Y136999D01*
X275493Y137041D01*
X275542Y137079D01*
X275594Y137114D01*
X275648Y137146D01*
X275704Y137175D01*
X275762Y137200D01*
X275821Y137221D01*
X275881Y137239D01*
X275943Y137252D01*
X276005Y137262D01*
X276067Y137268D01*
X276130Y137270D01*
X276193Y137268D01*
X276255Y137262D01*
X276317Y137252D01*
X276379Y137239D01*
X276439Y137221D01*
X276498Y137200D01*
X276556Y137175D01*
X276612Y137146D01*
X276666Y137114D01*
X276718Y137079D01*
X276767Y137041D01*
X276815Y136999D01*
X276859Y136955D01*
X276901Y136907D01*
X276939Y136858D01*
X276974Y136806D01*
X277006Y136752D01*
X277035Y136696D01*
X277060Y136638D01*
X277081Y136579D01*
X277099Y136519D01*
X277112Y136457D01*
X277122Y136395D01*
X277128Y136333D01*
X277130Y136270D01*
X277128Y136207D01*
X277122Y136145D01*
X277112Y136083D01*
X277099Y136021D01*
X277081Y135961D01*
X277060Y135902D01*
X277035Y135844D01*
X277006Y135788D01*
X276974Y135734D01*
X276939Y135682D01*
X276901Y135633D01*
X276859Y135585D01*
X276815Y135541D01*
X276767Y135499D01*
X276718Y135461D01*
X276666Y135426D01*
X276612Y135394D01*
X276556Y135365D01*
X276498Y135340D01*
X276439Y135319D01*
X276379Y135301D01*
X276317Y135288D01*
X276255Y135278D01*
X276193Y135272D01*
X276130Y135270D01*
X276067Y135272D01*
X276005Y135278D01*
X275943Y135288D01*
X275881Y135301D01*
X275821Y135319D01*
X275762Y135340D01*
X275704Y135365D01*
X275648Y135394D01*
X275594Y135426D01*
X275542Y135461D01*
X275493Y135499D01*
X275445Y135541D01*
X275401Y135585D01*
X275359Y135633D01*
X275321Y135682D01*
X275286Y135734D01*
X275254Y135788D01*
X275225Y135844D01*
X275200Y135902D01*
X275179Y135961D01*
X275161Y136021D01*
X275148Y136083D01*
X275138Y136145D01*
X275132Y136207D01*
X275130Y136270D01*
X275630Y83820D02*
X268130Y83820D01*
X268130Y91320D01*
X263130Y88820D02*
X268130Y83820D01*
X267130Y89820D02*
X268130Y91320D01*
X269130Y89820D01*
X274130Y84820D02*
X275630Y83820D01*
X274130Y82820D01*
D15*
X267547Y95778D02*
X266277Y97577D01*
X267547Y95778D02*
X268817Y97577D01*
X267547Y95778D02*
X267547Y93767D01*
D16*
X263130Y88820D02*
X263630Y86820D01*
X264980Y88320D02*
X263130Y88820D01*
D15*
X277357Y82687D02*
X279897Y86497D01*
X277357Y86497D02*
X279897Y82687D01*
X260584Y94037D02*
X258467Y94037D01*
X260584Y94037D02*
X258467Y90227D01*
X260584Y90227D01*
D11*
X300970Y226040D02*
X300970Y287040D01*
X234970Y287040D01*
X234970Y226040D01*
X300970Y226040D01*
D19*
X204440Y384318D02*
X105440Y384318D01*
X105440Y361458D01*
X119940Y292116D02*
X189940Y292116D01*
X204440Y324882D02*
X204440Y336566D01*
X204440Y361458D02*
X204440Y384318D01*
X105440Y336566D02*
X105440Y324882D01*
D20*
X217740Y302530D02*
X217742Y302658D01*
X217748Y302786D01*
X217758Y302914D01*
X217771Y303041D01*
X217789Y303168D01*
X217810Y303294D01*
X217835Y303420D01*
X217864Y303545D01*
X217897Y303669D01*
X217934Y303791D01*
X217974Y303913D01*
X218018Y304033D01*
X218066Y304152D01*
X218117Y304269D01*
X218172Y304385D01*
X218230Y304499D01*
X218292Y304611D01*
X218357Y304722D01*
X218426Y304830D01*
X218498Y304936D01*
X218572Y305040D01*
X218651Y305141D01*
X218732Y305241D01*
X218816Y305337D01*
X218903Y305431D01*
X218993Y305522D01*
X219086Y305611D01*
X219181Y305697D01*
X219279Y305779D01*
X219379Y305859D01*
X219482Y305935D01*
X219587Y306009D01*
X219694Y306079D01*
X219803Y306146D01*
X219914Y306209D01*
X220028Y306269D01*
X220142Y306326D01*
X220259Y306379D01*
X220377Y306428D01*
X220497Y306474D01*
X220618Y306516D01*
X220740Y306555D01*
X220863Y306590D01*
X220988Y306621D01*
X221113Y306648D01*
X221239Y306671D01*
X221365Y306691D01*
X221492Y306706D01*
X221620Y306718D01*
X221748Y306726D01*
X221876Y306730D01*
X222004Y306730D01*
X222132Y306726D01*
X222260Y306718D01*
X222388Y306706D01*
X222515Y306691D01*
X222641Y306671D01*
X222767Y306648D01*
X222892Y306621D01*
X223017Y306590D01*
X223140Y306555D01*
X223262Y306516D01*
X223383Y306474D01*
X223503Y306428D01*
X223621Y306379D01*
X223738Y306326D01*
X223852Y306269D01*
X223966Y306209D01*
X224077Y306146D01*
X224186Y306079D01*
X224293Y306009D01*
X224398Y305935D01*
X224501Y305859D01*
X224601Y305779D01*
X224699Y305697D01*
X224794Y305611D01*
X224887Y305522D01*
X224977Y305431D01*
X225064Y305337D01*
X225148Y305241D01*
X225229Y305141D01*
X225308Y305040D01*
X225382Y304936D01*
X225454Y304830D01*
X225523Y304722D01*
X225588Y304611D01*
X225650Y304499D01*
X225708Y304385D01*
X225763Y304269D01*
X225814Y304152D01*
X225862Y304033D01*
X225906Y303913D01*
X225946Y303791D01*
X225983Y303669D01*
X226016Y303545D01*
X226045Y303420D01*
X226070Y303294D01*
X226091Y303168D01*
X226109Y303041D01*
X226122Y302914D01*
X226132Y302786D01*
X226138Y302658D01*
X226140Y302530D01*
X226138Y302402D01*
X226132Y302274D01*
X226122Y302146D01*
X226109Y302019D01*
X226091Y301892D01*
X226070Y301766D01*
X226045Y301640D01*
X226016Y301515D01*
X225983Y301391D01*
X225946Y301269D01*
X225906Y301147D01*
X225862Y301027D01*
X225814Y300908D01*
X225763Y300791D01*
X225708Y300675D01*
X225650Y300561D01*
X225588Y300449D01*
X225523Y300338D01*
X225454Y300230D01*
X225382Y300124D01*
X225308Y300020D01*
X225229Y299919D01*
X225148Y299819D01*
X225064Y299723D01*
X224977Y299629D01*
X224887Y299538D01*
X224794Y299449D01*
X224699Y299363D01*
X224601Y299281D01*
X224501Y299201D01*
X224398Y299125D01*
X224293Y299051D01*
X224186Y298981D01*
X224077Y298914D01*
X223966Y298851D01*
X223852Y298791D01*
X223738Y298734D01*
X223621Y298681D01*
X223503Y298632D01*
X223383Y298586D01*
X223262Y298544D01*
X223140Y298505D01*
X223017Y298470D01*
X222892Y298439D01*
X222767Y298412D01*
X222641Y298389D01*
X222515Y298369D01*
X222388Y298354D01*
X222260Y298342D01*
X222132Y298334D01*
X222004Y298330D01*
X221876Y298330D01*
X221748Y298334D01*
X221620Y298342D01*
X221492Y298354D01*
X221365Y298369D01*
X221239Y298389D01*
X221113Y298412D01*
X220988Y298439D01*
X220863Y298470D01*
X220740Y298505D01*
X220618Y298544D01*
X220497Y298586D01*
X220377Y298632D01*
X220259Y298681D01*
X220142Y298734D01*
X220028Y298791D01*
X219914Y298851D01*
X219803Y298914D01*
X219694Y298981D01*
X219587Y299051D01*
X219482Y299125D01*
X219379Y299201D01*
X219279Y299281D01*
X219181Y299363D01*
X219086Y299449D01*
X218993Y299538D01*
X218903Y299629D01*
X218816Y299723D01*
X218732Y299819D01*
X218651Y299919D01*
X218572Y300020D01*
X218498Y300124D01*
X218426Y300230D01*
X218357Y300338D01*
X218292Y300449D01*
X218230Y300561D01*
X218172Y300675D01*
X218117Y300791D01*
X218066Y300908D01*
X218018Y301027D01*
X217974Y301147D01*
X217934Y301269D01*
X217897Y301391D01*
X217864Y301515D01*
X217835Y301640D01*
X217810Y301766D01*
X217789Y301892D01*
X217771Y302019D01*
X217758Y302146D01*
X217748Y302274D01*
X217742Y302402D01*
X217740Y302530D01*
D11*
X234970Y289540D02*
X234970Y350540D01*
X234970Y289540D02*
X300970Y289540D01*
X300970Y350540D01*
X234970Y350540D01*
D21*
X346650Y46760D03*
X339150Y46760D03*
D22*
X342900Y46760D03*
D16*
X307305Y329382D02*
X307305Y333361D01*
X307305Y329382D02*
X309626Y326397D01*
X307305Y329382D02*
X304983Y326397D01*
X307305Y329382D02*
X310952Y330708D01*
X307305Y329382D02*
X303657Y330708D01*
D12*
X306578Y254508D02*
X318262Y254508D01*
X306578Y254508D02*
X306578Y257754D01*
X306580Y257867D01*
X306586Y257980D01*
X306596Y258093D01*
X306610Y258206D01*
X306627Y258318D01*
X306649Y258429D01*
X306674Y258539D01*
X306704Y258649D01*
X306737Y258757D01*
X306774Y258864D01*
X306814Y258970D01*
X306859Y259074D01*
X306907Y259177D01*
X306958Y259278D01*
X307013Y259377D01*
X307071Y259474D01*
X307133Y259569D01*
X307198Y259662D01*
X307266Y259752D01*
X307337Y259840D01*
X307412Y259926D01*
X307489Y260009D01*
X307569Y260089D01*
X307652Y260166D01*
X307738Y260241D01*
X307826Y260312D01*
X307916Y260380D01*
X308009Y260445D01*
X308104Y260507D01*
X308201Y260565D01*
X308300Y260620D01*
X308401Y260671D01*
X308504Y260719D01*
X308608Y260764D01*
X308714Y260804D01*
X308821Y260841D01*
X308929Y260874D01*
X309039Y260904D01*
X309149Y260929D01*
X309260Y260951D01*
X309372Y260968D01*
X309485Y260982D01*
X309598Y260992D01*
X309711Y260998D01*
X309824Y261000D01*
X309937Y260998D01*
X310050Y260992D01*
X310163Y260982D01*
X310276Y260968D01*
X310388Y260951D01*
X310499Y260929D01*
X310609Y260904D01*
X310719Y260874D01*
X310827Y260841D01*
X310934Y260804D01*
X311040Y260764D01*
X311144Y260719D01*
X311247Y260671D01*
X311348Y260620D01*
X311447Y260565D01*
X311544Y260507D01*
X311639Y260445D01*
X311732Y260380D01*
X311822Y260312D01*
X311910Y260241D01*
X311996Y260166D01*
X312079Y260089D01*
X312159Y260009D01*
X312236Y259926D01*
X312311Y259840D01*
X312382Y259752D01*
X312450Y259662D01*
X312515Y259569D01*
X312577Y259474D01*
X312635Y259377D01*
X312690Y259278D01*
X312741Y259177D01*
X312789Y259074D01*
X312834Y258970D01*
X312874Y258864D01*
X312911Y258757D01*
X312944Y258649D01*
X312974Y258539D01*
X312999Y258429D01*
X313021Y258318D01*
X313038Y258206D01*
X313052Y258093D01*
X313062Y257980D01*
X313068Y257867D01*
X313070Y257754D01*
X313069Y257754D02*
X313069Y254508D01*
X313069Y258403D02*
X318262Y260999D01*
X309174Y265864D02*
X306578Y269110D01*
X318262Y269110D01*
X318262Y272355D02*
X318262Y265864D01*
X313069Y279891D02*
X313069Y283785D01*
X313069Y279891D02*
X313067Y279792D01*
X313061Y279692D01*
X313052Y279593D01*
X313039Y279495D01*
X313022Y279397D01*
X313001Y279299D01*
X312976Y279203D01*
X312948Y279108D01*
X312916Y279014D01*
X312881Y278921D01*
X312842Y278829D01*
X312799Y278739D01*
X312754Y278651D01*
X312704Y278564D01*
X312652Y278480D01*
X312596Y278397D01*
X312538Y278317D01*
X312476Y278239D01*
X312411Y278164D01*
X312343Y278091D01*
X312273Y278021D01*
X312200Y277953D01*
X312125Y277888D01*
X312047Y277826D01*
X311967Y277768D01*
X311884Y277712D01*
X311800Y277660D01*
X311713Y277610D01*
X311625Y277565D01*
X311535Y277522D01*
X311443Y277483D01*
X311350Y277448D01*
X311256Y277416D01*
X311161Y277388D01*
X311065Y277363D01*
X310967Y277342D01*
X310869Y277325D01*
X310771Y277312D01*
X310672Y277303D01*
X310572Y277297D01*
X310473Y277295D01*
X310473Y277294D02*
X309824Y277294D01*
X309711Y277296D01*
X309598Y277302D01*
X309485Y277312D01*
X309372Y277326D01*
X309260Y277343D01*
X309149Y277365D01*
X309039Y277390D01*
X308929Y277420D01*
X308821Y277453D01*
X308714Y277490D01*
X308608Y277530D01*
X308504Y277575D01*
X308401Y277623D01*
X308300Y277674D01*
X308201Y277729D01*
X308104Y277787D01*
X308009Y277849D01*
X307916Y277914D01*
X307826Y277982D01*
X307738Y278053D01*
X307652Y278128D01*
X307569Y278205D01*
X307489Y278285D01*
X307412Y278368D01*
X307337Y278454D01*
X307266Y278542D01*
X307198Y278632D01*
X307133Y278725D01*
X307071Y278820D01*
X307013Y278917D01*
X306958Y279016D01*
X306907Y279117D01*
X306859Y279220D01*
X306814Y279324D01*
X306774Y279430D01*
X306737Y279537D01*
X306704Y279645D01*
X306674Y279755D01*
X306649Y279865D01*
X306627Y279976D01*
X306610Y280088D01*
X306596Y280201D01*
X306586Y280314D01*
X306580Y280427D01*
X306578Y280540D01*
X306580Y280653D01*
X306586Y280766D01*
X306596Y280879D01*
X306610Y280992D01*
X306627Y281104D01*
X306649Y281215D01*
X306674Y281325D01*
X306704Y281435D01*
X306737Y281543D01*
X306774Y281650D01*
X306814Y281756D01*
X306859Y281860D01*
X306907Y281963D01*
X306958Y282064D01*
X307013Y282163D01*
X307071Y282260D01*
X307133Y282355D01*
X307198Y282448D01*
X307266Y282538D01*
X307337Y282626D01*
X307412Y282712D01*
X307489Y282795D01*
X307569Y282875D01*
X307652Y282952D01*
X307738Y283027D01*
X307826Y283098D01*
X307916Y283166D01*
X308009Y283231D01*
X308104Y283293D01*
X308201Y283351D01*
X308300Y283406D01*
X308401Y283457D01*
X308504Y283505D01*
X308608Y283550D01*
X308714Y283590D01*
X308821Y283627D01*
X308929Y283660D01*
X309039Y283690D01*
X309149Y283715D01*
X309260Y283737D01*
X309372Y283754D01*
X309485Y283768D01*
X309598Y283778D01*
X309711Y283784D01*
X309824Y283786D01*
X309824Y283785D02*
X313069Y283785D01*
X313069Y283786D02*
X313212Y283784D01*
X313355Y283778D01*
X313498Y283768D01*
X313640Y283754D01*
X313782Y283737D01*
X313924Y283715D01*
X314065Y283690D01*
X314205Y283660D01*
X314344Y283627D01*
X314482Y283590D01*
X314619Y283549D01*
X314755Y283505D01*
X314890Y283456D01*
X315023Y283404D01*
X315155Y283349D01*
X315285Y283289D01*
X315414Y283226D01*
X315541Y283160D01*
X315666Y283090D01*
X315788Y283017D01*
X315909Y282940D01*
X316028Y282860D01*
X316144Y282777D01*
X316259Y282691D01*
X316370Y282602D01*
X316480Y282509D01*
X316586Y282414D01*
X316690Y282315D01*
X316791Y282214D01*
X316890Y282110D01*
X316985Y282004D01*
X317078Y281894D01*
X317167Y281783D01*
X317253Y281668D01*
X317336Y281552D01*
X317416Y281433D01*
X317493Y281312D01*
X317566Y281190D01*
X317636Y281065D01*
X317702Y280938D01*
X317765Y280809D01*
X317825Y280679D01*
X317880Y280547D01*
X317932Y280414D01*
X317981Y280279D01*
X318025Y280143D01*
X318066Y280006D01*
X318103Y279868D01*
X318136Y279729D01*
X318166Y279589D01*
X318191Y279448D01*
X318213Y279306D01*
X318230Y279164D01*
X318244Y279022D01*
X318254Y278879D01*
X318260Y278736D01*
X318262Y278593D01*
M02*
