G04 EAGLE Gerber RS-274X export*
G75*
%MOMM*%
%FSLAX34Y34*%
%LPD*%
%INSolderpaste Top*%
%IPPOS*%
%AMOC8*
5,1,8,0,0,1.08239X$1,22.5*%
G01*
%ADD10R,1.300000X1.500000*%
%ADD11R,2.370000X2.770000*%
%ADD12R,0.900000X0.700000*%
%ADD13R,0.700000X0.900000*%
%ADD14R,1.500000X1.300000*%
%ADD15R,0.800000X0.800000*%
%ADD16R,0.600000X0.700000*%
%ADD17R,0.700000X0.600000*%
%ADD18R,1.000000X1.100000*%
%ADD19R,1.270000X0.635000*%
%ADD20R,1.270000X1.016000*%
%ADD21R,1.270000X0.812800*%
%ADD22R,2.000000X0.900000*%
%ADD23R,0.900000X2.000000*%
%ADD24R,1.330000X1.330000*%
%ADD25C,0.300000*%
%ADD26R,0.660400X0.406400*%
%ADD27R,0.600000X1.100000*%
%ADD28R,0.400000X0.500000*%
%ADD29R,3.500000X1.000000*%
%ADD30R,3.400000X1.500000*%
%ADD31R,1.600000X1.800000*%
%ADD32R,0.800000X0.350000*%
%ADD33R,0.350000X0.850000*%
%ADD34R,2.100000X1.000000*%
%ADD35R,1.100000X1.000000*%
%ADD36R,0.700000X0.300000*%

G36*
X86661Y225547D02*
X86661Y225547D01*
X86675Y225545D01*
X96925Y235795D01*
X96926Y235807D01*
X96931Y235811D01*
X96928Y235816D01*
X96929Y235822D01*
X96939Y235830D01*
X96939Y259080D01*
X96903Y259127D01*
X96896Y259122D01*
X96890Y259129D01*
X63390Y259129D01*
X63343Y259093D01*
X63347Y259087D01*
X63343Y259083D01*
X63344Y259082D01*
X63341Y259080D01*
X63341Y225580D01*
X63377Y225533D01*
X63384Y225538D01*
X63390Y225531D01*
X86640Y225531D01*
X86661Y225547D01*
G37*
G36*
X199487Y292682D02*
X199487Y292682D01*
X199492Y292687D01*
X199496Y292685D01*
X200771Y293143D01*
X200774Y293149D01*
X200779Y293147D01*
X201940Y293845D01*
X201943Y293852D01*
X201948Y293851D01*
X202950Y294762D01*
X202951Y294769D01*
X202956Y294769D01*
X203761Y295858D01*
X203761Y295865D01*
X203763Y295866D01*
X203766Y295867D01*
X204343Y297092D01*
X204343Y297095D01*
X204345Y297097D01*
X204343Y297099D01*
X204347Y297101D01*
X204641Y298284D01*
X204641Y297530D01*
X204677Y297483D01*
X204739Y297530D01*
X204739Y317280D01*
X204738Y317282D01*
X204739Y317283D01*
X204653Y318654D01*
X204649Y318659D01*
X204652Y318663D01*
X204300Y319990D01*
X204295Y319995D01*
X204297Y319999D01*
X203693Y321233D01*
X203687Y321236D01*
X203688Y321241D01*
X202856Y322333D01*
X202849Y322335D01*
X202849Y322340D01*
X201819Y323248D01*
X201812Y323249D01*
X201812Y323254D01*
X200625Y323944D01*
X200617Y323943D01*
X200616Y323948D01*
X199317Y324393D01*
X199310Y324391D01*
X199307Y324396D01*
X197947Y324579D01*
X197937Y324573D01*
X197932Y324579D01*
X196624Y324351D01*
X196619Y324346D01*
X196615Y324349D01*
X195377Y323871D01*
X195373Y323865D01*
X195369Y323866D01*
X194248Y323156D01*
X194245Y323149D01*
X194240Y323150D01*
X193280Y322235D01*
X193278Y322228D01*
X193273Y322228D01*
X192510Y321143D01*
X192510Y321136D01*
X192505Y321134D01*
X191967Y319921D01*
X191969Y319914D01*
X191964Y319912D01*
X191674Y318617D01*
X191677Y318611D01*
X191673Y318608D01*
X191641Y317281D01*
X191641Y317280D01*
X191641Y299780D01*
X191642Y299779D01*
X191641Y299778D01*
X191694Y298434D01*
X191699Y298428D01*
X191696Y298424D01*
X192010Y297117D01*
X192016Y297112D01*
X192014Y297108D01*
X192578Y295886D01*
X192584Y295883D01*
X192582Y295878D01*
X193374Y294790D01*
X193381Y294788D01*
X193380Y294783D01*
X194368Y293870D01*
X194376Y293870D01*
X194376Y293865D01*
X195523Y293163D01*
X195531Y293163D01*
X195532Y293158D01*
X196794Y292693D01*
X196801Y292696D01*
X196804Y292691D01*
X198132Y292481D01*
X198142Y292487D01*
X198147Y292481D01*
X199487Y292682D01*
G37*
G36*
X111742Y292487D02*
X111742Y292487D01*
X111748Y292481D01*
X113076Y292691D01*
X113081Y292696D01*
X113086Y292693D01*
X114348Y293158D01*
X114352Y293164D01*
X114357Y293163D01*
X115504Y293865D01*
X115507Y293871D01*
X115512Y293870D01*
X116500Y294783D01*
X116501Y294790D01*
X116506Y294790D01*
X117298Y295878D01*
X117297Y295885D01*
X117303Y295886D01*
X117866Y297108D01*
X117865Y297115D01*
X117870Y297117D01*
X118141Y298244D01*
X118141Y297530D01*
X118177Y297483D01*
X118239Y297530D01*
X118239Y317280D01*
X118238Y317281D01*
X118239Y317282D01*
X118186Y318626D01*
X118181Y318632D01*
X118184Y318636D01*
X117870Y319943D01*
X117864Y319948D01*
X117866Y319953D01*
X117303Y321174D01*
X117296Y321177D01*
X117298Y321182D01*
X116506Y322270D01*
X116499Y322272D01*
X116500Y322277D01*
X115512Y323190D01*
X115504Y323190D01*
X115504Y323195D01*
X114357Y323898D01*
X114349Y323897D01*
X114348Y323902D01*
X113086Y324367D01*
X113079Y324364D01*
X113076Y324369D01*
X111748Y324579D01*
X111738Y324574D01*
X111733Y324579D01*
X110393Y324378D01*
X110388Y324373D01*
X110384Y324375D01*
X109109Y323917D01*
X109106Y323911D01*
X109101Y323913D01*
X107940Y323215D01*
X107938Y323208D01*
X107932Y323209D01*
X106930Y322298D01*
X106929Y322291D01*
X106924Y322291D01*
X106119Y321202D01*
X106119Y321194D01*
X106114Y321193D01*
X105537Y319968D01*
X105538Y319961D01*
X105534Y319959D01*
X105207Y318645D01*
X105209Y318638D01*
X105205Y318635D01*
X105141Y317282D01*
X105142Y317281D01*
X105141Y317280D01*
X105141Y299780D01*
X105142Y299779D01*
X105141Y299778D01*
X105205Y298425D01*
X105210Y298419D01*
X105207Y298415D01*
X105534Y297101D01*
X105539Y297096D01*
X105537Y297092D01*
X106114Y295867D01*
X106120Y295863D01*
X106119Y295858D01*
X106924Y294769D01*
X106931Y294767D01*
X106930Y294762D01*
X107932Y293851D01*
X107940Y293850D01*
X107940Y293845D01*
X109101Y293147D01*
X109108Y293148D01*
X109109Y293143D01*
X110384Y292685D01*
X110391Y292687D01*
X110393Y292682D01*
X111733Y292481D01*
X111742Y292487D01*
G37*
G36*
X199395Y337575D02*
X199395Y337575D01*
X199400Y337579D01*
X199401Y337579D01*
X199405Y337576D01*
X200614Y337912D01*
X200618Y337918D01*
X200623Y337916D01*
X201743Y338481D01*
X201746Y338488D01*
X201751Y338486D01*
X202740Y339260D01*
X202742Y339267D01*
X202747Y339266D01*
X203565Y340218D01*
X203566Y340225D01*
X203571Y340225D01*
X204188Y341318D01*
X204187Y341325D01*
X204192Y341327D01*
X204585Y342519D01*
X204582Y342526D01*
X204587Y342528D01*
X204706Y343505D01*
X204739Y343530D01*
X204739Y356530D01*
X204736Y356534D01*
X204739Y356537D01*
X204565Y357756D01*
X204559Y357761D01*
X204562Y357765D01*
X204154Y358927D01*
X204148Y358931D01*
X204149Y358936D01*
X203522Y359995D01*
X203515Y359998D01*
X203516Y360003D01*
X202694Y360919D01*
X202687Y360921D01*
X202687Y360926D01*
X201702Y361665D01*
X201695Y361665D01*
X201694Y361670D01*
X200584Y362202D01*
X200577Y362201D01*
X200575Y362205D01*
X199382Y362511D01*
X199375Y362508D01*
X199372Y362512D01*
X198143Y362579D01*
X198139Y362577D01*
X198137Y362579D01*
X196918Y362503D01*
X196914Y362500D01*
X196911Y362500D01*
X196909Y362502D01*
X195728Y362190D01*
X195724Y362184D01*
X195719Y362187D01*
X194622Y361650D01*
X194619Y361644D01*
X194614Y361645D01*
X193643Y360905D01*
X193641Y360898D01*
X193635Y360898D01*
X192827Y359983D01*
X192827Y359976D01*
X192822Y359975D01*
X192207Y358920D01*
X192208Y358913D01*
X192203Y358911D01*
X191807Y357756D01*
X191809Y357749D01*
X191805Y357747D01*
X191641Y356537D01*
X191644Y356532D01*
X191641Y356530D01*
X191641Y343780D01*
X191643Y343777D01*
X191641Y343774D01*
X191783Y342538D01*
X191788Y342532D01*
X191785Y342528D01*
X192165Y341343D01*
X192171Y341338D01*
X192169Y341334D01*
X192773Y340245D01*
X192779Y340242D01*
X192778Y340237D01*
X193583Y339287D01*
X193590Y339286D01*
X193590Y339281D01*
X194565Y338506D01*
X194572Y338506D01*
X194573Y338501D01*
X195680Y337931D01*
X195687Y337933D01*
X195689Y337928D01*
X196886Y337585D01*
X196892Y337588D01*
X196895Y337583D01*
X198136Y337481D01*
X198141Y337484D01*
X198144Y337481D01*
X199395Y337575D01*
G37*
G36*
X111742Y337484D02*
X111742Y337484D01*
X111745Y337481D01*
X113160Y337618D01*
X113166Y337624D01*
X113171Y337620D01*
X114521Y338069D01*
X114525Y338076D01*
X114531Y338073D01*
X115747Y338811D01*
X115750Y338819D01*
X115755Y338818D01*
X116777Y339807D01*
X116778Y339815D01*
X116784Y339816D01*
X117559Y341008D01*
X117559Y341013D01*
X117560Y341013D01*
X117559Y341015D01*
X117558Y341016D01*
X117564Y341018D01*
X118055Y342353D01*
X118052Y342360D01*
X118057Y342363D01*
X118204Y343503D01*
X118239Y343530D01*
X118239Y356530D01*
X118236Y356534D01*
X118239Y356537D01*
X118075Y357747D01*
X118070Y357752D01*
X118073Y357756D01*
X117677Y358911D01*
X117671Y358915D01*
X117673Y358920D01*
X117058Y359975D01*
X117052Y359978D01*
X117053Y359983D01*
X116245Y360898D01*
X116238Y360900D01*
X116238Y360905D01*
X115266Y361645D01*
X115259Y361645D01*
X115258Y361650D01*
X114161Y362187D01*
X114154Y362185D01*
X114152Y362190D01*
X112971Y362502D01*
X112966Y362500D01*
X112964Y362500D01*
X112962Y362503D01*
X111743Y362579D01*
X111739Y362577D01*
X111737Y362579D01*
X110508Y362512D01*
X110502Y362508D01*
X110498Y362511D01*
X109306Y362205D01*
X109301Y362200D01*
X109296Y362202D01*
X108186Y361670D01*
X108183Y361663D01*
X108178Y361665D01*
X107193Y360926D01*
X107191Y360919D01*
X107186Y360919D01*
X106364Y360003D01*
X106363Y359996D01*
X106358Y359995D01*
X105731Y358936D01*
X105731Y358928D01*
X105726Y358927D01*
X105318Y357765D01*
X105320Y357758D01*
X105315Y357756D01*
X105141Y356537D01*
X105144Y356532D01*
X105141Y356530D01*
X105141Y343780D01*
X105144Y343776D01*
X105141Y343774D01*
X105293Y342528D01*
X105298Y342523D01*
X105295Y342519D01*
X105688Y341327D01*
X105694Y341323D01*
X105692Y341318D01*
X106309Y340225D01*
X106316Y340223D01*
X106315Y340218D01*
X107133Y339266D01*
X107140Y339265D01*
X107140Y339260D01*
X108129Y338486D01*
X108136Y338486D01*
X108137Y338481D01*
X109257Y337916D01*
X109264Y337917D01*
X109266Y337912D01*
X110475Y337576D01*
X110482Y337579D01*
X110485Y337575D01*
X111736Y337481D01*
X111742Y337484D01*
G37*
%LPC*%
G36*
X194689Y298579D02*
X194689Y298579D01*
X194689Y318481D01*
X201591Y318481D01*
X201591Y298579D01*
X194689Y298579D01*
G37*
%LPD*%
%LPC*%
G36*
X108289Y298579D02*
X108289Y298579D01*
X108289Y318481D01*
X115141Y318481D01*
X115141Y298579D01*
X108289Y298579D01*
G37*
%LPD*%
G36*
X389155Y142169D02*
X389155Y142169D01*
X389155Y142170D01*
X389155Y149170D01*
X389151Y149175D01*
X389150Y149175D01*
X383155Y149175D01*
X383155Y151170D01*
X383151Y151175D01*
X383150Y151175D01*
X379150Y151175D01*
X379145Y151171D01*
X379145Y151170D01*
X379145Y149175D01*
X373150Y149175D01*
X373145Y149171D01*
X373145Y149170D01*
X373145Y142170D01*
X373149Y142165D01*
X373150Y142165D01*
X389150Y142165D01*
X389155Y142169D01*
G37*
%LPC*%
G36*
X108289Y344579D02*
X108289Y344579D01*
X108289Y356481D01*
X115141Y356481D01*
X115141Y344579D01*
X108289Y344579D01*
G37*
%LPD*%
%LPC*%
G36*
X194739Y344579D02*
X194739Y344579D01*
X194739Y356481D01*
X201591Y356481D01*
X201591Y344579D01*
X194739Y344579D01*
G37*
%LPD*%
D10*
X281330Y214630D03*
X300330Y214630D03*
D11*
X220680Y26670D03*
X272080Y26670D03*
D12*
X342900Y94130D03*
X342900Y81130D03*
D13*
X119230Y255270D03*
X132230Y255270D03*
X97940Y288290D03*
X84940Y288290D03*
D10*
X121310Y271780D03*
X140310Y271780D03*
D14*
X86360Y310540D03*
X86360Y329540D03*
D10*
X300380Y171450D03*
X319380Y171450D03*
D15*
X226060Y209670D03*
X226060Y224670D03*
X178950Y207010D03*
X163950Y207010D03*
D16*
X401400Y154940D03*
X411400Y154940D03*
X44370Y201930D03*
X34370Y201930D03*
X209630Y53340D03*
X219630Y53340D03*
X138510Y207010D03*
X148510Y207010D03*
D17*
X220980Y251540D03*
X220980Y261540D03*
X214630Y213440D03*
X214630Y223440D03*
D18*
X18170Y233680D03*
X35170Y233680D03*
X33900Y276860D03*
X16900Y276860D03*
D16*
X26590Y254000D03*
X16590Y254000D03*
D17*
X243840Y166450D03*
X243840Y176450D03*
X259080Y220900D03*
X259080Y210900D03*
D16*
X411400Y137160D03*
X401400Y137160D03*
D19*
X181610Y238760D03*
X181610Y257810D03*
D20*
X203708Y240792D03*
D21*
X203708Y257810D03*
D22*
X182880Y7620D03*
X182880Y20320D03*
X182880Y33020D03*
X182880Y45720D03*
X182880Y58420D03*
X182880Y71120D03*
X182880Y83820D03*
X182880Y96520D03*
X182880Y109220D03*
X182880Y121920D03*
X182880Y134620D03*
X182880Y147320D03*
X182880Y160020D03*
X182880Y172720D03*
D23*
X155030Y182720D03*
X142330Y182720D03*
X129630Y182720D03*
X116930Y182720D03*
X104230Y182720D03*
X91530Y182720D03*
X78830Y182720D03*
X66130Y182720D03*
X53430Y182720D03*
X40730Y182720D03*
D22*
X12880Y172720D03*
X12880Y160020D03*
X12880Y147320D03*
X12880Y134620D03*
X12880Y121920D03*
X12880Y109220D03*
X12880Y96520D03*
X12880Y83820D03*
X12880Y71120D03*
X12880Y58420D03*
X12880Y45720D03*
X12880Y33020D03*
X12880Y20320D03*
X12880Y7620D03*
D24*
X128730Y64270D03*
X110380Y64270D03*
X92030Y64270D03*
X128730Y82620D03*
X110380Y82620D03*
X92030Y82620D03*
X128730Y100970D03*
X110380Y100970D03*
X92030Y100970D03*
D25*
X100640Y227330D02*
X107640Y227330D01*
X107640Y232330D02*
X100640Y232330D01*
X100640Y237330D02*
X107640Y237330D01*
X107640Y242330D02*
X100640Y242330D01*
X100640Y247330D02*
X107640Y247330D01*
X107640Y252330D02*
X100640Y252330D01*
X100640Y257330D02*
X107640Y257330D01*
X95140Y262830D02*
X95140Y269830D01*
X90140Y269830D02*
X90140Y262830D01*
X85140Y262830D02*
X85140Y269830D01*
X80140Y269830D02*
X80140Y262830D01*
X75140Y262830D02*
X75140Y269830D01*
X70140Y269830D02*
X70140Y262830D01*
X65140Y262830D02*
X65140Y269830D01*
X59640Y257330D02*
X52640Y257330D01*
X52640Y252330D02*
X59640Y252330D01*
X59640Y247330D02*
X52640Y247330D01*
X52640Y242330D02*
X59640Y242330D01*
X59640Y237330D02*
X52640Y237330D01*
X52640Y232330D02*
X59640Y232330D01*
X59640Y227330D02*
X52640Y227330D01*
X65140Y221830D02*
X65140Y214830D01*
X70140Y214830D02*
X70140Y221830D01*
X75140Y221830D02*
X75140Y214830D01*
X80140Y214830D02*
X80140Y221830D01*
X85140Y221830D02*
X85140Y214830D01*
X90140Y214830D02*
X90140Y221830D01*
X95140Y221830D02*
X95140Y214830D01*
D19*
X78740Y240030D03*
D26*
X138430Y234950D03*
X138430Y228346D03*
X138430Y221742D03*
X153924Y221742D03*
X153924Y228346D03*
X153924Y234950D03*
D27*
X261670Y166370D03*
X271170Y166370D03*
X280670Y166370D03*
X280670Y194370D03*
X261670Y194370D03*
D28*
X387650Y153670D03*
X381150Y153670D03*
X374650Y153670D03*
X374650Y137670D03*
X381150Y137670D03*
X387650Y137670D03*
D29*
X344170Y234790D03*
X344170Y214790D03*
D30*
X401670Y258290D03*
X401670Y191290D03*
D31*
X369540Y93980D03*
X397540Y93980D03*
D18*
X308610Y66920D03*
X308610Y49920D03*
D13*
X288440Y68580D03*
X275440Y68580D03*
X375770Y119380D03*
X388770Y119380D03*
X365910Y167640D03*
X352910Y167640D03*
D32*
X278450Y126770D03*
X278450Y121770D03*
X278450Y116770D03*
X278450Y111770D03*
X278450Y106770D03*
X278450Y101770D03*
D33*
X285950Y94800D03*
X290950Y94800D03*
X295950Y94800D03*
X300950Y94800D03*
X305950Y94800D03*
X310950Y94800D03*
D32*
X318450Y101770D03*
X318450Y106770D03*
X318450Y111770D03*
X318450Y116770D03*
X318450Y121770D03*
X318450Y126770D03*
D33*
X310950Y133800D03*
X305950Y133800D03*
X300950Y133800D03*
X295950Y133800D03*
X290950Y133800D03*
X285950Y133800D03*
D34*
X294470Y236540D03*
X241470Y236540D03*
X294470Y276540D03*
X241470Y276540D03*
D18*
X181220Y279400D03*
X164220Y279400D03*
D35*
X220980Y274710D03*
X220980Y291710D03*
D18*
X320430Y288290D03*
X337430Y288290D03*
D12*
X309880Y248770D03*
X309880Y261770D03*
D34*
X241470Y340040D03*
X294470Y340040D03*
X241470Y300040D03*
X294470Y300040D03*
D35*
X324240Y350520D03*
X341240Y350520D03*
X425450Y101990D03*
X425450Y118990D03*
D15*
X342900Y40760D03*
X342900Y55760D03*
D18*
X325510Y20320D03*
X342510Y20320D03*
D36*
X316700Y327540D03*
X316700Y322540D03*
X316700Y317540D03*
X316700Y312540D03*
X343700Y312540D03*
X343700Y317540D03*
X343700Y322540D03*
X343700Y327540D03*
D10*
X409550Y279400D03*
X390550Y279400D03*
D35*
X325120Y251850D03*
X325120Y268850D03*
M02*
