G04 EAGLE Gerber RS-274X export*
G75*
%MOMM*%
%FSLAX34Y34*%
%LPD*%
%INSoldermask Bottom*%
%IPPOS*%
%AMOC8*
5,1,8,0,0,1.08239X$1,22.5*%
G01*
%ADD10C,5.791200*%
%ADD11R,0.908000X0.908000*%
%ADD12R,0.838000X0.838000*%
%ADD13C,0.938000*%
%ADD14C,1.503200*%
%ADD15C,1.328200*%
%ADD16C,0.959600*%


D10*
X394970Y41148D03*
X394970Y325120D03*
X40894Y325120D03*
D11*
X71120Y233680D03*
X80010Y233680D03*
X71120Y242570D03*
X80010Y242570D03*
X71120Y251460D03*
X80010Y251460D03*
X88900Y242570D03*
X88900Y251460D03*
D12*
X385699Y145669D03*
X376682Y145669D03*
D13*
X184690Y303530D03*
X176190Y303530D03*
X167690Y303530D03*
X159190Y303530D03*
X150690Y303530D03*
X142190Y303530D03*
X133690Y303530D03*
X125190Y303530D03*
X184690Y317030D03*
X176190Y317030D03*
X167690Y317030D03*
X159190Y317030D03*
X150690Y317030D03*
X142190Y317030D03*
X133690Y317030D03*
X125190Y317030D03*
D14*
X198140Y315030D02*
X198140Y302030D01*
X111740Y302030D02*
X111740Y315030D01*
D15*
X198140Y344405D02*
X198140Y355655D01*
X111740Y355655D02*
X111740Y344405D01*
D16*
X308610Y78740D03*
X292100Y50800D03*
X261620Y69850D03*
X154940Y198120D03*
X27940Y7620D03*
X167640Y7620D03*
X334010Y127000D03*
X300990Y200660D03*
X320040Y184150D03*
X248920Y220980D03*
X190500Y207010D03*
X203200Y227330D03*
X86360Y341630D03*
X35560Y254000D03*
X114300Y236220D03*
X140970Y256540D03*
X388620Y129540D03*
X397510Y109220D03*
X411480Y127000D03*
X382270Y171450D03*
X336550Y167640D03*
X270510Y179070D03*
X342900Y69850D03*
X292100Y26670D03*
X92710Y113030D03*
X128270Y113030D03*
X80010Y100330D03*
X80010Y64770D03*
X92710Y52070D03*
X128270Y52070D03*
X140970Y100330D03*
X140970Y64770D03*
X194310Y279400D03*
X208280Y274320D03*
X72390Y288290D03*
X425450Y91440D03*
X314960Y20320D03*
X311150Y300990D03*
X312420Y350520D03*
X275590Y339090D03*
X261620Y236220D03*
X177800Y190500D03*
X203200Y190500D03*
X355600Y115570D03*
X355600Y139700D03*
X254000Y127000D03*
X228600Y101600D03*
X254000Y101600D03*
X330200Y38100D03*
X7620Y208280D03*
X410210Y171450D03*
X156210Y255270D03*
X20320Y208786D03*
X128270Y236220D03*
X12700Y190500D03*
X124460Y215900D03*
X217170Y234950D03*
X165100Y234950D03*
X199390Y55880D03*
X25400Y190500D03*
X33020Y57150D03*
X200660Y143510D03*
X203200Y168910D03*
X204470Y130810D03*
X154940Y165254D03*
X208280Y290830D03*
X424180Y280670D03*
X340360Y273050D03*
M02*
